<svg xmlns="http://www.w3.org/2000/svg" width="1500" height="243" viewBox="0 0 1500 243">
  <defs>
    <style>
      .cls-1 {
        fill: #fff;
        fill-rule: evenodd;
      }
    </style>
  </defs>
  <path id="_IC4D" data-name="##IC4D" class="cls-1" d="M60.253,145.213l6.031-46.278H99.3l-6.031,46.278H60.253ZM49.143,226.6L57.4,164.044H90.409L82.155,226.6H101.2l8.253-62.555H139.61V145.213h-27.3l5.714-46.278h28.886V80.1H120.882l7.935-60.96H110.089L101.836,80.1H68.823l7.936-60.96H58.348L50.1,80.1H19.94V98.935h27.3l-6.031,46.278H12.321v18.831H38.35L30.1,226.6H49.143Zm323.17-8.1a0.444,0.444,0,0,0,.5.506,1.009,1.009,0,0,0,.755.254,84.134,84.134,0,0,0,13.091,0,1.022,1.022,0,0,0,.756-0.254,5.381,5.381,0,0,1,1.258-1.012,7.346,7.346,0,0,1,1.511,1.266h17.371l1.51-1.519h1.511l2.266-2.278v-4.557a3.466,3.466,0,0,0-.63-0.886c-0.252-.253-0.547-0.545-0.881-0.885v-1.519l1.511-1.519v-6.328a2.065,2.065,0,0,0-1.259-.759,1.731,1.731,0,0,0-1.133-.127,5.636,5.636,0,0,1-1.133.127L408.313,198l0.5-.506a2.846,2.846,0,0,1,2.014-.253,2.1,2.1,0,0,0,1.762-.253,1.042,1.042,0,0,0,.252-0.76V91.177a5.933,5.933,0,0,1-1.511-2.278,5.992,5.992,0,0,1,1.511-2.278q0.247-8.1.251-14.175t-0.5-6.581a1.41,1.41,0,0,0-.5-0.633,3.4,3.4,0,0,1-.755-0.633V61.309a1.9,1.9,0,0,0,.755-0.633,5.953,5.953,0,0,1,.756-0.886,11.916,11.916,0,0,1-1.511-1.772V57.005a1.363,1.363,0,0,0-.755-1.013,3.586,3.586,0,0,1-.755.633,3.644,3.644,0,0,0-.756.633,3.024,3.024,0,0,1-1.007-1.392,4.247,4.247,0,0,1,1.007-1.645h1.511l2.266-2.278a2.388,2.388,0,0,0-1.007-.759,3.52,3.52,0,0,0-1.511.253,1.877,1.877,0,0,0-.755.633,1.9,1.9,0,0,1-.755.633H405.8c-0.339-.336-0.59-0.589-0.756-0.759a2.761,2.761,0,0,1-.5-0.759,1.365,1.365,0,0,1-.5.633,2.026,2.026,0,0,0-.5.38v2.278a1.167,1.167,0,0,1-.755,1.266l-1.511-1.519a1.687,1.687,0,0,1-1.133.127,0.739,0.739,0,0,0-.881.633,0.5,0.5,0,0,0,.252.759,1.677,1.677,0,0,1,.755.759,3.022,3.022,0,0,1-1.385,1.012,4.672,4.672,0,0,1-1.636-.759,4.107,4.107,0,0,1,0-2.025,1.773,1.773,0,0,0-.5-1.772,2.693,2.693,0,0,0-2.14-.127,1.516,1.516,0,0,1-1.889-.886,11.058,11.058,0,0,1,1.637-1.772,5.132,5.132,0,0,0,1.385-2.025,10.921,10.921,0,0,0-.5-1.772h-3.273a2.081,2.081,0,0,0-.755,1.266,1.717,1.717,0,0,0-.126,1.139,2.756,2.756,0,0,1-.126,1.392q0,1.015-1.51,1.013a1.5,1.5,0,0,1-1.511-1.519V48.905a11.961,11.961,0,0,1-1.51-1.772V41.059a12.169,12.169,0,0,1,1.51-1.772V37.768a2.879,2.879,0,0,0-2.14-1.139q-1.386-.125-2.14-2.4a6.674,6.674,0,0,1-.881,3.8,7.006,7.006,0,0,1-2.14,2.025,2.62,2.62,0,0,0-1.762.127,1.425,1.425,0,0,1-1.762-.633,1.256,1.256,0,0,1,1.51-1.013,1.222,1.222,0,0,0,1.511-.759l-3.273-3.291a3.638,3.638,0,0,0,0-2.658,2.41,2.41,0,0,1,.755-2.658,12.635,12.635,0,0,1,1.763,1.519l1.51-1.519h1.007a1.4,1.4,0,0,0,1.259-1.519q0.5-1.264-1.007-1.519a2.929,2.929,0,0,1-.5.759l-0.755.759c-1.176,0-2.391-.04-3.65-0.127a20.658,20.658,0,0,0-3.9.127,2.351,2.351,0,0,0-1.007.759v1.519a1.159,1.159,0,0,0,1.258.759,2.059,2.059,0,0,1,1.511.506l0.252,0.506a1.41,1.41,0,0,1-.756.506,1.4,1.4,0,0,1-1.007.127,1.047,1.047,0,0,0-1.007.38q-1.008,1.27.5,2.784c0.5,0.506.669,0.846,0.5,1.012l-1.258,1.266v48.6a4.254,4.254,0,0,1-.126,1.012,1.04,1.04,0,0,0,.377,1.013,1.181,1.181,0,0,0,1.133.38,1.2,1.2,0,0,1,1.133.38,0.447,0.447,0,0,1,.5.506l-0.252.253a0.224,0.224,0,0,1-.252.253,6.293,6.293,0,0,1-2.517.759h0V218.5Zm19.636-25.819a4.741,4.741,0,0,1,.755,1.646,3.048,3.048,0,0,1-1.007,1.392h-2.265q-0.756.51-1.259-.506c-0.338-.337-0.169-0.673.5-1.013a6.233,6.233,0,0,1,.882-0.759,5.947,5.947,0,0,0,.881-0.76h1.51Zm10.07,3.164a4.7,4.7,0,0,1-.755,1.646,5.743,5.743,0,0,1-.755-0.886,6.463,6.463,0,0,0-.755-0.886h-3.273l-0.5-.506c-0.338-.337-0.086-0.673.756-1.013h4.531A4.739,4.739,0,0,1,402.019,195.844Zm-21.147-40.879c0.5,0.34.669,0.676,0.5,1.012l-0.5.507h-3.021a0.992,0.992,0,0,1-.755-1.013,0.7,0.7,0,0,1,.378-0.253,0.705,0.705,0,0,0,.377-0.253h3.021ZM405.04,62.827a6.973,6.973,0,0,0,.126,1.392c0.083,0.423-.3.72-1.133,0.886a17.85,17.85,0,0,0-2.014-2.278,1.882,1.882,0,0,1,3.021,0h0Zm-21.9,18.1a1.884,1.884,0,0,1-.5,1.392h-0.5a1.142,1.142,0,0,1-.5-1.139,1.884,1.884,0,0,1,.5-1.392h0.5A1.155,1.155,0,0,1,383.138,80.926Zm34.49,93.783a1.355,1.355,0,0,0-1.007-.76,2.069,2.069,0,0,0-.5,1.519V221.79a25.483,25.483,0,0,1-2.517,2.278H388.928a0.711,0.711,0,0,1-.5-0.253l-1.259-1.266a12.12,12.12,0,0,1-1.762,1.519h-1.259a11.812,11.812,0,0,1-1.762-1.519,2.287,2.287,0,0,0-.756,2.025c0,1.013-.59,1.353-1.762,1.013a1.161,1.161,0,0,1-1.259-.76l1.511-1.518a2.767,2.767,0,0,1-.755-0.507,0.744,0.744,0,0,0-.5-0.253h-10.07a0.5,0.5,0,0,1-.378-0.126,0.523,0.523,0,0,0-.377-0.127,1.4,1.4,0,0,1-.5-0.759V210.905a14.993,14.993,0,0,0,1.763-2.025,11.6,11.6,0,0,1-.252-2.278v-2.278l-0.252-.253a0.222,0.222,0,0,1-.252-0.253,15.616,15.616,0,0,1-2.014-.127,2.515,2.515,0,0,0-1.762.38,0.518,0.518,0,0,1-.126.38,0.515,0.515,0,0,0-.126.379v21.263a0.719,0.719,0,0,0,.252.506,2.968,2.968,0,0,1,.5.76h26.559q13.218,0,26.56-.254c0.165,0,.252-0.043.252-0.126s0.082-.127.252-0.127a6.11,6.11,0,0,0,.377-2.784c-0.086-1.013-.126-1.938-0.126-2.784a9.329,9.329,0,0,0,0-3.038,6.221,6.221,0,0,1,.252-3.037,1.365,1.365,0,0,0,.629-0.507,1.373,1.373,0,0,1,.63-0.506,6.229,6.229,0,0,0-.755-1.266,2.281,2.281,0,0,1-.756-2.025,6.194,6.194,0,0,0,.756-0.886,5.938,5.938,0,0,1,.755-0.885V206.1a5.743,5.743,0,0,1-.755-0.886,6.481,6.481,0,0,0-.756-0.886V193.44l1.511-1.519a5.743,5.743,0,0,1-.755-0.886,7.3,7.3,0,0,1-.5-0.886v-3.037a3.98,3.98,0,0,0,.755-1.013,3.915,3.915,0,0,1,.756-1.012,3.072,3.072,0,0,1-.126-1.519,2.1,2.1,0,0,0-.378-1.519l-1.007-1.012v-4.81a11.958,11.958,0,0,1-1.762-1.518h0Zm0.5-2.532c0.669,0,1.007-.253,1.007-0.759V97.505l-1.51-1.519a9.213,9.213,0,0,0,1.51-1.772V69.662a7.822,7.822,0,0,0-.251-2.278l-0.5-.506-2.266,2.278v1.519a12.169,12.169,0,0,0-1.51,1.772v59.738l1.51,1.518-1.51,1.519v1.519a6.463,6.463,0,0,1,.755.886,9.292,9.292,0,0,1,.5.886v4.809q-1.51,1.52-1.511,2.152t1.762,2.4v12.4l-0.5.507a1.362,1.362,0,0,1-.5.632,1.366,1.366,0,0,0-.5.633v3.038a12.566,12.566,0,0,1,1.51,1.772v4.556h0a1.486,1.486,0,0,0,2.014.759h0Zm-53.623,22.782v5.568a1.427,1.427,0,0,0,.252,1.139,9.505,9.505,0,0,0,1.762.38,12.206,12.206,0,0,0,2.518-2.278V119.527l-2.266-2.278h-1.762a18.335,18.335,0,0,0-.755,2.025c0.334,0.34.629,0.633,0.881,0.886s0.543,0.55.881,0.886a12.18,12.18,0,0,0-1.511,1.772v72.141Zm4.909-174.783a26.27,26.27,0,0,1,2.14-1.9l0.252,0.253a1.41,1.41,0,0,1,.629.506,1.326,1.326,0,0,0,.63.506h7.8a1.894,1.894,0,0,0,.755-0.633,5.953,5.953,0,0,1,.756-0.886,1.773,1.773,0,0,1,.755.127,0.877,0.877,0,0,0,.755-0.127,1.409,1.409,0,0,0,.755-0.506c0-.672-0.251-1.012-0.755-1.012h-6.042a12.46,12.46,0,0,0-1.762,1.519l-1.259-1.266q-3.274-.249-5.035-0.253h-2.643a3.152,3.152,0,0,0-1.385.253,9.3,9.3,0,0,1-1.259.506v3.291l1.511,1.519a5.938,5.938,0,0,0-.755.886,1.9,1.9,0,0,1-.756.633,1.436,1.436,0,0,0,.378,1.9,1.949,1.949,0,0,1,.881,1.645,1.982,1.982,0,0,1-.5.38,1.359,1.359,0,0,0-.5.633,1.034,1.034,0,0,0-.252.759V70.421a0.719,0.719,0,0,0,.252.506,3.132,3.132,0,0,1,.5.759,2.153,2.153,0,0,1,1.888-.127,1.3,1.3,0,0,0,1.636-.633c0.165,0,.252-0.166.252-0.506V53.968a1.051,1.051,0,0,0-.252-0.759l-1.259-1.266V45.109a1.793,1.793,0,0,0-.126-0.759,1.089,1.089,0,0,1-.125-0.506,5.284,5.284,0,0,1-1.007-1.266,3.5,3.5,0,0,1-.252-1.519,12.405,12.405,0,0,0,1.51-1.772V22.074Zm-0.755,66.952a1.679,1.679,0,0,0,.378-1.013,18.858,18.858,0,0,0,.126-3.67c-0.087-1.1-.126-2.235-0.126-3.417a1.051,1.051,0,0,0-.252-0.759l-1.007-1.013a6.752,6.752,0,0,1,1.259-1.772,2.166,2.166,0,0,0-.5-0.38,1.852,1.852,0,0,1-.5-0.38,0.905,0.905,0,0,0-.755-0.127,0.876,0.876,0,0,1-.756-0.127,2.7,2.7,0,0,1-1.007-1.266l-1.007,1.013v35.944l0.5,0.506a7.673,7.673,0,0,0,1.888.253,4.2,4.2,0,0,0,1.888-.506l0.252-.506V89.659a9.919,9.919,0,0,1-1.259-1.519h0A9.325,9.325,0,0,0,368.662,87.127ZM406.8,43.21a0.9,0.9,0,0,0-.756.127,0.993,0.993,0,0,0-.755,1.013,1.381,1.381,0,0,0,.755.506H406.8c0.5-.336.92-0.166,1.258,0.506s-0.169,1.013-1.51,1.013a1.025,1.025,0,0,0-.755.253c-0.5.34-.59,0.676-0.252,1.013a2.727,2.727,0,0,1,1.259,2.531,1.022,1.022,0,0,0,.251.759,0.313,0.313,0,0,0,.5,0,5.813,5.813,0,0,1,1.133-.886,6.946,6.946,0,0,1,1.384-.633,1.855,1.855,0,0,0,1.763-.886,6.538,6.538,0,0,1,1.007-1.392V37.768a0.448,0.448,0,0,0-.5-0.506q-0.507-.5-1.007.506v1.519a26.138,26.138,0,0,1-1.888,2.151l-1.888,1.9A1.69,1.69,0,0,1,406.8,43.21Zm12.084,13.8a3.58,3.58,0,0,0,.251-1.519v-12.4a2.076,2.076,0,0,0-.755-1.266,5.565,5.565,0,0,1-1.133-.127,0.739,0.739,0,0,0-.881.633,0.5,0.5,0,0,0,.252.759,1.677,1.677,0,0,1,.755.759,2.177,2.177,0,0,1-.755,1.266,1.46,1.46,0,0,0-.5,1.013v1.012a12.174,12.174,0,0,0-1.51,1.772v4.3a1.25,1.25,0,0,0,1.51,1.012,1.26,1.26,0,0,1,1.511,1.013v2.278a1.281,1.281,0,0,0,1.259-.506h0ZM409.32,29.162h-1.259a1.476,1.476,0,0,0-1.258.759V31.44l-1.763,1.772a4.109,4.109,0,0,1,1.637,1.519,1.9,1.9,0,0,0,2.14.759,8.651,8.651,0,0,0,2.517-2.531V29.921a2.262,2.262,0,0,0-2.014-.759h0Zm6.042,28.35-0.5.506a10.848,10.848,0,0,0-.378,3.038,1.9,1.9,0,0,0,.881,1.013h2.014a1.913,1.913,0,0,0,1.511-.38,4.323,4.323,0,0,0,.251-1.9l-2.265-2.278h-1.511Zm1.007-32.527a0.649,0.649,0,0,0-.252.633,2.678,2.678,0,0,0,0,2.278,0.641,0.641,0,0,0,.252.633,1.423,1.423,0,0,1,.5.633h1.51a1.866,1.866,0,0,0,.5-2.531,17.932,17.932,0,0,0-2.014-2.278A1.378,1.378,0,0,1,416.369,24.985ZM389.18,28.149a17.842,17.842,0,0,0-2.014-2.278L384.9,28.149a1.672,1.672,0,0,1,.378.633,0.434,0.434,0,0,0,.377.38h3.021c0.5-.506.669-0.843,0.5-1.012h0Zm15.105,11.9c-0.5.506-.673,0.846-0.5,1.013a0.734,0.734,0,0,1,.251.38,0.685,0.685,0,0,0,.252.38h0.755q2.013,0,1.511-1.013a1.7,1.7,0,0,0-1.511-.759h-0.755ZM637.658,155.471a2.077,2.077,0,0,1,.126,1.266,1.219,1.219,0,0,0,.881,1.265H639.8a1.442,1.442,0,0,0,1.133-1.012v-5.822a0.589,0.589,0,0,0-.377-0.633,1.532,1.532,0,0,1-.63-0.38,2.833,2.833,0,0,0-1.259-.253c-0.5-.336-0.967-0.672-1.384-1.012a12.628,12.628,0,0,1-1.133-1.013V146.1a18.087,18.087,0,0,0,2.014-.759,3.763,3.763,0,0,0,1.007.759,4.088,4.088,0,0,1,1.007.76l0.5-.253a0.518,0.518,0,0,1,.126-0.38,0.518,0.518,0,0,0,.126-0.38,21.687,21.687,0,0,1,0-4.683,14.641,14.641,0,0,0-.252-4.682c-0.338-.673-0.755-0.843-1.258-0.507a5.9,5.9,0,0,1-.756,1.519q-0.254.255-1.762,1.519a4.728,4.728,0,0,1-.755-1.645,3.035,3.035,0,0,1,1.007-1.393h2.266v-0.759a6.233,6.233,0,0,0,.755-0.886,5.938,5.938,0,0,1,.755-0.886V131.93a0.731,0.731,0,0,0-.377-0.253,0.677,0.677,0,0,1-.378-0.253,4.2,4.2,0,0,1-1.007-1.645,4.231,4.231,0,0,1,1.007-1.645,4.729,4.729,0,0,0,.755-1.646,4.287,4.287,0,0,0-1.007-1.645h-1.51a18.156,18.156,0,0,1-.756-2.025l1.763-1.772V116.49a6.233,6.233,0,0,0,.755-0.886,5.938,5.938,0,0,1,.755-0.886V111.68a1.334,1.334,0,0,0-1.636-.759,1.338,1.338,0,0,1-1.637-1.012,3.567,3.567,0,0,0,.252-1.519,12.538,12.538,0,0,0,1.511-1.772,1.408,1.408,0,0,0,.755-0.506,2.466,2.466,0,0,0,0-3.291,1.9,1.9,0,0,1,0-3.037l0.755-.759V92.7l-1.51-1.519,1.51-1.519V81.812a6.045,6.045,0,0,1-1.51-2.025,2.23,2.23,0,0,1-.252-1.013,1.472,1.472,0,0,0-.5-1.012h-1.51a1.528,1.528,0,0,1-.881-1.9,2.238,2.238,0,0,0-.378-2.152,1.416,1.416,0,0,0-.5-0.633,1.324,1.324,0,0,1-.5-0.633q0.247-1.264,2.266-.759l2.769,2.784h0.252l0.252-.253a0.445,0.445,0,0,0,.5-0.506V70.927a1.405,1.405,0,0,0-1.133-.759,2.464,2.464,0,0,1-1.133-.253q-1.008,0-1.007-1.772a1.4,1.4,0,0,1,1.511-1.266h1.007q1-.5.5-1.013l-0.5-.506a17.418,17.418,0,0,0-3.273-.253l-2.266-2.278,1.511-1.519a1.41,1.41,0,0,0-.5-0.633,1.848,1.848,0,0,1-.5-0.38,0.685,0.685,0,0,1-.252-0.38,0.73,0.73,0,0,0-.252-0.38V58.018a0.731,0.731,0,0,0-.377-0.253,0.677,0.677,0,0,1-.378-0.253l-0.5-.253q-2.774-.249-1.007-3.038l1.51,1.519h3.9a31.836,31.836,0,0,1,3.9.253,1.435,1.435,0,0,1,.756.506V59.79a6.53,6.53,0,0,0-1.511,1.519,4.058,4.058,0,0,0,.126,1.012,6.87,6.87,0,0,1,.126,1.519,5.034,5.034,0,0,1,3.147,0,2.558,2.558,0,0,0,2.895-1.012V60.549q-2.52-.5-1.511-2.531a1.371,1.371,0,0,1,.5-0.633,1.979,1.979,0,0,0,.5-0.38,0.7,0.7,0,0,0,.252-0.38,0.712,0.712,0,0,1,.252-0.38V52.7H646.47a10.868,10.868,0,0,1-1.763-1.645q-0.755-.884-1.51-1.645h-4.783a8.8,8.8,0,0,1-.756-2.278q-1.261-1.264-2.391-2.4c-0.755-.759-1.554-1.558-2.392-2.4a12.554,12.554,0,0,0,.252-2.4,12.2,12.2,0,0,1,.252-2.4c0-.672.417-0.842,1.258-0.506V33.718a6.815,6.815,0,0,0-1.384-1.013c-0.59-.336-1.133-0.672-1.637-1.012a7.406,7.406,0,0,1-.251-1.266,15.842,15.842,0,0,1-2.014-2.4q-0.756-1.139-1.511-2.152L625.323,28.4v1.519a7.777,7.777,0,0,1-2.77,1.012l-1.636,1.645a17.823,17.823,0,0,0-1.636,1.9,1.361,1.361,0,0,0-.378,1.266,1.226,1.226,0,0,1-.881,1.266h-0.755L600.4,53.968V75.484a5.472,5.472,0,0,1,1.007,1.266c0.165,0,.252.17,0.252,0.506a5.357,5.357,0,0,1-1.259,1.013,13.55,13.55,0,0,0-.252,2.658,7.068,7.068,0,0,0,.5,2.658,1.323,1.323,0,0,0,.5.633,1.41,1.41,0,0,1,.5.633,3.516,3.516,0,0,0,.252,1.519l-1.763,1.772V92.7l1.763,1.772V131.93a6.523,6.523,0,0,1,.755.886,9.207,9.207,0,0,1,.5.886,6.79,6.79,0,0,0-1.258,1.772V148.89a0.717,0.717,0,0,0,.251.506,3.074,3.074,0,0,1,.5.759h1.51a1.218,1.218,0,0,0,.63-1.265,2.052,2.052,0,0,1,.377-1.519,12.59,12.59,0,0,0,1.889-1.772,8.911,8.911,0,0,1,2.14-1.772h2.265a2.734,2.734,0,0,1,2.014,1.266c0,0.17.417,0.253,1.259,0.253a7.309,7.309,0,0,0,2.769-2.531,2.285,2.285,0,0,0-.755-2.025,1.158,1.158,0,0,1-.5-1.266,1.279,1.279,0,0,1,1.258-.506,1.683,1.683,0,0,0,1.133.126,5.867,5.867,0,0,1,1.133-.126,3.1,3.1,0,0,1,.755,2.278,2.187,2.187,0,0,1,.378.506,1.328,1.328,0,0,0,.629.507l1.511,1.518a4.521,4.521,0,0,0,2.14,0,1.5,1.5,0,0,1,1.636.76V146.1a3.189,3.189,0,0,1-1.51,1.519,24.563,24.563,0,0,0,1.888,2.152q0.879,0.889,1.888,1.9a1.125,1.125,0,0,0,.881-1.519,1.124,1.124,0,0,1,.881-1.518,5.745,5.745,0,0,0,.881.759,4.5,4.5,0,0,1,.63.506,3.3,3.3,0,0,0,2.14.253,1.5,1.5,0,0,1,1.636.76v4.05h0a1.435,1.435,0,0,1,1.51.506h0ZM626.2,79.787c0.252,0,.377.087,0.377,0.253a18.749,18.749,0,0,1,.252,3.037v3.291l-1.51,1.519a16.762,16.762,0,0,0-1.511,1.772,1.147,1.147,0,0,1-1.259.506,2.056,2.056,0,0,1-.5-1.519,0.735,0.735,0,0,0,.252-0.506,17.293,17.293,0,0,1,1.258-1.772,1.619,1.619,0,0,0-1.762-.759,4.038,4.038,0,0,1-2.014,0l-1.51-1.519h-1.511l-0.5-.506c-0.339-.672-0.17-1.013.5-1.013a3.132,3.132,0,0,1,1.511-.126,8.844,8.844,0,0,0,1.51.126,12.579,12.579,0,0,1,1.762,1.519,3.639,3.639,0,0,1,1.889,0,1.487,1.487,0,0,0,1.636-.759,1.875,1.875,0,0,1-.378-0.506,2.182,2.182,0,0,0-.377-0.506,0.779,0.779,0,0,1-.378-0.759,8.581,8.581,0,0,1,1.133-1.266,2.027,2.027,0,0,1,.5-0.38,1.963,1.963,0,0,0,.5-0.38q-2.773,1.27-3.4.759a4.523,4.523,0,0,0-1.384-.759,3.589,3.589,0,0,1-.756.633,3.642,3.642,0,0,0-.755.633q-1.01-1.009-1.888-1.9a27.324,27.324,0,0,0-2.14-1.9,12.351,12.351,0,0,1,1.888-.633,25.512,25.512,0,0,1,3.4-.127,4.994,4.994,0,0,1,1.762-1.266q0.756-.759.755,0.506a13.784,13.784,0,0,1,.252,2.658v2.911h0A8.967,8.967,0,0,1,626.2,79.787Zm2.517,54.8a1.106,1.106,0,0,1,1.133.633,5.623,5.623,0,0,0,.126,1.139,0.742,0.742,0,0,1-.629.886,0.494,0.494,0,0,1-.756-0.253,1.676,1.676,0,0,0-.755-0.759,2.69,2.69,0,0,0-2.14-.127,1.516,1.516,0,0,1-1.888-.886,18.815,18.815,0,0,0-.126-2.278,7.1,7.1,0,0,1,.126-2.278c0-.843.334-1.1,1.007-0.76a0.223,0.223,0,0,0,.252.254,0.225,0.225,0,0,1,.252.253v1.772c0.334,0.34.668,0.676,1.007,1.012a14.145,14.145,0,0,0,1.51,1.266A0.936,0.936,0,0,0,628.721,134.588Zm3.147-13.289q-1.01-1.263.5-2.784a17.912,17.912,0,0,1,2.014,2.278,2.229,2.229,0,0,1-.5,2.784,17.51,17.51,0,0,1-2.014-2.278h0Zm-1.007,10a3.036,3.036,0,0,1-1.51-.127l-0.756-.759,2.266-2.278c0.334,0.34.669,0.676,1.007,1.012s0.669,0.676,1.007,1.013,0.165,0.676-.5,1.012h0A9.282,9.282,0,0,0,630.861,131.3Zm-9.315-58.346a1.646,1.646,0,0,0-.629-0.38,0.435,0.435,0,0,1-.378-0.38V69.155c0.335-.672.669-0.842,1.007-0.506a12.781,12.781,0,0,0,1.133,1.013c0.417,0.34.8,0.676,1.133,1.013Zm0.63-7.973a0.723,0.723,0,0,1,.377-0.886c0.5-.336.838-0.336,1.007,0a1.606,1.606,0,0,0,.756.759,1.392,1.392,0,0,0,.5.759l0.5,0.506q-1.766,1.774-3.273,0A1.762,1.762,0,0,0,622.176,64.979ZM617.644,88.9a1.847,1.847,0,0,1-1.384-.506c-0.339-.336-0.339-0.506,0-0.506a1.065,1.065,0,0,1,1.132-.759,1.876,1.876,0,0,1,1.385.506v0.759A1.139,1.139,0,0,1,617.644,88.9Zm19.511,2.784q-1.01.51-1.007-1.266V89.659l0.5-.506c0.335-.166.669,0,1.007,0.506v0.759h0q0.5,1.014-.5,1.266h0Zm-4.783-29.616a2.168,2.168,0,0,1,0,3.291q-1.765-1.768,0-3.291h0Zm-17.623-6.581a1.872,1.872,0,0,1-.5-1.392,1.15,1.15,0,0,1,.5-1.139H615.5c0,0.17.04,0.253,0.126,0.253s0.126,0.087.126,0.253a2.392,2.392,0,0,1,0,1.519,0.446,0.446,0,0,1-.5.506h-0.5Zm19.888-16.2,4.532,4.556a4.013,4.013,0,0,0,.126,1.013,4.305,4.305,0,0,1,.126,1.012,2.281,2.281,0,0,0,.755,2.025h1.51a6.233,6.233,0,0,1,.882-0.759,6,6,0,0,0,.881-0.759,4.439,4.439,0,0,1,1.762.506,4.506,4.506,0,0,1,.5,1.772,1.087,1.087,0,0,0,.5.886,10.038,10.038,0,0,1,1.007.886V52.7h0.755l1.511-1.519a2.655,2.655,0,0,1,.881,2.658,5.74,5.74,0,0,0-.126,2.658l-1.51,1.519a16.647,16.647,0,0,0-1.511,1.772v0.759h0.755q0.756,0.759,1.511,1.645a5.532,5.532,0,0,0,1.762,1.392,6.233,6.233,0,0,0,.755-0.886,1.127,1.127,0,0,1,1.007-.38,1.324,1.324,0,0,0,.5.633,3.866,3.866,0,0,1,.755.633h29.2a0.585,0.585,0,0,1,.63.38,1.128,1.128,0,0,0,.629.633v3.038a6.463,6.463,0,0,1,.755.886,5.743,5.743,0,0,0,.755.886v24.3A1.167,1.167,0,0,0,687,94.974q10.065,0.255,16.489.253h10.574q4.153,0,6.671-.127t4.784-.38a43.566,43.566,0,0,1-.126-5.822,45.145,45.145,0,0,0-.126-5.822,0.729,0.729,0,0,0-.378-0.253,0.679,0.679,0,0,1-.377-0.253H723A12.853,12.853,0,0,1,722,81.432c-0.338-.419-0.672-0.8-1.007-1.139q0-1.264,1.133-.886a1.206,1.206,0,0,0,1.636-.886L722.247,77V75.484a11.977,11.977,0,0,1-1.511-1.772,3.371,3.371,0,0,1,.252-1.772,4.414,4.414,0,0,1,1.762-.506,12.636,12.636,0,0,1,1.763,1.519,2.375,2.375,0,0,0,.755-1.012V55.487a1.051,1.051,0,0,0-.252-0.759l-1.007-1.013a7.8,7.8,0,0,1-.252-1.9,5.287,5.287,0,0,0-.251-1.645q-6.042-6.075-11.959-12.15t-11.706-11.9q-4.03,0-8.308-.127t-8.433-.127q-4.155,0-7.679.127t-5.79.127l-1.259,1.266a12.694,12.694,0,0,0-1.762-1.519H638.665c-0.5,0-.755.34-0.755,1.013l1.259,1.266a1.074,1.074,0,0,1-1.007,1.012,2.769,2.769,0,0,1-1.259-.253,2.432,2.432,0,0,1-.881-0.759,1.093,1.093,0,0,0-.881-0.506,0.908,0.908,0,0,0-.5.886v1.139a16.379,16.379,0,0,0,1.511,1.772c0.5,0.506,1.09,1.1,1.762,1.772A2.282,2.282,0,0,0,636.4,34.6c-0.169.593-.339,1.139-0.5,1.645,0,0.506-.421.759-1.259,0.759h0v2.278Zm13.469,4.05a6.6,6.6,0,0,0-1.385-1.266,10.523,10.523,0,0,0-1.258-.506c-0.5-.166-1.007-0.336-1.511-0.506V39.287c0.335-.166.669-0.336,1.007-0.506s0.669-.336,1.007-0.506a18.754,18.754,0,0,1,2.266,2.151q1,1.139,2.266,2.4a4.93,4.93,0,0,0-.378,1.013,5.173,5.173,0,0,1-.377,1.013A9.541,9.541,0,0,1,648.106,43.337Zm27.189-14.3a0.577,0.577,0,0,1,.63.127,0.993,0.993,0,0,1,.755,1.012l-0.5.506h-3.524a7.385,7.385,0,0,0-1.259-1.519c-0.5-.506-0.673-0.843-0.5-1.012a1.159,1.159,0,0,1,1.258-.759H672.9a6.463,6.463,0,0,1,.755.886,5.743,5.743,0,0,0,.755.886h0A2.71,2.71,0,0,0,675.3,29.035ZM653.9,38.78a14.141,14.141,0,0,0-1.132,1.013c-0.5-.506-0.756-0.672-0.756-0.506a3.519,3.519,0,0,1-.251-1.519l2.265-2.278a1.853,1.853,0,0,0,.5.38,2.181,2.181,0,0,1,.5.38v1.519A13.836,13.836,0,0,1,653.9,38.78Zm11.959,3.8a0.985,0.985,0,0,1,1.007-.759l2.265,2.278A1.421,1.421,0,0,0,669,45.109a1.057,1.057,0,0,1-.377,1.013,0.721,0.721,0,0,1-1.007-.253,1.677,1.677,0,0,0-.755-0.759,0.448,0.448,0,0,0-.5-0.506,1.444,1.444,0,0,0-.5-0.759V42.577Zm-11.833-8.606q-1.008-1.264-1.51-1.772c-0.339-.506-0.421-0.842-0.252-1.012a1.02,1.02,0,0,1,1.259-.506h0.755q1.51,1.519-.252,3.291h0ZM643.2,32.2a1.6,1.6,0,0,0,1.259,0q0.754-.249,1.007,1.013a17.55,17.55,0,0,1-2.266,2.025,1.9,1.9,0,0,1,0-3.038h0Zm51.357-1.772c-0.672-.336-0.842-0.759-0.5-1.266V28.4a0.985,0.985,0,0,1,1.007-.759,1.445,1.445,0,0,1,.5.759v0.759h0c0,1.183-.338,1.606-1.007,1.266h0ZM665.6,31.693a1.862,1.862,0,0,1-1.385.506,1.132,1.132,0,0,1-1.133-.506V31.187l0.5-.506h1.51a0.447,0.447,0,0,1,.5.506h0v0.506Zm55.133,20.883a1.887,1.887,0,0,1-.5,1.392h-0.5a1.072,1.072,0,0,1-.755-1.139,1.88,1.88,0,0,1,.5-1.392h0.755A1.157,1.157,0,0,1,720.736,52.576ZM709.911,64.093a1.28,1.28,0,0,1,1.259-.506h0.755a0.992,0.992,0,0,1,.755,1.012l-0.5.506h-0.755q-1.765,0-1.511-1.013h0Zm7.553,121.5a2.031,2.031,0,0,1,.5-0.38,1.979,1.979,0,0,0,.5-0.379c0.334,0.34.668,0.676,1.007,1.012s0.668,0.676,1.007,1.013a1.773,1.773,0,0,1-.756,1.012h-2.265c0,0.846.165,1.266,0.5,1.266,0.669,0.17,1.3.34,1.888,0.506a2.272,2.272,0,0,1,1.385,1.266h2.266a1.763,1.763,0,0,0,1.51-.254,1.057,1.057,0,0,0,.378-1.012,4.011,4.011,0,0,1-.126-1.013,5.7,5.7,0,0,1-.755-0.886,7.418,7.418,0,0,1-.5-0.885l1.259-1.266a2.847,2.847,0,0,0,0-1.772,6.023,6.023,0,0,0-1.511-.759H723l-0.5-.507c-0.339-.336-0.252-0.506.251-0.506a2.277,2.277,0,0,1,1.259-.633,4.393,4.393,0,0,0,1.259-.379V159.015a1.446,1.446,0,0,0-.5-0.76,4.665,4.665,0,0,0-1.258-.379,6.261,6.261,0,0,1-1.763-.633q2.514-2.023,3.525-2.784v-9.872l-1.259-1.266v-0.506a10.187,10.187,0,0,1,1.511-1.266,4.357,4.357,0,0,1-.252-2.531,4.429,4.429,0,0,0-.252-2.531,1.287,1.287,0,0,0-1.259-.507H687a0.712,0.712,0,0,0-.252.38,0.858,0.858,0,0,1-.5.38v6.075c0-.166.166,0.087,0.5,0.759a2.539,2.539,0,0,1,1.007,2.531,12.233,12.233,0,0,0-1.511,1.772V149.4l1.511,1.519a16.672,16.672,0,0,1,1.51,1.772,3.584,3.584,0,0,1,.252,1.518l2.77,2.785a1.382,1.382,0,0,1,.377,1.265,1.219,1.219,0,0,0,.881,1.266h3.021a17.9,17.9,0,0,1,2.014,2.278,2.91,2.91,0,0,1-1.384.886,25.524,25.524,0,0,1-4.154-.126q-1.263-1.264-2.266-2.279A25.914,25.914,0,0,1,688.764,158a13.061,13.061,0,0,0-.881,1.266,1.731,1.731,0,0,0-.126.759v1.519a1.478,1.478,0,0,0,1.007,1.266,5.636,5.636,0,0,0,1.133-.127,0.742,0.742,0,0,1,.881.633,1.213,1.213,0,0,1-.378.886l-0.881.886c0.335,0.846.838,1.139,1.511,0.886a1.094,1.094,0,0,1,1.51.633,1.221,1.221,0,0,1-1.51.759,1.257,1.257,0,0,0-1.511,1.012,2.259,2.259,0,0,0-.252,1.013,1.459,1.459,0,0,1-.5,1.012A6.654,6.654,0,0,1,687,169.14a3.232,3.232,0,0,0-.756,1.392,4.71,4.71,0,0,0,.756,1.645c0.838,0,1.762-.039,2.769-0.126a5,5,0,0,0,2.769-1.139,2.879,2.879,0,0,1,1.007-1.519c0.335-.166.669-0.336,1.007-0.506a1.2,1.2,0,0,0,.881-0.38l0.882-.886a2.9,2.9,0,0,1,1.384,1.139q0.626,0.89,2.644-.38c-0.17.17-.17,0.127,0-0.126a5.878,5.878,0,0,1,.755-0.886,1.425,1.425,0,0,1,.881,1.772,2.638,2.638,0,0,0-.126,1.772,4.085,4.085,0,0,0,1.385,1.9,7.686,7.686,0,0,1,1.636,1.645q-0.507,1.27-2.266.76l-4.531-4.556a1.528,1.528,0,0,0-.881,1.9,2.349,2.349,0,0,1,.126,1.645l5.79,5.822h0.5a1.48,1.48,0,0,1,1.259.76c0,0.506-.338.759-1.007,0.759H701.1l-1.511-1.519a10.172,10.172,0,0,0-1.51-1.265,2.69,2.69,0,0,0-2.14-.127,1.515,1.515,0,0,1-1.888-.886,9.2,9.2,0,0,0,1.51-1.772v-1.519l-2.265-2.278H692.54v2.278a1.326,1.326,0,0,1-1.636.76,1.344,1.344,0,0,0-1.637,1.012,7.673,7.673,0,0,0,.252,2.278c0,0.847-.252,1.266-0.755,1.266a2.357,2.357,0,0,1-1.007-.759,0.445,0.445,0,0,1-.5-0.507,1.691,1.691,0,0,1-.755-0.126,0.9,0.9,0,0,0-.755.126c-1.007,0-1.345.594-1.007,1.772a1.167,1.167,0,0,0,.755,1.266,0.561,0.561,0,0,0,.63.126,2.8,2.8,0,0,1,.881-0.126c0.668,0.34.838,0.676,0.5,1.012a0.446,0.446,0,0,1-.5.507h-3.777a1.281,1.281,0,0,0,.5,1.518,2.525,2.525,0,0,0,1.888.254,3.616,3.616,0,0,1,1.888,0,2.833,2.833,0,0,1,1.259.253,5.486,5.486,0,0,1,1.259,1.012,2.768,2.768,0,0,0,1.259.253,0.99,0.99,0,0,1,1.007.76,1.419,1.419,0,0,1-.5.759,11.658,11.658,0,0,0-3.4,0,6.544,6.544,0,0,1-3.147-.253l-1.258-1.266h-1.763a10.161,10.161,0,0,1-1.258,1.519,9.921,9.921,0,0,0-1.259,1.519h-3.525a6.423,6.423,0,0,0-.881-0.76,5.7,5.7,0,0,1-.881-0.759h-2.643a7.039,7.039,0,0,0-2.644.506,24.582,24.582,0,0,0,1.888,2.152,27.31,27.31,0,0,1,1.889,2.151h9.566a22.559,22.559,0,0,1,2.014,2.279,0.893,0.893,0,0,1-1.007.885,8.028,8.028,0,0,0-1.259-.126,5.943,5.943,0,0,0-2.265-1.519,4.81,4.81,0,0,0-2.014,1.266,7.372,7.372,0,0,1-3.021.379c-1.007-.083-2.1-0.126-3.273-0.126a6.465,6.465,0,0,0-.881-0.759,5.768,5.768,0,0,1-.881-0.76h-4.532a6.406,6.406,0,0,0-.881-0.759,5.657,5.657,0,0,1-.881-0.76,13.238,13.238,0,0,1-3.021-.253,0.669,0.669,0,0,1-.755-0.759l1.258-1.266a9.207,9.207,0,0,0-.5-0.886,6.523,6.523,0,0,0-.755-0.886,5.794,5.794,0,0,1,2.014-2.025c0.334-.336.668-0.166,1.007,0.507v1.518c0,0.507.417,0.76,1.258,0.76,1.173,0.34,1.763,0,1.763-1.013a2.278,2.278,0,0,0,.251-1.012,1.461,1.461,0,0,1,.5-1.013,1.921,1.921,0,0,1,1.133,1.013,1.07,1.07,0,0,0,1.384.506v-2.278a1.118,1.118,0,0,1,1.511-.886c0.669,0.253,1.172-.04,1.51-0.886l-3.776-3.8H665.1l-1.51,1.519H652.512l-0.252.253a0.224,0.224,0,0,1-.252.253,1.025,1.025,0,0,0,.252.76,1.835,1.835,0,0,0,.5.379,1.418,1.418,0,0,1,.5.633,4.807,4.807,0,0,1-2.517,2.278,1.425,1.425,0,0,0-.5-0.633,1.32,1.32,0,0,1-.5-0.632,4.118,4.118,0,0,0-1.889,1.392,12.994,12.994,0,0,1-1.384,1.645h-1.511a1.8,1.8,0,0,0-.755,2.531l2.769,2.785a1.057,1.057,0,0,1-1.384,1.012,1.333,1.333,0,0,0-1.637.76v1.265a1.337,1.337,0,0,0,1.637,1.013,1.344,1.344,0,0,1,1.636,1.012v3.8h2.266l1.51,1.519h4.784a5.632,5.632,0,0,1,.755,1.519,5.532,5.532,0,0,1-.755,1.518h-1.763a3.761,3.761,0,0,1-.5-0.633,6.463,6.463,0,0,0-.755-0.885h-3.525a3.844,3.844,0,0,1-.5-0.633,6.481,6.481,0,0,0-.756-0.886h-0.755a2.393,2.393,0,0,1,0,1.519,1.445,1.445,0,0,0,.5,1.518,13.565,13.565,0,0,1,1.889.127,11.163,11.163,0,0,0,1.636.126,17.82,17.82,0,0,1,2.014,2.279L651,211.412l-3.273-3.291a4.819,4.819,0,0,1-1.007.38,5.158,5.158,0,0,0-1.007.379v2.405a12.56,12.56,0,0,1-.251,2.405c0,0.506-.339.759-1.007,0.759a2.224,2.224,0,0,1-1.007.253,1.442,1.442,0,0,0-1.007.507v2.278c0,1.182.334,1.772,1.007,1.772h2.391a12.074,12.074,0,0,0,2.392-.254l0.5-.506-1.511-1.519v-1.518l2.266-2.278a0.963,0.963,0,0,1,.881,1.392,1.209,1.209,0,0,0,.629,1.645,9.2,9.2,0,0,1,1.763-1.519h0.755a5.992,5.992,0,0,0-.126-1.139,1.711,1.711,0,0,1,.126-1.139l0.755-.759a17.744,17.744,0,0,1,2.266,2.025,0.72,0.72,0,0,0-.5.506c0,0.17-.169.253-0.5,0.253a6.485,6.485,0,0,1-2.014.253v2.278l-1.511,1.519a6,6,0,0,0,2.518.886,43.807,43.807,0,0,0,6.294-.38,1.363,1.363,0,0,1,.5-0.632,3.6,3.6,0,0,0,.755-0.633l1.511,1.519H672.9a1.412,1.412,0,0,0,.755-0.507,2.086,2.086,0,0,0,.126-1.265,1.22,1.22,0,0,1,.881-1.266,2.195,2.195,0,0,1,.755,1.266,8.251,8.251,0,0,0,.378,1.518,1.408,1.408,0,0,0,1.133.254h21.147q2.768-2.782,5.664-5.822t5.916-5.822a12.007,12.007,0,0,1-1.51-1.772V204.83a1.458,1.458,0,0,1,.5-1.012,0.648,0.648,0,0,1,.881.253,8.9,8.9,0,0,0,.882,1.013,1.156,1.156,0,0,0,.881-1.14,6.89,6.89,0,0,1-.126-1.392,17.428,17.428,0,0,1-2.266-2.025h-1.51l-0.5-.506c-0.338-.672-0.169-1.012.5-1.012a13.4,13.4,0,0,1,3.021-.254c0.668,0.677,1.258,1.31,1.762,1.9a5.531,5.531,0,0,0,1.762,1.392,3.49,3.49,0,0,0,1.511-.253q1-.5.5-1.266a2.038,2.038,0,0,1-1.51-2.531l0.5-.506c0.334,0,.5.087,0.5,0.253a0.447,0.447,0,0,1,.5.506v2.278h0.755l2.266-2.278a4.61,4.61,0,0,1,1.511-3.29,1.18,1.18,0,0,0,.126-1.393,1.144,1.144,0,0,0-.882-0.886H715.2a12.438,12.438,0,0,0-1.762,1.519H708.9q-1.51-2.528,1.007-3.29a1.286,1.286,0,0,0,1.259-1.266q0.5-1.52-.755-1.519a6.018,6.018,0,0,1-.882.76,6.29,6.29,0,0,0-.881.759h-4.531l-2.266,2.278a0.719,0.719,0,0,0,.252.506c0.165,0.17.334,0.34,0.5,0.507s0.417,0.423.756,0.759a5.683,5.683,0,0,1,1.384,2.405,13.7,13.7,0,0,1,.126,1.9,8.7,8.7,0,0,1-2.517,2.531,3.168,3.168,0,0,0-1.763,0,1.607,1.607,0,0,1-1.762-.759A12.482,12.482,0,0,0,700.345,198v-3.037l1.007-1.013a6.065,6.065,0,0,1,1.132-1.266,1.852,1.852,0,0,1,.63.507q0.5,0.51.755,0.759c0.165,0.17,0,.087-0.5-0.253q-3.777-1.768-3.021-3.038c0.165-.336.334-0.672,0.5-1.012a3.93,3.93,0,0,1,.755-1.013,5.11,5.11,0,0,0-1.258-1.645c-0.5-.419-1.007-0.886-1.511-1.392q0.756-1.519,2.518-.506a7.394,7.394,0,0,1,1.51,1.265,8.5,8.5,0,0,0,2.769-.253,1.607,1.607,0,0,0,1.007-.759,0.729,0.729,0,0,1,1.007-.253,1.413,1.413,0,0,1,.63.506,1.847,1.847,0,0,0,.377.506,7.673,7.673,0,0,0,1.888.253,5.2,5.2,0,0,1,1.637.253A16.178,16.178,0,0,1,713.813,188c0.417,0.423.881,0.886,1.385,1.392l1.51-1.519h0.756v-2.278Zm-15.609,22.022-0.5.506c-0.339,0-.5-0.083-0.5-0.253a0.444,0.444,0,0,1-.5-0.506v-2.278a5.859,5.859,0,0,0-1.133.126,1.682,1.682,0,0,1-1.133-.126,0.67,0.67,0,0,1-.755-0.76,1.159,1.159,0,0,1,1.258-.759,1.012,1.012,0,0,1,.63.126,0.964,0.964,0,0,0,.629.127c0.669,0.34.838,0.759,0.5,1.266a2.048,2.048,0,0,1,1.51,2.531h0Zm-17.119-15.821a16.687,16.687,0,0,0-1.511-1.645,4.665,4.665,0,0,1,1.637-.759,3.05,3.05,0,0,1,1.384,1.012v2.278h1.511a1.614,1.614,0,0,1,.5-1.518q1-.249,1.889-0.38a1.846,1.846,0,0,0,1.384-1.139,9.445,9.445,0,0,1,1.385,1.139,1.961,1.961,0,0,0,1.888.38c0.165-.166.334-0.127,0.5,0.126a1.591,1.591,0,0,1,.251.886,1.506,1.506,0,0,1-.755,2.025H693.3l-1.511-1.519h-4.028a5.616,5.616,0,0,0,.126,1.139,1.765,1.765,0,0,1-.126,1.14,0.581,0.581,0,0,1-.378.632,0.56,0.56,0,0,1-.629-0.126l-0.5-.506V192.68h0A3.554,3.554,0,0,1,684.736,191.794Zm23.916-49.485a10.206,10.206,0,0,1-1.258,1.518,6.769,6.769,0,0,0-1.259,1.772,18.315,18.315,0,0,1-2.014-1.772H701.1a1.86,1.86,0,0,1-.881-1.772,14.943,14.943,0,0,0,.126-1.771,2.382,2.382,0,0,1,.755-1.013,5.7,5.7,0,0,0,.881.759,7.416,7.416,0,0,0,.881.507h3.021a5.883,5.883,0,0,1,2.266-1.519,4.74,4.74,0,0,1,2.014,1.519,3.043,3.043,0,0,0,2.266.126,2.42,2.42,0,0,1,2.014.127q0.5-.249.755-0.38l0.755-.38a3.035,3.035,0,0,1,1.385-1.012,4.267,4.267,0,0,1,1.636,1.012v2.279a5.628,5.628,0,0,0,1.133-.127,1.731,1.731,0,0,1,1.133.127l0.5,0.506L722,143.068c0,0.506-.338.759-1.007,0.759a3.461,3.461,0,0,1-1.51-.253,1.283,1.283,0,0,1-.5-1.265H708.652Zm4.154,32.146a5.7,5.7,0,0,1-.881-0.759h-1.51l-1.763,1.772a5.312,5.312,0,0,0-1.007-.38c-0.338-.083-0.755-0.209-1.258-0.379l4.783-4.81v-3.29c-0.5-.507-0.968-1.013-1.385-1.519a6.625,6.625,0,0,0-1.384-1.266c-0.339-.672-0.087-1.012.755-1.012a3.131,3.131,0,0,1,1.51-.127,7.568,7.568,0,0,0,1.259.127,3.763,3.763,0,0,0,1.007.759,4.082,4.082,0,0,1,1.007.759h2.518l4.028,4.05a2.138,2.138,0,0,1-1.259.76,9.047,9.047,0,0,0-1.511.379,1.979,1.979,0,0,0-.251,1.393v1.518a0.505,0.505,0,0,0,.125.38,0.531,0.531,0,0,1,.126.38,1.865,1.865,0,0,0,.5.379,1.418,1.418,0,0,1,.5.633,0.254,0.254,0,0,1,0,.507,0.445,0.445,0,0,1-.5.506h-4.532A6.423,6.423,0,0,0,712.806,174.455ZM665.1,212.93a5.988,5.988,0,0,0-.755.886,6.233,6.233,0,0,1-.755.886h-1.762a20.4,20.4,0,0,0-.756-2.025,6.208,6.208,0,0,1,1.637-1.9,7.507,7.507,0,0,0,1.636-1.645l-1.51-1.519V206.1a8.942,8.942,0,0,0-1.763-1.772,18.087,18.087,0,0,0,2.014-.759,5.12,5.12,0,0,1,2.014,1.392c0.5,0.593,1.007,1.139,1.511,1.645a1.391,1.391,0,0,0,1.007.127,1.05,1.05,0,0,1,1.007.38,2.029,2.029,0,0,1,.252.759,1.912,1.912,0,0,0,.251.759v1.519a0.518,0.518,0,0,1-.126.38,0.515,0.515,0,0,0-.125.379,13.819,13.819,0,0,1-1.133,1.013,13.989,13.989,0,0,0-1.133,1.012H665.1Zm47.833-60.5a1.829,1.829,0,0,1-3.273,0v-1.519a5.743,5.743,0,0,1-.755-0.886,6.463,6.463,0,0,0-.755-0.886,4.494,4.494,0,0,1,.5-2.025H715.2a7.348,7.348,0,0,1,1.51,1.266,3.322,3.322,0,0,0,.881-0.633,3.346,3.346,0,0,1,.882-0.633h3.021a5.647,5.647,0,0,1,.755,1.519,3.675,3.675,0,0,1-.755,1.265,4.885,4.885,0,0,1-1.763-1.265l-1.258,1.265a3.1,3.1,0,0,1-2.14.253,4.656,4.656,0,0,0-2.14,0,2.058,2.058,0,0,0-1.259.76v1.519Zm0.5,30.628a14.532,14.532,0,0,0-2.266-2.278q1-1.01,2.014-1.9t2.266-1.9a5.619,5.619,0,0,0,1.132-.127,2.722,2.722,0,0,1,1.385.127,2.381,2.381,0,0,1,1.007.759,3.636,3.636,0,0,0-1.007,1.266,1.048,1.048,0,0,0-.378,1.012,1.059,1.059,0,0,1-.377,1.013,15.094,15.094,0,0,1-1.762,2.025h-2.014Zm-13.091-22.655a6.481,6.481,0,0,0-.756-0.886c-0.672-.336-0.842-0.672-0.5-1.012q0.5-1.009,1.259-.507H701.1l1.51,1.519h1.511A12.12,12.12,0,0,0,705.883,158H708.9a1.507,1.507,0,0,1,.755,2.025c0,0.677-.251,1.013-0.755,1.013a21.133,21.133,0,0,1-4.028.126q-2.018-.125-4.028-0.126A3.8,3.8,0,0,1,700.345,160.407Zm20.391,1.519a5.806,5.806,0,0,0,.756.886H723a1.9,1.9,0,0,1,0,3.037H721.24c-0.5-.506-0.968-1.012-1.385-1.519a9.838,9.838,0,0,0-1.636-1.518,4.352,4.352,0,0,1-.5-1.266,2.048,2.048,0,0,1,1.511-.506h0.755A6.392,6.392,0,0,1,720.736,161.926Zm-21.4-13.036a1.843,1.843,0,0,1,2.517.506l-2.014,2.025q-1.764,1.014-2.517-.506a5.778,5.778,0,0,1,2.014-2.025h0Zm-40.281,56.447,2.266,2.278a17.813,17.813,0,0,0-2.266,2.025,0.742,0.742,0,0,0-.5-0.253,0.712,0.712,0,0,1-.5-0.253V206.1a0.986,0.986,0,0,1,1.007-.759h0Zm30.336-.253a4.7,4.7,0,0,1,1.637.759,1.97,1.97,0,0,0,0,1.392c0.165,0.423-.169.72-1.007,0.886l-2.266-2.278A4.671,4.671,0,0,1,689.393,205.084Zm2.392-6.329a8.024,8.024,0,0,0-1.259.127,0.893,0.893,0,0,1-1.007-.886l2.266-2.278a1.9,1.9,0,0,1,0,3.037h0Zm1.762-45.815q-1.263,0-1.133-.76a8.072,8.072,0,0,0,.126-1.265q1.257-1.768,3.021,0a5.786,5.786,0,0,1-2.014,2.025h0Zm-37.259,45.309a1.582,1.582,0,0,1-1.385.76,1.065,1.065,0,0,1-1.132-.76c-0.339,0-.339-0.166,0-0.506a0.445,0.445,0,0,1,.5-0.506h1.511a0.225,0.225,0,0,1,.251.253,0.222,0.222,0,0,0,.252.253v0.506ZM679.2,217.74a1.905,1.905,0,0,1,0-3.038q1.76,1.519,0,3.038h0Zm0.756-7.088q1.511-1.518,3.272,0-1.764,1.775-3.272,0h0Zm14.6-52.9c-0.672-.336-0.842-0.759-0.5-1.265v-0.76c0.334-.672.668-0.842,1.007-0.506a0.447,0.447,0,0,1,.5.506v0.76h0c0,1.182-.338,1.6-1.007,1.265h0Zm13.6,10.378q-1.51,2.029-3.021,0a1.883,1.883,0,0,1,3.021,0h0ZM728.541,182.3a6.463,6.463,0,0,1,.755.886,5.743,5.743,0,0,0,.755.886v3.038l-1.51,1.518a11.906,11.906,0,0,0,1.51,1.772,3.6,3.6,0,0,1-.755.633,1.373,1.373,0,0,0-.5.633,2.822,2.822,0,0,0-.251,1.266,0.71,0.71,0,0,0-.252.379,0.709,0.709,0,0,1-.252.38q-2.018,2.278-4.28,4.43t-4.531,4.429a1.04,1.04,0,0,1-.252.76,9.187,9.187,0,0,1-.377,1.518,1.948,1.948,0,0,1-1.385.254q-1.764,1.773-3.147,3.037t-2.9,2.531a4.234,4.234,0,0,1-.252,2.025,4.142,4.142,0,0,1-2.014.253,14.1,14.1,0,0,0-1.007,1.139c-0.338.424-.673,0.886-1.007,1.393a1.364,1.364,0,0,0,.629,1.012c0.417,0.34.795,0.676,1.133,1.013,0.335,0.506.669,0.34,1.007-.507a1.446,1.446,0,0,0,.126-1.012,1.05,1.05,0,0,1,.378-1.013,5.645,5.645,0,0,1,2.643-.379,5.563,5.563,0,0,0,2.644-.38l0.5-.506v-4.556c1.007-1.013,1.511-.926,1.511.253a2.3,2.3,0,0,1,.251,1.012,1.449,1.449,0,0,0,.5,1.013q1-1.01,2.014-1.9a12.394,12.394,0,0,0,1.762-1.9,2.662,2.662,0,0,0,.252-1.519,13.145,13.145,0,0,1,3.021-3.417,16.962,16.962,0,0,0,2.769-2.658,17.126,17.126,0,0,0,.63-1.772,4.864,4.864,0,0,1,.377-1.012h1.762l2.266-2.278a3.08,3.08,0,0,1,1.511-3.038v-1.772a1.935,1.935,0,0,0-.63-0.759,5.751,5.751,0,0,1-.881-0.76v-7.846a8.832,8.832,0,0,0,1.762-1.772,3.523,3.523,0,0,1-.251-1.519,6.923,6.923,0,0,1-1.259-1.519v-6.328l1.259-1.266a1.221,1.221,0,0,0-.378-0.886c-0.252-.253-0.547-0.545-0.881-0.885v-3.038a7.142,7.142,0,0,1,1.259-1.519,3.539,3.539,0,0,1,.251-1.518,8.884,8.884,0,0,0-1.762-1.772v-1.519a6.163,6.163,0,0,0-1.259-.759,0.739,0.739,0,0,0-.5-0.254,1.889,1.889,0,0,1-.755-0.253,0.444,0.444,0,0,1-.5-0.506,0.7,0.7,0,0,1,.378-0.253,0.705,0.705,0,0,0,.377-0.253,1.434,1.434,0,0,1,1.007-.127,1.033,1.033,0,0,0,1.007-.379,1.212,1.212,0,0,0,.378-1.14,5.688,5.688,0,0,1-.126-1.139,3.574,3.574,0,0,0,.252-1.518,6.13,6.13,0,0,1,.881-0.76,0.846,0.846,0,0,0,.378-0.759,10.187,10.187,0,0,0-1.511-1.266c0-1.012.04-2.025,0.126-3.037a12.484,12.484,0,0,0-.126-3.038c0-.672-0.252-1.012-0.755-1.012a5.086,5.086,0,0,1-2.014-.506,3.365,3.365,0,0,1-.252-1.772,16.675,16.675,0,0,1,1.511-1.772l1.51-1.519a6.332,6.332,0,0,1,.126-2.784,2.811,2.811,0,0,0-.881-2.785h-36.5a1.372,1.372,0,0,0-1.51.76,5.584,5.584,0,0,0-.252,1.772,1.412,1.412,0,0,1-.755.506l-0.5-.253a11.315,11.315,0,0,1-.378-1.393,12.99,12.99,0,0,0-.377-1.392h-8.056a12.068,12.068,0,0,1-1.763,1.519,7.382,7.382,0,0,0-1.51-1.266,3.563,3.563,0,0,1-.755.633,3.676,3.676,0,0,0-.756.633,0.87,0.87,0,0,1-.755-0.759c-0.5-.507-0.842-0.59-1.007-0.253a0.445,0.445,0,0,0-.5.506v24.3a1.285,1.285,0,0,0,.5,1.265,0.528,0.528,0,0,1,.378.127,0.5,0.5,0,0,0,.377.127H679.7a1.973,1.973,0,0,1,1.385.253,9.439,9.439,0,0,1,.377,1.518,2.138,2.138,0,0,0,.755,1.266c0.5,0,.756-0.336.756-1.012q0.247-5.061.251-9.872v-9.872a0.535,0.535,0,0,0-.125-0.38,0.5,0.5,0,0,1-.126-0.38,0.444,0.444,0,0,1-.5-0.506h-1.762a0.445,0.445,0,0,1-.5-0.506,1.365,1.365,0,0,1,.756-1.013h1.51l1.762-1.771h20.141a5.883,5.883,0,0,1,2.265-1.519,4.734,4.734,0,0,1,2.014,1.519,4.105,4.105,0,0,0,1.888-1.393,12.949,12.949,0,0,1,1.385-1.645,2.074,2.074,0,0,1,.755,1.266,5.369,5.369,0,0,1,.378,1.012,2.2,2.2,0,0,0,.629,1.013h6.042a12.193,12.193,0,0,0,1.763-1.519,12.643,12.643,0,0,1,1.762,1.519,24.425,24.425,0,0,0,2.517-.127,6.7,6.7,0,0,1,2.77.38h0V182.3Zm-84.589-84.8,1.511,1.519a12.471,12.471,0,0,1-1.511,1.772v7.088a0.5,0.5,0,0,0,.126.379c0.083,0.087.039-.039-0.126-0.379a27.051,27.051,0,0,1,2.14,2.4q0.879,1.14,1.888,2.405a9.953,9.953,0,0,0,.378-1.645q0.125-.885.252-3.924t0.126-9.239V80.293a11.916,11.916,0,0,1-1.511-1.772L648.736,77V72.193a5.108,5.108,0,0,1,1.007-.38,4.854,4.854,0,0,0,1.007-.38,12.694,12.694,0,0,1,1.762,1.519,3.545,3.545,0,0,1,1.51.253l0.881-.886,0.882-.886h1.51l1.511,1.519a6.178,6.178,0,0,1,.881-0.759,8.485,8.485,0,0,1,.881-0.506H665.1a2.528,2.528,0,0,1,.881.759,0.912,0.912,0,0,0,1.133.253l0.5-.506,0.755-.759h7.553l0.5,0.506,0.5,0.506v9.366a5.983,5.983,0,0,1,1.51,2.278,4.856,4.856,0,0,1-1.259,2.025,1.034,1.034,0,0,0-.251.759v14.175a1.716,1.716,0,0,0,.126.76,1.81,1.81,0,0,1,.125.759,11.983,11.983,0,0,0,1.763,1.519c0,0.17.165,0.253,0.5,0.253h10.826a6.748,6.748,0,0,1,1.762-1.266c1.007,0,2.053-.039,3.147-0.126a10.8,10.8,0,0,1,2.895.126,5.876,5.876,0,0,0,2.266,1.519,5.943,5.943,0,0,0,2.265-1.519h29.455c0.669,0,1.007-.672,1.007-2.025v-0.506l-2.266-2.278H719.981a12.465,12.465,0,0,0-1.762,1.519,1.4,1.4,0,0,1-.5-0.759,2.431,2.431,0,0,0-3.272,0,2.911,2.911,0,0,0-.63.38,2.792,2.792,0,0,1-.629.38h-2.769L708.9,98.265h-7.8a1.881,1.881,0,0,1-.63.759,6.288,6.288,0,0,0-.881.759h-1.51a12.693,12.693,0,0,0-1.762-1.519h-7.805l-1.762,1.772a1.843,1.843,0,0,0-1.762-.127,1.41,1.41,0,0,1-1.763-.886V80.293l-1.762-1.772V67.637c0,0.17-.169-0.083-0.5-0.759a21.337,21.337,0,0,0-6.546,0,2.449,2.449,0,0,1-4.531,0h-9.315a12.166,12.166,0,0,1-1.762,1.519L657.3,66.877h-1.51a13.71,13.71,0,0,0-1.007,1.139,1.349,1.349,0,0,1-1.511.38,0.9,0.9,0,0,0-1.259.506,0.988,0.988,0,0,1-1.007.759,4.063,4.063,0,0,0-1.007-.759,3.778,3.778,0,0,1-1.007-.759,1.832,1.832,0,0,1-1.762.127,1.118,1.118,0,0,0-1.511.886,3.788,3.788,0,0,0,.756,1.013l0.251,0.253q0.756,1.774-.125,2.278a1.467,1.467,0,0,0-.882,1.266,11.182,11.182,0,0,1-.125,1.772,8.945,8.945,0,0,0-.126,1.519,3.63,3.63,0,0,0-1.511,2.784,12.709,12.709,0,0,1,1.511,1.772,4.767,4.767,0,0,0,.251,1.519,5.891,5.891,0,0,1-.881.759,6.29,6.29,0,0,0-.881.759h0V97.505ZM619.406,29.541q1.382-1.388,2.644-2.911,0.755-.759-0.755-0.759a0.8,0.8,0,0,1-.756-0.506,4.1,4.1,0,0,0-.755-1.012,2.081,2.081,0,0,0-.755,1.266c0,1.183-.338,1.772-1.007,1.772a2.491,2.491,0,0,0-1.511.38c-0.338.253-.755,0.55-1.258,0.886a1.348,1.348,0,0,1-1.259.38,1.22,1.22,0,0,0-1.259.886,3.614,3.614,0,0,0,0,1.9,1.974,1.974,0,0,1-.755,1.9H608.2a1.425,1.425,0,0,0-1.133.253c-0.087.17-.3,0.676-0.63,1.519a1.167,1.167,0,0,1-.755,1.266,2.8,2.8,0,0,0-.881.127,2.71,2.71,0,0,1-.881.127,3.317,3.317,0,0,1-1.511,1.519c-0.672.34-.842,1.013-0.5,2.025a6.963,6.963,0,0,1-1.763,2.025,11.368,11.368,0,0,0-2.014,2.025,12.815,12.815,0,0,1-2.139,2.152,7.79,7.79,0,0,0-1.889,2.151V157.5a18.939,18.939,0,0,1-.125,2.278,4.58,4.58,0,0,0,.377,2.278,0.445,0.445,0,0,0,.5.507l0.5-.507a2.863,2.863,0,0,0,.252-1.265,1.492,1.492,0,0,1,.755-1.266,5.491,5.491,0,0,0,1.259-1.139,13.926,13.926,0,0,1,1.007-1.139V67.637a11.982,11.982,0,0,1-1.511-1.772V64.346l1.511-1.519V59.79a12.64,12.64,0,0,0-1.511-1.772,3.667,3.667,0,0,1,.756-0.633,1.371,1.371,0,0,0,.5-0.633,8.524,8.524,0,0,0,.252-3.544,8.949,8.949,0,0,1,.5-4.05l7.3-7.341q3.777-3.8,7.8-7.594a5.173,5.173,0,0,0,.377-1.013A4.928,4.928,0,0,1,615,32.2h1.762Zm3.4-3.67,2.266-2.278a9,9,0,0,0,1.385-1.139,9.225,9.225,0,0,1,1.384-1.139h13.343a0.51,0.51,0,0,0,.378-0.127,0.51,0.51,0,0,1,.377-0.127,1.365,1.365,0,0,1,.5-0.633A3.591,3.591,0,0,0,643.2,19.8a9.481,9.481,0,0,1,1.762,1.519h51.106a12.672,12.672,0,0,0,2.517-.253,2.62,2.62,0,0,1,2.014.253q3.524,3.292,6.42,6.328t5.664,5.822a7.976,7.976,0,0,1,.378.886,6.484,6.484,0,0,0,.378.886,2.4,2.4,0,0,0,2.014.127,1.431,1.431,0,0,1,1.762.633,1.564,1.564,0,0,1,.377,1.392,10.2,10.2,0,0,0-.125,1.392,5.282,5.282,0,0,0,1.007,1.266h1.51c0.335,0.846.669,1.772,1.007,2.784q1.758,1.774,3.4,3.291t3.4,3.291h1.259a1.353,1.353,0,0,1,1.007,1.645,1.337,1.337,0,0,0,.755,1.645l2.266-2.278a4.3,4.3,0,0,0-.252-1.9,2.547,2.547,0,0,0-1.51-.633,7.557,7.557,0,0,1-2.266-.253l-0.5-.506,1.51-1.519-4.028-4.05h-1.762a4.435,4.435,0,0,1-.378-1.266,4.717,4.717,0,0,0-.377-1.266l-7.3-7.341-0.252-.506a4.506,4.506,0,0,0-.5-1.772,2.643,2.643,0,0,0-1.511-.253q-2.017-2.023-3.65-3.8t-3.651-3.8a3.787,3.787,0,0,0-.5-1.519,4.44,4.44,0,0,0-1.762-.506,6.465,6.465,0,0,0-.882-0.759,5.8,5.8,0,0,1-.881-0.759H701.1l-1.511-1.519h-3.272l-1.511,1.519h-9.315a5.489,5.489,0,0,0-2.391-1.519,4.539,4.539,0,0,0-2.14,1.266,1.732,1.732,0,0,1-1.385-.886,1.428,1.428,0,0,0-1.888-.38l-1.511,1.519H649.491l-1.511-1.519h-7.8a5.9,5.9,0,0,1-.881.759,6.178,6.178,0,0,0-.881.759H624.567q-1.008,1.014-.755,1.266c0,1.353-.59,2.025-1.762,2.025a1.385,1.385,0,0,0-1.511.759l1.511,1.519v2.278H622.8Zm35.749,196.678h-8.56a1.025,1.025,0,0,0-.755.253,0.446,0.446,0,0,0-.5.507q-0.255.759,0.755,0.759a3.425,3.425,0,0,1,.881.633c0.252,0.253.543,0.549,0.881,0.886h1.511q0.5,0.51.755,0.759c0.165,0.17.417,0.419,0.755,0.759h9.315a5.928,5.928,0,0,1,.881-0.759,8.72,8.72,0,0,1,.881-0.506,5.4,5.4,0,0,0,1.259,1.012,8.524,8.524,0,0,0,5.035,0,1.383,1.383,0,0,0,.629-0.506,3.6,3.6,0,0,1,.63-0.759h3.021a5.7,5.7,0,0,0,.881.759,6.137,6.137,0,0,1,.881.759H701.1l1.51-1.518h1.133a1.557,1.557,0,0,0,1.133-.507,3.175,3.175,0,0,0,.126-1.518,3.082,3.082,0,0,1,.126-1.519c0-.672.5-1.013,1.51-1.013a2.139,2.139,0,0,0,1.259-.759,3.241,3.241,0,0,0-.755-1.266c-0.338-.336-0.673-0.672-1.007-1.012a2.642,2.642,0,0,0-1.511-.253,4.641,4.641,0,0,0-2.517,2.531l0.5,0.506a1.224,1.224,0,0,1,0,1.772H688.764A12.372,12.372,0,0,0,687,224.068l-1.511-1.519H662.078a12.483,12.483,0,0,0-1.762,1.519,3.4,3.4,0,0,1-.629-0.759,2.2,2.2,0,0,0-.378-0.507,1.038,1.038,0,0,0-.755-0.253h0ZM636.148,214.7v-2.531l1.51-1.519-0.755-.759a0.719,0.719,0,0,1-.252-0.506,3.678,3.678,0,0,1-.251-2.278,1.636,1.636,0,0,0-.756-1.772q-2.772.255-2.769-2.785a0.5,0.5,0,1,0-1.007,0,3.542,3.542,0,0,0-.252,1.519l-1.007,1.013a5.683,5.683,0,0,1-.755-1.266,11.525,11.525,0,0,0-.755-1.645c-0.169-.254-0.673-0.21-1.511.126a1.065,1.065,0,0,0-.881.633,0.634,0.634,0,0,1-.881.38c-0.338-.166-0.5-0.843-0.5-2.025a11.962,11.962,0,0,1-1.511-1.772A3.586,3.586,0,0,0,623.56,198c-0.338-.506-0.672-0.589-1.007-0.253a1.639,1.639,0,0,0-.755.759,0.722,0.722,0,0,1-1.007.253c-1.007,0-1.554.3-1.636,0.886a9.965,9.965,0,0,1-.378,1.646,21.741,21.741,0,0,1-2.769,2.784,3.579,3.579,0,0,1-.252,1.519,17.939,17.939,0,0,0,2.14,2.278,18.8,18.8,0,0,1,2.14,2.278q1.257,1.269,2.517,2.531t2.518,2.532a18.751,18.751,0,0,1,2.266,2.151,9.628,9.628,0,0,0,2.265,1.9h7.553a0.713,0.713,0,0,0,.252-0.38,0.708,0.708,0,0,1,.251-0.38l-1.51-1.519V214.7Zm-5.035,1.519a8.394,8.394,0,0,0-2.014-.253,1,1,0,0,1-.629-1.013,1.462,1.462,0,0,0-.126-1.012,1.978,1.978,0,0,1,2.517-.759l2.266,2.278A2.084,2.084,0,0,1,631.113,216.221Zm-10.574-8.606q1.511-1.769,3.273,0-1.764,1.518-3.273,0h0Zm-7.049-55.941-1.51-3.037h-1.511a5.89,5.89,0,0,1-.881.759,6.178,6.178,0,0,0-.881.759h-1.259l-5.538,5.569v3.038a3.765,3.765,0,0,0,2.769.886,23.952,23.952,0,0,0,2.769-.38q0.756-.759,1.511-1.392a6.58,6.58,0,0,0,1.259-1.392h2.014A9.965,9.965,0,0,0,613.49,158,16.878,16.878,0,0,1,615,159.774a22.875,22.875,0,0,1,4.028-4.05,7.655,7.655,0,0,1,.126-1.265c0.082-.507-0.295-0.843-1.133-1.013l-0.5.506c-0.5.507-.841,0.677-1.007,0.507a1.169,1.169,0,0,1-.755-1.266,3.579,3.579,0,0,0,.252-1.519H613.49Zm-4.909,3.164a4.288,4.288,0,0,1-2.14-.886l0.252-.253,0.252-.253a46.43,46.43,0,0,1,6.8,0l1.007,1.013h0A42.978,42.978,0,0,1,608.581,154.838Zm66.84,20.377c-0.338.846-.169,1.265,0.5,1.265a7.356,7.356,0,0,0,3.021.38q1.51-.125,3.021-0.126a0.727,0.727,0,0,0,.5-0.254,2.936,2.936,0,0,1,.755-0.506v-12.4a4.462,4.462,0,0,1-1.258-1.266,3.869,3.869,0,0,0-1.511-1.265,2.806,2.806,0,0,0-.881.126,1.123,1.123,0,0,1-.881-0.126c-1.007,0-1.6.34-1.762,1.012v4.557a1.218,1.218,0,0,0,1.51.759,1.261,1.261,0,0,1,1.511,1.012,12.233,12.233,0,0,0-1.511,1.772v2.785a5.612,5.612,0,0,0-1.259,1.139,13.908,13.908,0,0,1-1.007,1.139h-0.755Zm-28.951-28.35a3.2,3.2,0,0,0,1.51,1.519,0.446,0.446,0,0,0,.5-0.507q0.5-6.579.377-12.023a79.819,79.819,0,0,0-.629-8.986,18.224,18.224,0,0,0-2.014-.38,3.14,3.14,0,0,0-2.266.886v3.038l1.762,1.772V133.7l1.511,1.519a17.791,17.791,0,0,1-.378,1.9,1.113,1.113,0,0,1-1.133.38,1.551,1.551,0,0,0-1.762,1.266v6.075a2.749,2.749,0,0,0,.126.886q0.124,0.38.378,1.139h2.014Zm3.65,26.325a1.072,1.072,0,0,1-1.384.506,1.085,1.085,0,0,1-.5,1.392,1.906,1.906,0,0,0-1.007,1.139,4.677,4.677,0,0,0,1.007.38,12.916,12.916,0,0,0,1.636.253,29.317,29.317,0,0,0,3.147.127h5.791l1.51-1.519a5,5,0,0,1,1.762,1.266h4.532a1.412,1.412,0,0,0,.755-0.507,3.4,3.4,0,0,1-.629-0.759,3.885,3.885,0,0,0-.63-0.759c-0.5-.507-0.967-0.969-1.384-1.393a9.445,9.445,0,0,0-1.385-1.139h-7.3a2.36,2.36,0,0,0-1.007.76v1.518q-2.774,1.774-3.272-1.012c0-.672-0.17-1.013-0.5-1.013A1.211,1.211,0,0,0,650.12,173.19Zm-16.238-18.225-1.51,1.519h-1.511a13.833,13.833,0,0,1-1.133,1.012,13.973,13.973,0,0,0-1.133,1.013,2.124,2.124,0,0,0,.756,2.784,1.574,1.574,0,0,1,.5,2.025,8.744,8.744,0,0,1-.5.886,6.25,6.25,0,0,1-.756.886c0.838,0.846,1.593,1.012,2.266.506q0.756-.249.755-2.025,1.257-1.263,2.392-2.278a18.23,18.23,0,0,0,2.14-2.278v-4.05h-2.266ZM619.029,217.74a1.018,1.018,0,0,0-1.259,1.012c0.5,0.507.964,1.013,1.385,1.519a6.449,6.449,0,0,0,1.384,1.266,5,5,0,0,0,.5,2.278,9.391,9.391,0,0,0,5.287,0l0.5-.506v-1.772q-1.01-1.01-1.888-1.9a27.326,27.326,0,0,0-2.14-1.9h-3.776Zm-2.518-22.022a12.13,12.13,0,0,0,1.763-1.519h1.132a1.406,1.406,0,0,0,1.133-.759l-1.51-1.519a1.629,1.629,0,0,1,0-1.266,0.709,0.709,0,0,0-.5-1.012,1.805,1.805,0,0,0-1.258.759,0.723,0.723,0,0,1-1.007.253l-1.007-1.012-0.756.759a2.072,2.072,0,0,1-.5,1.519,8.137,8.137,0,0,0-1.007,1.266,1.922,1.922,0,0,0,.5,2.531h3.021Zm-13.594-26.831a2.193,2.193,0,0,0,1.007.253,1.463,1.463,0,0,1,1.007.506,0.985,0.985,0,0,0,1.007.759,1.615,1.615,0,0,0,.5-1.518v-6.835a1.444,1.444,0,0,0-.5-0.759h-0.252a0.224,0.224,0,0,0-.252.253,3.836,3.836,0,0,1-2.769,1.266l-0.755.759a5.988,5.988,0,0,1,1.51,2.278,5.92,5.92,0,0,1-1.51,2.278,2.354,2.354,0,0,0,1.007.76h0Zm45.944-50.625a9.751,9.751,0,0,0-.377-1.772c-0.339-.506-0.673-0.969-1.007-1.392s-0.673-.8-1.007-1.139h-1.259a1.343,1.343,0,0,0-1.007.759,12.885,12.885,0,0,0-.252,2.531,6.718,6.718,0,0,0,.5,2.531l0.5,0.507h3.021A2.461,2.461,0,0,0,648.861,118.262Zm-34.49,49.865a5.941,5.941,0,0,0,.882-0.759h1.51l2.266-2.278-1.511-1.519v-1.519a4.253,4.253,0,0,0-1.636-1.012,3.035,3.035,0,0,0-1.385,1.012l1.511,1.519a4.452,4.452,0,0,1-.5,1.772,4.3,4.3,0,0,1-1.762.506l-0.5.506a1.4,1.4,0,0,0-.756.507,1.639,1.639,0,0,1-.755.759,0.5,0.5,0,0,0-.252.759,0.736,0.736,0,0,0,.881.633,5.867,5.867,0,0,1,1.133-.126h0A6.24,6.24,0,0,1,614.371,168.127Zm6.924,21.263h4.783q1.511-1.519.5-2.531c-1.007-1.013-1.428-1.938-1.258-2.785,0-.672-0.59-1.012-1.763-1.012a1.159,1.159,0,0,0-1.258.759,2.578,2.578,0,0,1,.629.886,2.438,2.438,0,0,0,.629.886,5.449,5.449,0,0,1-1.384,1.392,4.124,4.124,0,0,0-1.385,1.9ZM682.47,181.8c-0.5-.166-1.05-0.336-1.636-0.506a2.385,2.385,0,0,1-1.385-1.013,0.457,0.457,0,0,0-.629,0,0.856,0.856,0,0,0-.378.76q0,2.277-2.014,2.278a2.363,2.363,0,0,0-1.007.759l2.266,2.278h1.51a5.872,5.872,0,0,0,.756-1.645,5.728,5.728,0,0,1,.755-1.645h2.517a1.172,1.172,0,0,0-.755-1.266h0Zm-36,42.272a6.526,6.526,0,0,0-.881-0.759,5.817,5.817,0,0,1-.882-0.76h-3.021q-1.008,1.016.252,1.519h1.007a6.974,6.974,0,0,1,2.014,1.772,4.59,4.59,0,0,0,2.014,1.519,6.415,6.415,0,0,1,.881-0.38,8.01,8.01,0,0,0,.882-0.38v-2.531H646.47Zm-29.959-48.727a3.04,3.04,0,0,0,1.511-.126c0.838,0,1.089-.336.755-1.013a0.447,0.447,0,0,0-.5-0.506H613.49l-3.776,3.8a1.775,1.775,0,0,0,2.518.759q0.755-.759,1.384-1.518c0.417-.507.881-1.013,1.385-1.519A9.268,9.268,0,0,1,616.511,175.341Zm28.7-14.681a1.089,1.089,0,0,0-.755.886c0.668,0.846,1.258,1.606,1.762,2.278s1.007,1.353,1.51,2.025c0.166,0,.252-0.039.252-0.126s0.083-.127.252-0.127l0.252-.253a12.006,12.006,0,0,0,.252-2.278v-2.278a0.656,0.656,0,0,0-.252-0.633,1.325,1.325,0,0,1-.5-0.633h-1.51A3.282,3.282,0,0,1,645.211,160.66Zm30.21,13.163a1.137,1.137,0,0,0-.755-1.393,25.845,25.845,0,0,0-2.769-.379,3.8,3.8,0,0,0-2.77.886v1.139a1.4,1.4,0,0,0,.756,1.139l1.51-1.519,1.511,1.519h2.517A1.94,1.94,0,0,1,675.421,173.823Zm-78.043,1.518a4.974,4.974,0,0,0-1.51-.126,2.409,2.409,0,0,0-1.763.759v1.519a1.33,1.33,0,0,0,.5.633,2.182,2.182,0,0,1,.5.379,3.531,3.531,0,0,1,1.511.254l1.007,1.012a0.449,0.449,0,0,0,.629,0,0.846,0.846,0,0,0,.378-0.759,2.437,2.437,0,0,0,.126-1.393,11.28,11.28,0,0,1-.126-1.645C597.964,175.638,597.543,175.428,597.378,175.341Zm46.826,6.2h-0.755a0.7,0.7,0,0,1-.378.253,0.707,0.707,0,0,0-.378.253v0.506a3.762,3.762,0,0,1,1.259,1.772,2.4,2.4,0,0,0,1.007,2.025c0.5-1.178.921-2.278,1.259-3.29h1.007c0.5,0.34.92,0.17,1.259-.507q0.5-.5-0.5-1.012H644.2Zm-2.14,25.312a1.378,1.378,0,0,0-.881.507,4.321,4.321,0,0,0,0,3.543l0.5,0.507a4.2,4.2,0,0,1,1.007.126,1,1,0,0,0,1.007-.633,5.593,5.593,0,0,0,0-4.05h-1.636Zm6.672-36.956a0.443,0.443,0,0,0-.378-0.38,1.13,1.13,0,0,1-.63-0.632,2.218,2.218,0,0,1-1.007.253,2.251,2.251,0,0,0-1.007.253v2.278a2.96,2.96,0,0,1,1.385,1.266,1.644,1.644,0,0,0,1.637.759v-3.8Zm-18.882,7.72a4.029,4.029,0,0,1-1.259,1.393q-0.507,2.028.756,2.531l2.265-2.278v-2.531A1.853,1.853,0,0,0,629.854,177.619Zm1.762,48.727a5.116,5.116,0,0,0,1.511,1.013,5.215,5.215,0,0,0,1.51-1.013v-1.519a5.575,5.575,0,0,0-1.51-.759,5.473,5.473,0,0,0-1.511.759v1.519Zm-14.6-10.378a5.778,5.778,0,0,1,2.014-2.025,1.981,1.981,0,0,0-2.518-.759l-2.265,2.278a2.2,2.2,0,0,0,2.769.506h0Zm-21.4-28.1a1.021,1.021,0,0,0-1.259.506q-0.507.51,0.5,1.013l1.51,1.519a5.512,5.512,0,0,0,.755-1.519,5.613,5.613,0,0,0-.755-1.519h-0.755Zm17.874,15.694q1.76-1.519,0-3.038a1.905,1.905,0,0,0,0,3.038h0Zm24.924,12.656a1.408,1.408,0,0,0,.755-0.506c0-.673-0.252-1.013-0.755-1.013a1.738,1.738,0,0,0-1.133-.126,5.629,5.629,0,0,1-1.133.126v1.519h2.266Zm-4.784-39.487a1.024,1.024,0,0,0,.756-0.254v-0.506a0.448,0.448,0,0,0-.5-0.506q-2.017-.759-2.266,1.519h0a6.481,6.481,0,0,0,2.014-.253h0Zm-37.511-7.341a1.884,1.884,0,0,0-.5,1.392,1.142,1.142,0,0,0,.5,1.139h0.5a2.178,2.178,0,0,0,0-2.784c-0.338,0-.5.087-0.5,0.253h0Zm1.763,15.441q1.758-1.769,0-3.291a2.168,2.168,0,0,0,0,3.291h0Zm40.783,40.753q-1.008.51-.5,1.012a0.445,0.445,0,0,0,.5.506h0.756c1.172,0,1.593-.34,1.258-1.012s-0.755-.843-1.258-0.506h-0.756Zm10.071-101.5v-1.519l-0.5-.506h-0.5a1.149,1.149,0,0,0-.5,1.139,1.871,1.871,0,0,0,.5,1.392c0-.166.166-0.083,0.5,0.253a1.419,1.419,0,0,0,.5-0.759h0Zm-36,36.2-0.5-.506c-0.339-.336-0.673-0.083-1.007.76v0.506a1.282,1.282,0,0,0,.5,1.519c0.669,0.34,1.007-.167,1.007-1.519h0v-0.76Zm33.735-7.087h-1.511l-0.5.506a0.733,0.733,0,0,0-.252.506,1.572,1.572,0,0,0,1.385.76,1.86,1.86,0,0,0,1.384-.506V153.7a0.444,0.444,0,0,1-.5-0.506h0Zm-21.147.759q1.511,2.03,3.021,0a1.883,1.883,0,0,0-3.021,0h0Zm-8.308-2.784a0.735,0.735,0,0,0,.252-0.506,1.953,1.953,0,0,1,.251-0.76,1.49,1.49,0,0,0-.755-1.265,0.669,0.669,0,0,0-.755.759,1.711,1.711,0,0,0-.126,1.139,5.992,5.992,0,0,1,.126,1.139c0.669,0.34,1.007.17,1.007-.506h0ZM715.2,168.887a0.446,0.446,0,0,0,.5-0.507q0.5-.5-0.5-1.012h-0.755a1.28,1.28,0,0,0-1.259.506q-0.507,1.014,1.259,1.013H715.2Zm329.052-17.978h-16.62V47.373H990.618L907.534,161.035l14.351,26.58h62.691V226.6h43.054V187.615h16.62V150.909Zm-87.873.506L988.352,105.6l-0.5,45.819H956.377Zm278.683,16.206a2.394,2.394,0,0,1,1.01.759,2.04,2.04,0,0,0,1.26.76h0.75l0.76,0.759a12.9,12.9,0,0,0-1.01,1.139,13.38,13.38,0,0,1-1.01,1.139h-0.75a0.911,0.911,0,0,0-.51-1.265c-0.5-.166-0.59-0.166-0.25,0a8.1,8.1,0,0,0,.51.886,1.31,1.31,0,0,1,.25.632v0.507a25.686,25.686,0,0,1-2.52,2.278l-3.02-3.038h-6.3l-0.75.76v7.593a0.714,0.714,0,0,0,.25.507l0.5,0.506a9.565,9.565,0,0,0,.89-1.013,0.645,0.645,0,0,1,.88-0.253,0.75,0.75,0,0,1,.63.886,5.5,5.5,0,0,0-.13,1.139c-0.34.847-.84,1.139-1.51,0.886a1.117,1.117,0,0,0-1.51.886v14.175a3.421,3.421,0,0,1,.63.38,2.558,2.558,0,0,0,.63.38c0.84,0.34,1.34.549,1.51,0.632a1.484,1.484,0,0,1,.25,1.139v2.025c-0.34.847-.75,1.1-1.26,0.76-1.17,0-1.76.423-1.76,1.265v11.644a1.168,1.168,0,0,0,.75,1.266h15.61c0.51-.506,1.05-1.013,1.64-1.519s1.13-1.012,1.64-1.519a1.5,1.5,0,0,1,.75,1.266c-0.34,1.182,0,1.772,1.01,1.772a11.908,11.908,0,0,0,3.02.126c1.01-.083,1.93-0.126,2.77-0.126a7.615,7.615,0,0,0,1.13-.886,3.287,3.287,0,0,1,.88-0.633,2.274,2.274,0,0,0,2.02-.759v-1.519l2.26-2.278c0.67,0.17,1.01.759,1.01,1.772a3.049,3.049,0,0,1-.38.632,3.326,3.326,0,0,0-.38.633,5.111,5.111,0,0,0-1,1.519,5.007,5.007,0,0,0,1,1.519h4.54a6.737,6.737,0,0,1,1.76-1.266,12.184,12.184,0,0,0,1.76,1.519,10.358,10.358,0,0,1,3.9-.253,10.2,10.2,0,0,0,3.9-.253c0.34,0,.51-0.42.51-1.266h-2.77a10.6,10.6,0,0,0-1.26-1.519,10.545,10.545,0,0,1-1.26-1.518h-1.76a4.277,4.277,0,0,1-1.01-1.646,4.3,4.3,0,0,1,1.01-1.645h1.51a29.533,29.533,0,0,0,2.77,2.911c1.01,0.929,1.93,1.815,2.77,2.658v0.759h2.26l1.51,1.519h3.28l0.5-.506a1.745,1.745,0,0,0,.13-1.14,1.207,1.207,0,0,1,.37-1.139,1.053,1.053,0,0,1,1.01-.379,4.016,4.016,0,0,0,1.01.126l2.26-2.278a4.311,4.311,0,0,1,.26-1.772c0.5-1.012,1.34-1.095,2.51-.253,0.51,0.34.59,1.013,0.25,2.025l-1,1.013a2.26,2.26,0,0,0-.25,2.278l2.01,2.025h31.47q3.78-3.8,7.55-7.467t7.55-7.468a6.771,6.771,0,0,1,1.26-1.392,6.4,6.4,0,0,0,1.26-1.392l0.25-.253v-0.253l-2.01-2.025q-1.005-.249-2.52-0.76a12.692,12.692,0,0,1,1.51-1.771V194.2a8.444,8.444,0,0,0-2.89,0,5.725,5.725,0,0,1-2.9-.253,1.368,1.368,0,0,1-.5-0.759v-1.013a0.875,0.875,0,0,1,.75-0.759,0.5,0.5,0,0,1,.76.253,1.606,1.606,0,0,0,.75.759,7.694,7.694,0,0,0,1.89.253,5.164,5.164,0,0,1,1.64.254c0.67,0,.84.423,0.5,1.265h2.27a12.121,12.121,0,0,0,1.76-1.519h1.51a6.892,6.892,0,0,0,1.51,1.266c0.5-.336.97-0.672,1.39-1.012s0.79-.673,1.13-1.013a25.686,25.686,0,0,1-2.52-2.278,5.492,5.492,0,0,1-1.76-.253c-0.5-.166-0.67-0.76-0.5-1.772a0.546,0.546,0,0,0-.13-0.38,0.489,0.489,0,0,1-.13-0.379,1.606,1.606,0,0,0-.88-0.76q-0.63-.249-0.12-0.759a1,1,0,0,1,1-.633,1.4,1.4,0,0,0,1.01-.127,3.631,3.631,0,0,1,3.27-1.518l2.27-2.278v-3.038a22.72,22.72,0,0,1-4.03-4.05h-1.51a5.771,5.771,0,0,0-1.13.127,0.734,0.734,0,0,1-.88-0.633,0.646,0.646,0,0,1,.25-0.886,2.551,2.551,0,0,0,.75-0.886,7.6,7.6,0,0,0-1.25-1.519V165.09a21.157,21.157,0,0,1,2.26-2.025,7.158,7.158,0,0,1,1.51,1.265l1.51-1.518c0.51-.507.67-0.843,0.51-1.013q-0.51-1.008-1.26-.506h-2.52a19.031,19.031,0,0,0-.76-2.025,8.641,8.641,0,0,1,3.02-2.784,1.6,1.6,0,0,1,.89.253,1.518,1.518,0,0,0,.88.253v1.772a1.827,1.827,0,0,0,3.27,0v-1.519l-1.51-1.519a3.952,3.952,0,0,0,.63-0.759,1.346,1.346,0,0,1,.63-0.506,5.58,5.58,0,0,1-.88-1.14,2.282,2.282,0,0,1-.38-1.139,2.6,2.6,0,0,0-.5-1.645c-0.34-.419-0.68-0.8-1.01-1.139l1.51-1.519V144.84a12.038,12.038,0,0,1,1.51-1.772v-4.556a1.352,1.352,0,0,0-1.01-.76,2.151,2.151,0,0,1-1-.253c-0.85,0-1.26-.589-1.26-1.772a1.721,1.721,0,0,1,1.51-1.265c1.17-.166,1.76-0.507,1.76-1.013V127.88a0.666,0.666,0,0,0-.25-0.632,1.352,1.352,0,0,1-.51-0.633h-7.8a0.441,0.441,0,0,1-.5-0.506c-0.34-.673-0.17-1.013.5-1.013a1.72,1.72,0,0,1,1.13-.127,1.108,1.108,0,0,0,1.14-.632l-1.51-1.519,1-1.013a7.968,7.968,0,0,1,1.26.127,2.006,2.006,0,0,0,1.26-.127,2.394,2.394,0,0,0,1.01-.759v-1.519a6.181,6.181,0,0,0-1.26-.759h-0.76c-0.67-.166-1-0.759-1-1.772a1.127,1.127,0,0,0-1.51-1.266c-1.01,0-1.51-.419-1.51-1.265a1.655,1.655,0,0,1,.5-2.025,6.535,6.535,0,0,0,1.51-1.519,8.443,8.443,0,0,1,2.89,0,3.184,3.184,0,0,0,2.65-.759,4.465,4.465,0,0,0-1.39-1.646,7.337,7.337,0,0,1-1.63-1.645v-0.759c-1.35-.166-1.77-1.013-1.26-2.532l0.5-.506,0.5,0.253a0.491,0.491,0,0,0,.13.38,0.546,0.546,0,0,1,.13.38v2.025h0.75l2.27-2.278a3.316,3.316,0,0,1-.63-0.76,4.215,4.215,0,0,0-.63-0.759,16.672,16.672,0,0,1,1.51-1.772c0.5-.506,1.01-1.013,1.51-1.519V98.012a3.747,3.747,0,0,0-1.26-1.772,1.538,1.538,0,0,1,0-2.025,1.456,1.456,0,0,1,.5-0.633,1.351,1.351,0,0,0,.51-0.633,1.425,1.425,0,0,0,.12-1.519,2.139,2.139,0,0,0-1.63-1.013,1.152,1.152,0,0,1-1.26-.759c0.5-.506,1.01-1.013,1.51-1.519a16.376,16.376,0,0,0,1.51-1.772V83.33l-2.27-2.278h-1.51a0.989,0.989,0,0,1-.75-1.013l0.5-.506a1.159,1.159,0,0,1,.88-0.127,1.12,1.12,0,0,0,.88-0.127l0.51-.506a1.354,1.354,0,0,0-.76-1.012,3.641,3.641,0,0,0-1.89,0,1.918,1.918,0,0,1-1.88-.759,5.816,5.816,0,0,0,2.01-2.025,5.349,5.349,0,0,0,4.28-2.784,3.689,3.689,0,0,0-.25-1.519,1.012,1.012,0,0,0-1.01-.633,1.4,1.4,0,0,1-1.01-.127c-0.5,0-.75-0.336-0.75-1.013a9.939,9.939,0,0,0,1.51-1.266c0.5-.506,1.01-1.013,1.51-1.519V53.462l-1.51-1.519V50.424l-19.89-20-1.76-1.772a0.769,0.769,0,0,0-.25-0.506,1.126,1.126,0,0,1-.13-0.886,0.6,0.6,0,0,0-.12-0.633,9.105,9.105,0,0,0-1.01-1.266c-0.34-.336-0.67-0.672-1.01-1.012h-23.66a2.059,2.059,0,0,0-.76,1.266,1.523,1.523,0,0,1-.25,1.519,0.709,0.709,0,0,0-.5.253,1.4,1.4,0,0,1-.76-0.506,1.742,1.742,0,0,1-.13-1.139,1.206,1.206,0,0,0-.37-1.139c-0.68-.336-1.6-0.166-2.77.506a4.207,4.207,0,0,1-1.64,1.012,3.014,3.014,0,0,1-1.38-1.012l-0.76-.759h-3.02a1.362,1.362,0,0,0-.75,1.012l0.5,0.506a1.12,1.12,0,0,0,.88.127,2.778,2.778,0,0,1,.88-0.127,0.445,0.445,0,0,0,.5.506q0.51,1.014-.75,1.012a11.845,11.845,0,0,1-2.77.253,9.553,9.553,0,0,0-1.76-1.519,1.512,1.512,0,0,0-1.89.253,3.087,3.087,0,0,1-1.38,1.012l-0.76-.759c-0.67-.672-1.18-0.589-1.51.253V27.9a1.342,1.342,0,0,1-.76,1.012,7.156,7.156,0,0,1-1.51-1.266h-1.51a1.336,1.336,0,0,1-.75-1.645,1.352,1.352,0,0,0-.76-1.645h-4.91a42.5,42.5,0,0,0-4.65.253,0.45,0.45,0,0,0-.51.506,0.67,0.67,0,0,0,.76.759,3.454,3.454,0,0,0,1.51.253l2.26,2.278a2.864,2.864,0,0,1-1.76.633,7.263,7.263,0,0,1-2.01-1.392h-11.08c-0.5-.506-1.01-1.052-1.51-1.645a10.972,10.972,0,0,0-1.76-1.645h-1.51a7.7,7.7,0,0,0-1.51-1.266,4.007,4.007,0,0,1-1.01.759c-0.34.17-.67,0.34-1.01,0.506-1.17.34-1.76,0.593-1.76,0.759V28.4l2.27,2.278h9.31c0.5,0,.76.34,0.76,1.013a1.75,1.75,0,0,1-.76,2.278h-3.02c-0.34-.336-0.63-0.633-0.88-0.886s-0.55-.546-0.88-0.886h-5.29a2.426,2.426,0,0,1-.12,2.278,10.586,10.586,0,0,1-1.39,1.772,1.21,1.21,0,0,0,1.26.633,1.373,1.373,0,0,1,1.26.38q0.75,0.51,0,1.013a8.3,8.3,0,0,1-3.53.253,7.079,7.079,0,0,0-3.27.253,3.477,3.477,0,0,0-.63.759,1.3,1.3,0,0,1-.63.506,2.371,2.371,0,0,1-.75-1.013,1.78,1.78,0,0,1,.25-1.519,9.535,9.535,0,0,0,.88-1.013,9.177,9.177,0,0,1,.88-1.012h1.26a1.4,1.4,0,0,0,1.26-1.519c0.33-.842,0-1.349-1.01-1.519l-0.5.506c-0.34.676-.67,0.846-1.01,0.506-0.67-.336-0.84-0.759-0.5-1.266a1.169,1.169,0,0,0-.76-1.266,4.342,4.342,0,0,0-1.63,1.392,7.806,7.806,0,0,1-1.64,1.645h-9.32a6.136,6.136,0,0,0-.75-1.266,3.505,3.505,0,0,1-.25-1.519c-0.51-.506-0.93-0.419-1.26.253v4.809a1.952,1.952,0,0,1,.75.633,6,6,0,0,0,.76.886l-1.51,1.519V50.424l1.51,1.519a3.506,3.506,0,0,1-.76.633,1.388,1.388,0,0,0-.5.633,0.754,0.754,0,0,1-.25.506v64.547q0,8.352.12,14.3,0.135,5.951.13,7.721a1.656,1.656,0,0,1,1.01.759,5.052,5.052,0,0,1,.38,1.266,6.354,6.354,0,0,0,.37,1.392,1.539,1.539,0,0,0,1.01.886c-0.5.506-1.01,1.056-1.51,1.645s-1.01,1.139-1.51,1.645l1.76,1.772c-0.5.847-.46,1.436,0.13,1.772a1.483,1.483,0,0,1,.88,1.266,1.348,1.348,0,0,1-.51.632,1.458,1.458,0,0,0-.5.633,5.564,5.564,0,0,1-.38,2.025,1.783,1.783,0,0,0,.88,2.025,5.708,5.708,0,0,1,1.26-1.012l0.51-.506a3.547,3.547,0,0,1,1.51.253,0.446,0.446,0,0,1,.5.506v1.519a9.192,9.192,0,0,1-1.51,1.772v1.518l-0.5.507a0.886,0.886,0,0,1-.76.126,0.892,0.892,0,0,0-.75.127c-0.68.17-1.01,0.759-1.01,1.772,0,0.846.5,1.265,1.51,1.265h0.76a11.7,11.7,0,0,1,1.76-1.519h4.53l1.51-1.518a1.173,1.173,0,0,1,.75,1.265,1.432,1.432,0,0,1-1,1.772,2.8,2.8,0,0,1-1.26.253,6.114,6.114,0,0,1-.88.76,7.913,7.913,0,0,1-.88.506,14.315,14.315,0,0,1-3.28.126,7.527,7.527,0,0,0-3.02.38l-0.5.506a3.724,3.724,0,0,0,.75,2.279h4.54a11.589,11.589,0,0,1,1.76-1.519h1.51a1.23,1.23,0,0,1,.75,1.519,1.232,1.232,0,0,0,.76,1.518c1.17,0,1.76-.419,1.76-1.265h0c-0.84-1.855-.92-2.951-0.25-3.291h0ZM1227,133.2a3.2,3.2,0,0,1,1.89-.38,11.193,11.193,0,0,0,1.64.127l0.25,0.253a0.22,0.22,0,0,0,.25.253,1.813,1.813,0,0,1-.75,1.013h-3.78a11.692,11.692,0,0,1-2.01,3.037,1.421,1.421,0,0,1-1.01-1.012V133.7l0.75-.759a2.175,2.175,0,0,1,.89,1.012,1.065,1.065,0,0,0,1.38.507v0.759h0c0-1.179.17-1.855,0.5-2.025h0Zm4.28,49.106c0,0.507-.33.76-1,0.76a1.284,1.284,0,0,1-.51-1.266,2.957,2.957,0,0,1,.25-1.266,1.29,1.29,0,0,1,1.26-.506c-0.33-.506-0.17-0.925.51-1.265q1.005-.25,1.89-0.507a2.263,2.263,0,0,0,1.38-1.265,1.228,1.228,0,0,1,1.51,0l0.76,0.759a18,18,0,0,0-2.02,2.278h-4.03V182.3Zm112.03-43.031,0.51,0.506a0.731,0.731,0,0,1-.26.507,1.391,1.391,0,0,1-.75.506h-2.01v2.278a6.745,6.745,0,0,1,.75.886,6,6,0,0,0,.76.886v3.037a1.328,1.328,0,0,1-1.39.633,2.37,2.37,0,0,0-1.38.127,1.57,1.57,0,0,1-1.51-.507,0.448,0.448,0,0,1-.51-0.506,3.694,3.694,0,0,1,.25-1.519,1.392,1.392,0,0,1,.51-0.632,3.8,3.8,0,0,0,.75-0.633,21.232,21.232,0,0,1,.51-3.544c0-.672.41-0.842,1.26-0.506,0.16-1.349,1-1.855,2.51-1.519h0Zm-10.32,1.519a1.029,1.029,0,0,1,.5-1.266c0.34-.336.67-0.166,1.01,0.506a1.741,1.741,0,0,0,.63.507,2.4,2.4,0,0,1,.63.253,4.144,4.144,0,0,1,1.64.759,6.769,6.769,0,0,1,.12,1.772,1.442,1.442,0,0,1-1,.506h-1.01a1.9,1.9,0,0,1-1.13-1.012,1.085,1.085,0,0,0-1.39-.506v4.05a13.611,13.611,0,0,1-1.13,1.012,18.66,18.66,0,0,0-1.39,1.266h-2.77a1.431,1.431,0,0,1-1-1.013,3.534,3.534,0,0,1,.25-1.519,1.441,1.441,0,0,1,1.01-.506,2.212,2.212,0,0,0,1-.253,1.119,1.119,0,0,0,.88-1.519,1.1,1.1,0,0,1,.63-1.518h2.52V140.79ZM1281.51,38.78a1.571,1.571,0,0,0-.88-0.253,6.1,6.1,0,0,1-.88.759,6.071,6.071,0,0,0-.89.759h-1.51a5.542,5.542,0,0,1-.75-1.519,5.02,5.02,0,0,1,1.01-1.519h3.02a2.957,2.957,0,0,1,.37-0.633,2.66,2.66,0,0,0,.38-0.633,6.2,6.2,0,0,0-.12-1.139,1.687,1.687,0,0,1,.12-1.139,0.646,0.646,0,0,1,.25-0.633,1.351,1.351,0,0,0,.51-0.633h1.51a6.07,6.07,0,0,1,.88-0.759,6.1,6.1,0,0,0,.88-0.759h1.01a1.34,1.34,0,0,1,1,.759,27.641,27.641,0,0,1-2.14,2.4c-0.75.759-1.55,1.562-2.39,2.4v2.278c-0.5.846-.59,1.226-0.25,1.139s0.42-.463.25-1.139h0.76a2.746,2.746,0,0,1,.75,2.531c-0.34.676-1,.846-2.01,0.506a2.394,2.394,0,0,1-1.01-.759C1281.72,39.627,1281.76,38.951,1281.51,38.78Zm12.96,20.5c0.67-.166,1.26-0.336,1.77-0.506a3.384,3.384,0,0,0,1.51-1.266c0-.166.16-0.253,0.5-0.253a1.017,1.017,0,0,1,.75.253,2.335,2.335,0,0,1,1.01.759l-2.26,2.278h-4.03c0,0.846.25,1.266,0.75,1.266a13.268,13.268,0,0,0,3.02.253h9.32a0.546,0.546,0,0,1,.38.127,0.45,0.45,0,0,1,.5.506,0.545,0.545,0,0,1,.13.38V95.987q0.5,0.51.75,0.759c0.17,0.17.42,0.423,0.76,0.759a1.35,1.35,0,0,1-.51.633,1.327,1.327,0,0,0-.5.633,18.555,18.555,0,0,0-.38,3.923,11.267,11.267,0,0,0,.63,1.9h4.78a11.734,11.734,0,0,0,1.77,1.519h4.53c0.84,1.182,1.01,2.112.5,2.784a2.063,2.063,0,0,1-2.26.253l-1.26-1.265a18.135,18.135,0,0,0-6.04,0c-0.68.506-1.18,0.885-1.52,1.139a9.466,9.466,0,0,0-1,.886v3.29l2.26,2.278h2.27a11.967,11.967,0,0,1,2.27.253c0.66,0,.83.341,0.5,1.013l-0.25.253a0.224,0.224,0,0,1-.25.253h-3.03a2.3,2.3,0,0,0-.75,2.025,9.161,9.161,0,0,1-1.51,1.772,12.692,12.692,0,0,1,1.51,1.772v1.266a12.466,12.466,0,0,1-1.51,1.771,6.811,6.811,0,0,1,.75.886,6,6,0,0,0,.76.886,10.739,10.739,0,0,1-.38,1.772,1.417,1.417,0,0,1-1.13.253c-1.18.17-1.76,0.594-1.76,1.266v5.569l0.25,0.506,1.26,1.266a7.99,7.99,0,0,1-.51.885,6.435,6.435,0,0,1-.75.886v23.288a4.574,4.574,0,0,0,2.52,2.531,2.406,2.406,0,0,0,2.51-1.265c0.67,0,1.01.253,1.01,0.759a3.156,3.156,0,0,1,.13,1.519,8.645,8.645,0,0,0-.13,1.518,1.731,1.731,0,0,1-1.89.76,4.016,4.016,0,0,0-2.39.253,30.443,30.443,0,0,0-1.76,2.531,7.048,7.048,0,0,0-.13,3.544,9.546,9.546,0,0,1-.12,4.05,1.4,1.4,0,0,1-.76.506h-7.55a11.646,11.646,0,0,0-1.76,1.519l-1.26-1.266q-2.265,0-5.79-.126c-2.36-.083-4.87-0.127-7.56-0.127s-5.49.044-8.43,0.127-5.75.126-8.43,0.126q-1.515.51,0,1.013a17.071,17.071,0,0,0,2.01.759l0.5,0.506v1.772a8.319,8.319,0,0,0-2.01.507,12.247,12.247,0,0,1-1.76-1.519,3.455,3.455,0,0,1-1.51-.253c-0.67-.166-1.01-0.76-1.01-1.772v-52.4l-1.26-1.266a7.013,7.013,0,0,1,1.26-1.772v-3.037a9.414,9.414,0,0,0-1.51-1.772l1.51-1.519V88.14l-1.51-1.519V80.293a12.049,12.049,0,0,1,1.51-1.772V77l-1.51-1.519,1.26-1.266a6.9,6.9,0,0,0,.5-2.531c0-.843-0.59-1.6-1.76-2.278a6.674,6.674,0,0,0,.76-0.886,5.472,5.472,0,0,1,.75-0.886V63.08a1.149,1.149,0,0,0,.63-0.633,0.576,0.576,0,0,1,.63-0.38h19.38a0.631,0.631,0,0,0,.63-0.253,1.4,1.4,0,0,1,.63-0.506l-1.51-1.519a2.44,2.44,0,0,1,2.02-.886c0.67,0.087,1.42.214,2.26,0.38a0.7,0.7,0,0,1,.25.38,0.708,0.708,0,0,0,.26.38V60.8q-0.51.759,0.75,1.266l1.51-1.519h3.78c0-.843.25-1.266,0.75-1.266h0ZM1274.84,47.64c0.5-.506,1.13-1.139,1.88-1.9s1.55-1.558,2.4-2.4h3.02c0.67,0.34.84,0.676,0.5,1.013q-1.515,1.519-1.26,2.784l1.51,1.519-0.5.506a3.824,3.824,0,0,1-1.51.506,17.423,17.423,0,0,0-4.16,0,11.3,11.3,0,0,1-4.15-.253l-0.75-.759h0Zm-13.98,126.689a2.456,2.456,0,0,1-.62.886c-0.51-.506-0.97-0.926-1.39-1.266a2.257,2.257,0,0,0-1.89-.253l-3.77-3.8a6.5,6.5,0,0,0,.75-0.886,6.207,6.207,0,0,1,.76-0.886v-1.518a11.311,11.311,0,0,1-1.51-1.772,8.049,8.049,0,0,1,.5-2.025,11.154,11.154,0,0,1,2.14,1.645,2.623,2.623,0,0,1,.63,2.405,1.9,1.9,0,0,1,1.13,1.518,3.954,3.954,0,0,0,.63,1.772,6.645,6.645,0,0,0,1.26,1.392q0.75,0.636,1.26,1.14A4.1,4.1,0,0,1,1260.86,174.329Zm63.19-26.958a7.3,7.3,0,0,0-1.38,1.519l-2.27-.76V145.6a1.564,1.564,0,0,0-1.76-1.772,0.53,0.53,0,0,0-.38.127,0.488,0.488,0,0,1-.37.126c-0.68.341-.85,0.76-0.51,1.266a2.09,2.09,0,0,1-.5,1.519,1.693,1.693,0,0,1-1.26-.506,3.48,3.48,0,0,0-.63-0.886,3.445,3.445,0,0,1-.63-0.886,13.535,13.535,0,0,0,1.01-1.139,12.758,12.758,0,0,1,1.01-1.139h6.29a18.676,18.676,0,0,1,1.51,1.139,4.774,4.774,0,0,1,1.26,1.9A5.112,5.112,0,0,1,1324.05,147.371Zm-1.38,40.5a4.3,4.3,0,0,1,1.01,1.645,3.062,3.062,0,0,1-1.01,1.393,3.742,3.742,0,0,0-.76-0.633,3.53,3.53,0,0,1-.75-0.633c-0.34.34-.67,0.676-1.01,1.012a2.038,2.038,0,0,1-1.51.507,0.734,0.734,0,0,0-1.01.253,3.819,3.819,0,0,1-.75,1.012,3.021,3.021,0,0,1-1.64-1.012c-0.42-.506-0.8-0.926-1.13-1.266a1.89,1.89,0,0,1,2.27-2.278,1.084,1.084,0,0,0,.88-0.506,9.19,9.19,0,0,1,.88-1.013h1.51l1.51,1.519h1.51ZM1228.01,42.577V44.1a4.136,4.136,0,0,1-1.64,1.013,2.163,2.163,0,0,1-1.13-1.013,17.309,17.309,0,0,1,1.26-1.772l-1.26-1.266a10.158,10.158,0,0,1-.25-2.784,7.255,7.255,0,0,1,2.52-2.784,4.079,4.079,0,0,0,1.63,1.392,4.927,4.927,0,0,0,2.9-.127,20.816,20.816,0,0,1-1.39,1.645c-0.25.253-.54,0.55-0.88,0.886v1.519a8.693,8.693,0,0,1-1.76,1.772h0Zm26.18-3.544a7.87,7.87,0,0,0,2.77,1.266c1.34,0,1.43,1.013.25,3.038h-3.02a1.257,1.257,0,0,0-1,1.519,1.242,1.242,0,0,1-.76,1.519,1.227,1.227,0,0,1-.75-1.519,1.271,1.271,0,0,0-1.01-1.519h-0.76a1.167,1.167,0,0,1-1.26-.759,0.674,0.674,0,0,1,.76-0.759,4.116,4.116,0,0,1,2.01,0,1.622,1.622,0,0,0,1.77-.759,6,6,0,0,1-.76-0.886,6.746,6.746,0,0,0-.75-0.886,1.688,1.688,0,0,1,2.51-.253h0ZM1241.35,145.6a0.893,0.893,0,0,0-.75-0.126,0.887,0.887,0,0,1-.76-0.127,0.859,0.859,0,0,1-.75-0.759,1.621,1.621,0,0,1,0-1.266,1.328,1.328,0,0,1,.5-0.633,1.75,1.75,0,0,0,.5-0.379h3.03a5.411,5.411,0,0,1,1.13-1.266,13.439,13.439,0,0,0,1.13-1.013,6.2,6.2,0,0,0-.12-1.139,0.737,0.737,0,0,1,.63-0.886c0.33-.166.92,0.17,1.76,1.013l0.5,0.506c0,0.34.08,0.506,0.25,0.506l-1.26,1.266c-0.33.34-.17,0.676,0.51,1.013s0.84,0.676.5,1.012a0.445,0.445,0,0,1-.5.506h-4.53Zm5.04-97.2a25.742,25.742,0,0,0-1.76-2.025,9.379,9.379,0,0,1-1.26-1.519h-1.76a11.666,11.666,0,0,1-1.77-1.519,12.172,12.172,0,0,1-1.76,1.519l-0.75-2.278,2.26-2.278a5.855,5.855,0,0,0,1.13.886,2.26,2.26,0,0,0,1.14.38,2.328,2.328,0,0,1,1.89.759,15.648,15.648,0,0,0,1.13,1.266l2.26,2.278c-0.33,1.013-.59,1.859-0.75,2.531h0Zm-16.62,3.544V50.424q1.26-1.519,2.52-.506a15.361,15.361,0,0,1,2.01,1.772v1.772a1.507,1.507,0,0,1-1.88.886,2.8,2.8,0,0,0-2.4.38,0.612,0.612,0,0,0-.37.759,4.4,4.4,0,0,1,.12,1.013,1.43,1.43,0,0,1-.5.759c-0.67,0-1.01-.253-1.01-0.759a3.033,3.033,0,0,1-.12-1.519,9.715,9.715,0,0,0,.12-1.519Zm8.44,102.9a4.07,4.07,0,0,1,1.88-1.392,18,18,0,0,1,2.02,2.278,1.222,1.222,0,0,1-1.51.76,1.224,1.224,0,0,0-1.51.759,5.85,5.85,0,0,1-1.13,1.266,13.642,13.642,0,0,0-1.14,1.012h-1.51a3.2,3.2,0,0,1-.88-0.633c-0.25-.253-0.55-0.546-0.88-0.886a1.01,1.01,0,0,1-.5-1.012,1.582,1.582,0,0,1,1.51-.506h2.26A12.475,12.475,0,0,0,1238.21,154.838Zm107.37-23.414a2.835,2.835,0,0,1-1.01,1.519,7.37,7.37,0,0,0-1.26,1.519h-1.76l-1.51,1.518a2.02,2.02,0,0,1-1.01-2.025q0.255-1.008.51-2.025a1.575,1.575,0,0,1,1.63-.506,2.534,2.534,0,0,0,1.89-.253,1.884,1.884,0,0,0,.76-0.633,5.472,5.472,0,0,1,.75-0.886A3.944,3.944,0,0,1,1345.58,131.424Zm-11.83-89.606a1.953,1.953,0,0,1,.75.633,6,6,0,0,0,.76.886c0.67,0.34.83,0.676,0.5,1.013a1.282,1.282,0,0,1-1.26.506h-2.52a7.054,7.054,0,0,1-1.25,1.519h-1.77a5.542,5.542,0,0,1-.75-1.519,5.656,5.656,0,0,1,.75-1.519h1.77a6.933,6.933,0,0,1,1.25-1.519h1.77Zm-0.88,130.106a1,1,0,0,1,.62-1.012c0.34-.337.67-0.166,1.01,0.506l1.26,1.266,1.76,1.771a9.282,9.282,0,0,0-.88,1.013,4.576,4.576,0,0,0-.63,1.266,1.975,1.975,0,0,1-.75,1.771h-1.51a1.4,1.4,0,0,1-.51-0.759,5.191,5.191,0,0,1,1.26-1.519v-1.518a5.347,5.347,0,0,1-.75-0.886,6.153,6.153,0,0,0-.76-0.886A4.4,4.4,0,0,0,1332.87,171.924Zm-77.42-35.944c0.67,0.341.84,0.677,0.51,1.013a0.448,0.448,0,0,1-.51.506h-6.04a3.056,3.056,0,0,1-1.01-1.392,4.662,4.662,0,0,1,.76-1.645h1.76l1.51,1.518h3.02Zm88.11-41.765q0.255,1.014.51,2.025a2.038,2.038,0,0,1-1.01,2.025,1.227,1.227,0,0,1-.75-1.519,1.245,1.245,0,0,0-.76-1.519h-1.51a2.139,2.139,0,0,1-.5-2.784,1.038,1.038,0,0,1,1-.38,1.4,1.4,0,0,0,1.01-.126,16.88,16.88,0,0,1,2.01,2.278h0ZM1229.02,189.39a15.583,15.583,0,0,0-1.51,1.772q-1.77-1.265-.51-2.785a9.658,9.658,0,0,0,.89-1.012,9.19,9.19,0,0,1,.88-1.013h3.27c0.67,0.34.84,0.677,0.5,1.013-0.34.676-.75,0.846-1.26,0.506h-1A10.55,10.55,0,0,1,1229.02,189.39Zm82.82-51.891a1.2,1.2,0,0,1-.75-1.772,8.645,8.645,0,0,0-.13-1.518,1.23,1.23,0,0,1,.88-1.266q1.005,1.014,1.89,1.772a10.856,10.856,0,0,1,1.64,1.772c0.33,0.506.16,0.846-.5,1.012h-3.03ZM1277.61,33.718a10.589,10.589,0,0,1-3.28,0c-1-.506-1.09-0.925-0.25-1.266,0.5-.166,1.05-0.336,1.64-0.506a2.424,2.424,0,0,0,1.38-1.013,1.329,1.329,0,0,1,1.39-.253,3.2,3.2,0,0,1,1.38.759Zm16.86,155.672a5.55,5.55,0,0,1-.75-1.519,5.111,5.111,0,0,1,1-1.519h2.27a1.288,1.288,0,0,1,1.26.507c0.33,0.34.16,0.676-.5,1.012a6.207,6.207,0,0,0-.76.886,4.693,4.693,0,0,1-.5.633h-2.02Zm11.33-1.772q-1.755,1.014-2.52-.506v-1.519a2.092,2.092,0,0,1,1.26-.759,5.189,5.189,0,0,1,2.27,0,2.456,2.456,0,0,1,1.01.759,5.845,5.845,0,0,1-2.02,2.025h0Zm36.51-132.131a1.229,1.229,0,0,0-.38-0.886c-0.25-.253-0.55-0.546-0.88-0.886s-0.17-.672.5-1.012h1.51a2.3,2.3,0,0,1,.76,2.025,1.077,1.077,0,0,0,.5.886,2.619,2.619,0,0,1,.76.886q0.5,0.51-.51,1.012h-1.51a2.291,2.291,0,0,1-.75-2.025h0Zm-44.06,140.737a10.69,10.69,0,0,0-.63,1.013q-0.135.255-1.38,0a17.269,17.269,0,0,1-2.27-2.025,2,2,0,0,1,.75-2.532,17.41,17.41,0,0,0,3.53,3.544h0Zm22.03-33.412a1.326,1.326,0,0,1,1.63.759,0.441,0.441,0,0,1-.5.506,8.507,8.507,0,0,1-5.03,0,1.162,1.162,0,0,1-.76-1.265,1.309,1.309,0,0,1,.5-1.266,1.152,1.152,0,0,1,1.26.506q0-.249.51,0.76A5.661,5.661,0,0,0,1320.28,162.812ZM1242.61,158a1.192,1.192,0,0,0,.88-0.379c0.26-.254.55-0.546,0.88-0.886a1.9,1.9,0,0,1,2.52.506,12.843,12.843,0,0,0-1,1.139c-0.34.423-.68,0.8-1.01,1.139a9.472,9.472,0,0,0-2.27.253,2,2,0,0,1-2.01-1.012,2.7,2.7,0,0,1,2.01-.76h0Zm55.89,55.435a1.471,1.471,0,0,1-.5,1.012q-1.77,1.014-2.52-.506a4.652,4.652,0,0,1,0-3.038l0.76-.759,2.26,2.278h0v1.013ZM1258.47,33.845a13.872,13.872,0,0,0,1.77.127,1.416,1.416,0,0,1,.75,1.139v1.139a0.585,0.585,0,0,1-.38.633,0.564,0.564,0,0,1-.63-0.127,3.7,3.7,0,0,0-1.76-1.266,1.944,1.944,0,0,1-2.01-1.266A4.572,4.572,0,0,1,1258.47,33.845Zm-16.36,22.908-0.76.759h-4.53c-0.5-.506-0.67-0.843-0.5-1.012a0.443,0.443,0,0,1,.5-0.506,11.874,11.874,0,0,1,2.27-.253h2.26a2.363,2.363,0,0,1,.76,1.012h0Zm24.42-4.05a5.657,5.657,0,0,1,.75,1.519,5.54,5.54,0,0,1-.75,1.519h-1.51a5.146,5.146,0,0,1-1.01-1.519,5.257,5.257,0,0,1,1.01-1.519h1.51Zm-13.34,100.744a4.9,4.9,0,0,1-1.51-1.012v-1.519a5.367,5.367,0,0,1,1.51-.76,5.813,5.813,0,0,1,1.51.76v1.519A5.3,5.3,0,0,1,1253.19,153.446Zm-24.93,41.766a1.622,1.622,0,0,0,.38-0.633,0.434,0.434,0,0,1,.38-0.38h3.02l0.5,0.506a0.221,0.221,0,0,0,.25.254,16.83,16.83,0,0,0-1.25,1.392c-0.34.423-.68,0.8-1.01,1.139Zm4.79-151.369c0.33-.336.66-0.716,1-1.139a14.7,14.7,0,0,1,1.01-1.139c1.01,1.013,1.17,1.942.5,2.784a14.24,14.24,0,0,1-1.76,2.025,1.786,1.786,0,0,1-.75-2.531h0Zm79.05,44.8c0.33-.336.66-0.672,1-1.013q1.77-1.008,2.52.506c-0.34.34-.67,0.676-1.01,1.013s-0.67.676-1,1.013a1.842,1.842,0,0,1-2.52-.506C1311.42,89.322,1311.76,88.986,1312.1,88.646Zm19.38,12.783a4.269,4.269,0,0,1-1.01,1.645h-1.51a4.729,4.729,0,0,1-.75-1.645,4.766,4.766,0,0,1,.75-1.645h1.51A4.3,4.3,0,0,1,1331.48,101.429Zm11.58-12.53c-0.34-.336-0.67-0.672-1.01-1.012s-0.67-.672-1-1.013a1.161,1.161,0,0,1,.5-1.266,13.5,13.5,0,0,1,3.02.253l0.76,0.759h0Zm-96.67,43.791a1.986,1.986,0,0,1-1.26.253,5.655,5.655,0,0,1-1.51-1.013,17.867,17.867,0,0,0,2.27-2.025,2.351,2.351,0,0,1,1.51,0,2.053,2.053,0,0,1,1.25.76,18.309,18.309,0,0,0-2.26,2.025h0ZM1341.55,68.4a5.54,5.54,0,0,1-.75-1.519,5.657,5.657,0,0,1,.75-1.519h1.51a5.862,5.862,0,0,1,.76,1.519,5.736,5.736,0,0,1-.76,1.519h-1.51Zm-28.2-32.906a0.809,0.809,0,0,1,.51,1.012l-0.51.506h-3.02c-0.67-.336-0.84-0.672-0.5-1.012a0.447,0.447,0,0,1,.5-0.506h3.02Zm25.68,13.162c-0.17.846-.5,1.183-1,1.013a1.638,1.638,0,0,0-1.26,0,2.164,2.164,0,0,1,0-3.291Zm-31.97,164.532c0.5,0.34.67,0.676,0.5,1.012l-0.5.506h-3.02c-0.67-.336-0.84-0.672-0.5-1.012a0.443,0.443,0,0,1,.5-0.506h3.02Zm5.54-69.863c-0.34.34-.59,0.593-0.76,0.759s-0.42.424-.75,0.76c-0.5.34-.84,0.423-1.01,0.253a1.027,1.027,0,0,1-.5-1.266v-0.759c1.01-1.013,2.01-.926,3.02.253h0Zm27.44,33.666h1.01a1.439,1.439,0,0,1,1,.506c0.17,0.17,0,.506-0.5,1.012a12.09,12.09,0,0,0-1.51,1.772q-1.77-1.767,0-3.29h0Zm-16.49,6.328a4.2,4.2,0,0,1-1.64-1.013,6.073,6.073,0,0,1,.89-0.759,6.1,6.1,0,0,0,.88-0.759c0.33-.507.67-0.673,1-0.507a1.716,1.716,0,0,1,.51,1.266V182.3A4.2,4.2,0,0,1,1323.55,183.315Zm9.44-22.528v1.518a2.75,2.75,0,0,1-.75,2.025,1.478,1.478,0,0,1-.76-1.265v-1.519A1.084,1.084,0,1,1,1332.99,160.787Zm-87.61,43.031a5.016,5.016,0,0,1-1.51-1.013,6.2,6.2,0,0,0-.12-1.139,0.737,0.737,0,0,1,.62-0.886,0.5,0.5,0,0,1,.76.254,1.627,1.627,0,0,0,.76.759l0.5,0.506a0.765,0.765,0,0,1,.25.38,0.675,0.675,0,0,0,.25.38A5.488,5.488,0,0,1,1245.38,203.818Zm56.9-1.519c0.84,0.17,1.17.467,1,.886a2.075,2.075,0,0,0,0,1.392c-1,1.013-2.1,1.013-3.27,0Zm10.32-51.384a7.364,7.364,0,0,0,.13,1.265c0.08,0.507-.3.847-1.14,1.013a17.7,17.7,0,0,1-2.01-2.278,1.88,1.88,0,0,1,3.02,0h0Zm4.66,46.322a4.691,4.691,0,0,1-1.64-.76,1.443,1.443,0,0,0,.13-1.012,1,1,0,0,1,.63-1.013,0.5,0.5,0,0,1,.75.253,1.624,1.624,0,0,0,.76.76l0.5,0.506a0.765,0.765,0,0,1,.25.38,0.671,0.671,0,0,0,.25.379h0A5.942,5.942,0,0,1,1317.26,197.237Zm-86.73-50.119c0.5,0.34.67,0.676,0.5,1.012l-0.5.507h-3.02a0.988,0.988,0,0,1-.76-1.013l0.51-.506h3.27Zm104.73-48.853a1.6,1.6,0,0,0,1.26,0c0.5-.166.83,0.17,1,1.013l-2.26,2.278q-1.77-1.518,0-3.29h0Zm-33.74-62.016a6.652,6.652,0,0,1,.88-0.759,5.188,5.188,0,0,0,.88-0.759c0.34-.672.67-0.842,1.01-0.506,0.67,0.34.84,0.759,0.51,1.266v0.759a2.149,2.149,0,0,1-3.28,0h0ZM1256.96,59.03h-1a1.425,1.425,0,0,1-1.01-.506c-0.34-.336-0.17-0.672.5-1.013a6,6,0,0,0,.76-0.886,5.472,5.472,0,0,1,.75-0.886q1.755,1.774,0,3.291h0Zm-9.06-19.237c-0.67.34-1.01-.083-1.01-1.266V37.768l0.51-.506c0.33-.166.66,0,1,0.506v0.759h0a1.027,1.027,0,0,1-.5,1.266h0Zm42.8-.506a1.881,1.881,0,0,1,3.02,0q-1.515,2.029-3.02,0h0Zm-21.15-2.278q1.755,1.519,0,3.038a1.9,1.9,0,0,1,0-3.038h0Zm29.08,165.038a1.871,1.871,0,0,1-1.39-.506v-0.506a1.154,1.154,0,0,1,1.14-.507,1.875,1.875,0,0,1,1.38.507v0.506h0A1.141,1.141,0,0,1,1298.63,202.046Zm14.22-2.531q0.51-1.009,1.26-.506h0.76a0.81,0.81,0,0,1,.5,1.012,0.445,0.445,0,0,1-.5.506h-0.76q-1.77,0-1.26-1.012h0Zm8.06-24.3a1.437,1.437,0,0,1-.51-1.519v-0.759c0.34-.673.67-0.843,1.01-0.507l0.5,0.507V173.7h0c0,1.353-.33,1.859-1,1.519h0Zm-1.77-58.978a1.166,1.166,0,0,1,1.26-.76c0.17,0.17.29,0.214,0.38,0.127s0.21-.04.38,0.126c0.5,0.341.67,0.677,0.5,1.013l-0.5.506h-0.76q-1.755,0-1.26-1.012h0Zm-87.6,0a1.147,1.147,0,0,1,1.25-.76c0.17,0.17.3,0.214,0.38,0.127s0.21-.04.38,0.126c0.5,0.341.67,0.677,0.5,1.013l-0.5.506h-0.76c-1.17,0-1.59-.336-1.25-1.012h0Zm82.7,13.415a1.871,1.871,0,0,1-1.39-.506V128.64a1.138,1.138,0,0,1,1.13-.506,1.887,1.887,0,0,1,1.39.506,0.327,0.327,0,0,1,0,.506A1.141,1.141,0,0,1,1314.24,129.652Zm1.63-29.109a1.7,1.7,0,0,1,1.51-.76h0.76c0.5,0.507.67,0.846,0.5,1.013a0.7,0.7,0,0,0-.25.38,0.733,0.733,0,0,1-.25.379h-0.76c-1.34,0-1.85-.336-1.51-1.012h0Zm13.6,6.581a1.589,1.589,0,0,1-1.39.76,1.059,1.059,0,0,1-1.13-.76v-0.506l0.5-.506h1.51l0.26,0.253a0.22,0.22,0,0,0,.25.253h0v0.506Zm-10.58,48.6c-1,1.013-2.1,1.013-3.27,0,1.17-1.178,2.27-1.178,3.27,0h0Zm-65.96.253a1.832,1.832,0,0,1-1.38.507,1.122,1.122,0,0,1-1.13-.507c-0.34-.336-0.34-0.506,0-0.506a0.443,0.443,0,0,1,.5-0.506h1.51l0.5,0.506h0v0.506Zm-20.14-75.684q1.515-1.768,3.28,0-1.77,1.519-3.28,0h0Zm92.15,52.144a1.871,1.871,0,0,1-1.39.506,1.832,1.832,0,0,1-1.38-.506V131.93a1.382,1.382,0,0,1,.75-0.506,2.352,2.352,0,0,1,1.51,0l0.51,0.506v0.507Zm-66.47,1.772a1.347,1.347,0,0,1-.63-1.393,1.4,1.4,0,0,1,.63-1.139q0-.5.51,0a0.447,0.447,0,0,1,.5.507V133.7a0.224,0.224,0,0,1-.25.253,0.222,0.222,0,0,0-.25.254h-0.51Zm-1.51-86.569a1.167,1.167,0,0,1-.75-1.266c0.16-.166.21-0.293,0.12-0.38s-0.04-.21.13-0.38c0.33-.506.58-0.672,0.75-0.506a1.43,1.43,0,0,1,.76.506v0.759c0,1.182-.34,1.606-1.01,1.266h0Zm9.07-2.278a1.009,1.009,0,0,1,1.25-.506h0.76c0.67,0.34.84,0.676,0.5,1.012a0.445,0.445,0,0,1-.5.506h-0.76c-1.17,0-1.59-.336-1.25-1.013h0Zm32.72-4.809a1.29,1.29,0,0,1,1.26-.506h0.76a2.4,2.4,0,0,1,.75,1.013l-0.75.759h-0.76c-1.17,0-1.6-.419-1.26-1.266h0Zm-22.4,2.278a1.87,1.87,0,0,1-1.39.506,1.121,1.121,0,0,1-1.13-.506V42.324a0.443,0.443,0,0,1,.5-0.506,2.35,2.35,0,0,1,1.51,0l0.51,0.506h0V42.83ZM1246.64,56.5q0.495,1.014-1.26,1.012h-0.75l-0.51-.506c-0.17-.336,0-0.672.51-1.013a1,1,0,0,1,.75-0.253,1.167,1.167,0,0,1,1.26.759h0Zm-30.96,85.05a1.115,1.115,0,0,1,1.51-.886,1.094,1.094,0,0,0,1.51-.633V105.352l-1.51-1.518a13.229,13.229,0,0,0,1.51-1.772V66.118a0.45,0.45,0,0,0-.51-0.506,4.25,4.25,0,0,0-3.52,0l-0.51.506v34.425a12.042,12.042,0,0,0,1.52,1.772,5.017,5.017,0,0,0-1.52,1.772v54.928l0.51,0.506a2.37,2.37,0,0,0,2.14,0q1.125-.5,1.89,1.013l-2.27,2.278h-1.13a1.414,1.414,0,0,0-1.14.759v3.038a2.34,2.34,0,0,0,1.14,1.265,1.275,1.275,0,0,1,.38,1.772,6.745,6.745,0,0,1,.75.886,6,6,0,0,0,.76.886v1.519a11.4,11.4,0,0,0-1.51,1.772v6.075a0.4,0.4,0,0,0,.25.379,0.422,0.422,0,0,1,.25.38h2.01a6.134,6.134,0,0,0,2.27-.506,27.769,27.769,0,0,1-.13-4.557c0.09-1.518.13-2.867,0.13-4.05a3.464,3.464,0,0,0-1.64-2.531,2.3,2.3,0,0,1-1.38-1.772l3.02-3.037v-5.442c0-1.772-.09-3.584-0.25-5.443,0-.842-0.26-1.012-0.76-0.506a1.382,1.382,0,0,0-.75.506,1.832,1.832,0,0,0,.12.76,0.939,0.939,0,0,1-.12.759,0.448,0.448,0,0,1-.51.506c-0.34.341-.67,0.17-1-0.506v-2.531c0.33-1.013.88-1.432,1.63-1.266a1.061,1.061,0,0,0,1.39-1.012,6,6,0,0,1-.76-0.886,6.745,6.745,0,0,0-.75-0.886v-4.556h0Zm91.38,79.481a12.121,12.121,0,0,1-1.76,1.519h-27.44a7.74,7.74,0,0,0-2.27.253l-0.5.507v1.139a1.429,1.429,0,0,0,1.01,1.139h25.17a9.005,9.005,0,0,0,3.02,0,6.2,6.2,0,0,1,3.02.253l1.26,1.265a2.074,2.074,0,0,1,.5-0.379,2.031,2.031,0,0,0,.51-0.38,2.586,2.586,0,0,1,2.26-.759l1.51,1.518h3.03a5.828,5.828,0,0,1,.88-0.759,8.276,8.276,0,0,1,.88-0.506,12.509,12.509,0,0,0,1.76,1.519,1.117,1.117,0,0,1,.88-0.127,0.576,0.576,0,0,0,.63-0.127,2.51,2.51,0,0,1,1.76-1.392,18.63,18.63,0,0,1,2.27-.126,0.651,0.651,0,0,0,.63-0.253,1.34,1.34,0,0,1,.63-0.507v-1.518a7.492,7.492,0,0,1,1.63-1.646,4.133,4.133,0,0,0,1.39-1.9,2.071,2.071,0,0,0,.25-0.76,15.734,15.734,0,0,0,2.01-2.4,13.089,13.089,0,0,1,1.51-1.9,5.228,5.228,0,0,0,2.02-.253l3.78-3.8v-3.037a5.455,5.455,0,0,0,1-1.266,2,2,0,0,0-.25-2.784l-2.52,2.531v2.025a1.562,1.562,0,0,1-1.76,1.772,7.74,7.74,0,0,0-2.27.253l-12.33,12.4h-7.55l-0.51-.506a5.362,5.362,0,0,1-1.26-1.013l-1.51,1.519h-1.51a12.121,12.121,0,0,1-1.76-1.519h0Zm-43.43,4.683a7.821,7.821,0,0,0,3.15-.379l0.5-.507q0.255-.759-0.75-0.759a3.2,3.2,0,0,1-.88-0.633c-0.25-.253-0.55-0.546-0.88-0.886h-1.51a5.3,5.3,0,0,1-1.51,1.266,1.372,1.372,0,0,1-.76-0.506,1.621,1.621,0,0,1,0-1.266c0.17-.506-0.17-0.759-1.01-0.759a5.183,5.183,0,0,1-1.26,1.012,8.944,8.944,0,0,1-.88-0.506,6.051,6.051,0,0,1-.88-0.76h-3.02l-1.51,1.519-1.51-1.519h-7.8a2.062,2.062,0,0,0-.76,1.266,0.726,0.726,0,0,0-.25.506,2.071,2.071,0,0,1-.25.76,0.448,0.448,0,0,1-.51.506,1.43,1.43,0,0,1-.5-0.759,1.446,1.446,0,0,1-.13-1.013,1.049,1.049,0,0,0-.37-1.012,1.214,1.214,0,0,0-1.14-.38,5.549,5.549,0,0,1-1.13.126h-16.87a9.7,9.7,0,0,0-1-.886,11.676,11.676,0,0,1-1.26-1.139c0.16,1.519-.25,2.152-1.26,1.9a1.5,1.5,0,0,0-2.01.886v2.4a3.857,3.857,0,0,0,.5,1.393q4.53,0,9.31.126c3.19,0.087,6.05.127,8.56,0.127s4.62-.04,6.3-0.127a11.04,11.04,0,0,0,3.02-.379c0.33-.337.67-0.673,1-1.013a1.931,1.931,0,0,1,1.77-.253l1.51,1.519a12.644,12.644,0,0,1,1.76-1.519h1.51l1.51,1.519h3.02a11.73,11.73,0,0,0,1.76-1.519,1.784,1.784,0,0,1,.76.126,1.66,1.66,0,0,0,.75.127,1.916,1.916,0,0,1,.76.633,6,6,0,0,0,.76.886h0A15.645,15.645,0,0,1,1263.63,225.713Zm64.58-201.361v0.759l4.03,4.05H1334c0.5,0.506,1.04,1.1,1.63,1.772s1.22,1.353,1.89,2.025a0.58,0.58,0,0,1,.13.633,1.955,1.955,0,0,0-.13.633l12.59,12.656V65.865c0,0.34.42,0.676,1.26,1.013a1.986,1.986,0,0,0,1.26-.253,8.426,8.426,0,0,0,1.26-1.013c0.33-.336.67-0.672,1-1.013V47.134q-12.075-11.64-23.66-23.794a1.435,1.435,0,0,0-1.51-.506,1.5,1.5,0,0,1-1.51,1.519h0Zm1.51-2.278c-0.5-.506-1.01-1.052-1.51-1.645s-1.01-1.139-1.51-1.645a5.233,5.233,0,0,0-.51-2.025,3.347,3.347,0,0,0-1.76-.253,12.693,12.693,0,0,0-1.76-1.519h-1.51l-1.51,1.519a6.652,6.652,0,0,0-.88-0.759c-0.25-.166-0.22-0.083.12,0.253q-2.01-1.264-2.64-.506a1.8,1.8,0,0,1-1.38.759,1.3,1.3,0,0,1-.63-0.506,1.463,1.463,0,0,0-.63-0.506,0.5,0.5,0,0,1-.38-0.127,0.529,0.529,0,0,0-.38-0.127h-13.09a0.529,0.529,0,0,0-.38.127,0.5,0.5,0,0,1-.38.127l-1,1.013a0.513,0.513,0,0,0-.38.127,0.512,0.512,0,0,1-.38.127h-8.56c-0.17,0-.25-0.04-0.25-0.127s-0.09-.127-0.25-0.127a1.3,1.3,0,0,1-.63-0.506,1.4,1.4,0,0,0-.63-0.506c-0.67.17-.97,0.467-0.88,0.886a7.463,7.463,0,0,1,.13,1.392,12.187,12.187,0,0,0,1.13,1.012,5.663,5.663,0,0,1,1.13,1.266h32.48a1.7,1.7,0,0,0,.75-0.127,0.915,0.915,0,0,1,.76.127,1.033,1.033,0,0,1,.75.253,15.848,15.848,0,0,0,2.02,2.152c0.67,0.593,1.42,1.309,2.26,2.152h0.76a1.5,1.5,0,0,0,1.51-1.519h0V22.074ZM1210.89,77l-1.51-1.519V73.965a6.5,6.5,0,0,1-.75-0.886,6.207,6.207,0,0,0-.76-0.886,1.429,1.429,0,0,1,.76-0.506,1.849,1.849,0,0,0,.75-0.253c1.01,0,1.51-.336,1.51-1.012V60.3a0.647,0.647,0,0,0-.25-0.633,1.344,1.344,0,0,1-.5-0.633,4.826,4.826,0,0,1-1.51-.127,1.576,1.576,0,0,1-.51-0.886c0.51-.506.97-1.012,1.39-1.519s0.88-1.013,1.38-1.519c-0.33-.336-0.67-0.672-1.01-1.013s-0.66-.672-1-1.013a1.042,1.042,0,0,0-.76-0.253,1.129,1.129,0,0,0-1.13.127,1.07,1.07,0,0,0-.63.886v40.5a1.431,1.431,0,0,0,.5.759,11.168,11.168,0,0,0,4.03-.253V77Zm34.74-62.016a3.545,3.545,0,0,0-1.51.253,1.78,1.78,0,0,0-.25,1.519,1.168,1.168,0,0,1-.75,1.266q-1.02.51-.51,1.012a1.167,1.167,0,0,0,1.26.759,44.283,44.283,0,0,1,5.79-.127c2.02,0.087,3.94.127,5.79,0.127,0.34-.336.63-0.633,0.88-0.886s0.55-.546.88-0.886h1.51a3.2,3.2,0,0,0,1.52,1.519h14.09a6.652,6.652,0,0,1,.88-0.759,5.616,5.616,0,0,0,.89-0.759h3.02l1.26-1.266a2.2,2.2,0,0,1,1-.253,2.221,2.221,0,0,0,1.01-.253c0.67-.166.59-0.589-0.25-1.266h-3.02a12.172,12.172,0,0,1-1.77,1.519h-1.51l-1.51-1.519h-1.51a6.1,6.1,0,0,1-.88.759,6.07,6.07,0,0,0-.88.759h-7.8l-1.51-1.519h-6.3a1.565,1.565,0,0,0-.5,1.139,2.622,2.622,0,0,1-.25,1.139c0,0.676-.34.846-1.01,0.506l-2.77-2.784h-5.29Zm109.26,58.219a1.117,1.117,0,0,0-1.26-1.266,8.693,8.693,0,0,1-1.76,1.772,6.931,6.931,0,0,0-1.76,2.025v7.088a0.712,0.712,0,0,0,.25.506,6.207,6.207,0,0,1,.76.886c0.16,0.253.33,0.55,0.5,0.886V88.14a9.421,9.421,0,0,0-1.51,1.772v2.531a1.422,1.422,0,0,0,1.01,1.013,1.54,1.54,0,0,0,2.01-.506,5.306,5.306,0,0,1-.75-0.886,6.207,6.207,0,0,0-.76-0.886,1.337,1.337,0,0,1,1.64-.759,1.318,1.318,0,0,0,1.63-.759V73.205ZM1217.31,206.476a0.719,0.719,0,0,1,.38-0.886,0.647,0.647,0,0,1,.88.253,2.4,2.4,0,0,0,.88.759l0.76-.759a33.4,33.4,0,0,0,.25-3.924v-3.67l-4.03-4.05-0.5.506a100.6,100.6,0,0,0-.38,11.264q0.12,5.447.38,11.265l0.5,0.506a5.931,5.931,0,0,1,1.13.126q0.63,0.13,1.14-1.139a6.073,6.073,0,0,0-.89-0.759,0.845,0.845,0,0,1-.37-0.759,5.211,5.211,0,0,0,1-1.266c0.17,0,.26-0.166.26-0.506a2.058,2.058,0,0,1,.5-1.519,8.828,8.828,0,0,0,1.01-1.266l-3.02-3.037h0A1.808,1.808,0,0,0,1217.31,206.476Zm-1.38-165.291a0.672,0.672,0,0,0,.25.38c1.67,0.506,2.52,0,2.52-1.519V34.73a13.432,13.432,0,0,0-1.51-1.772,9.229,9.229,0,0,0,1.76-1.772,4.567,4.567,0,0,1-.38-1.012,5.313,5.313,0,0,0-.38-1.012h-2.01a9.177,9.177,0,0,0-.88,1.012,9.535,9.535,0,0,1-.88,1.012,1.527,1.527,0,0,0,0,2.278l1,1.013a3.508,3.508,0,0,1,.26,1.519,6.213,6.213,0,0,0-.76.886,6,6,0,0,1-.76.886l1.52,1.519v1.519A0.765,0.765,0,0,1,1215.93,41.185Zm-0.25,147.445c0.66,0.677,1.29,1.353,1.88,2.025s1.22,1.353,1.89,2.025l0.5-.506a15.448,15.448,0,0,0,0-6.834,0.443,0.443,0,0,0-.5-0.506h-1.51a8.77,8.77,0,0,0-1.76-1.772,4.776,4.776,0,0,1-1.01.379c-0.34.087-.75,0.214-1.26,0.38l1.77,1.772h0v3.037Zm2.51-132.384a3.951,3.951,0,0,0-1.63-.633,1.851,1.851,0,0,1-1.39-1.139h-0.5a1.433,1.433,0,0,0-.51.759v4.809l3.53,3.544c0.33,0,.5-0.083.5-0.253a0.448,0.448,0,0,0,.51-0.506V56.752a0.45,0.45,0,0,0-.51-0.506h0ZM1348.6,168.634v-1.519a1.484,1.484,0,0,0-.76-1.266h-3.02a7.3,7.3,0,0,0-2.51,2.785,1.83,1.83,0,0,0,.12.759,1.831,1.831,0,0,1,.13.759c0.33,0.34.67,0.677,1,1.013a8.419,8.419,0,0,0,1.26,1.012,7.189,7.189,0,0,0,1.26-1.518h1.76a2.72,2.72,0,0,0,.76-2.025h0Zm5.03,3.543c0.84-.336,1.26-0.672,1.26-1.012v-7.594a0.446,0.446,0,0,0-.5-0.506c-0.34-.166-0.67,0-1.01.506v3.291a6.294,6.294,0,0,1-1.76.632,3.943,3.943,0,0,0-1.51.633V169.9a17.193,17.193,0,0,0,2.27,2.025,2.728,2.728,0,0,0,1.25.253h0ZM1228.26,25.112a1.152,1.152,0,0,0-1.26-.506,5.442,5.442,0,0,1-1.76,1.9,3.87,3.87,0,0,0-1.51,1.9c0.34,0.676.67,0.929,1.01,0.759a1.085,1.085,0,0,1,1.01,0,5.192,5.192,0,0,0,.88.759,6.652,6.652,0,0,1,.88.759,3.643,3.643,0,0,1,1.89,0,1.931,1.931,0,0,0,1.88-.759l-1.51-1.519V26.884a12.471,12.471,0,0,1-1.51-1.772h0Zm-11.07,23.794a11.458,11.458,0,0,1,1.51-1.772V45.615a2.413,2.413,0,0,0-2.02-1.013,1.774,1.774,0,0,1-1.76-1.266,1.212,1.212,0,0,0-.76,1.772,2.1,2.1,0,0,0,.76,1.266,4.872,4.872,0,0,1,.76,1.645,4.839,4.839,0,0,1-.76,1.645,0.443,0.443,0,0,0-.5.506,2.659,2.659,0,0,0,.88,1.519c0.41,0.34.88,0.676,1.38,1.013a7.858,7.858,0,0,0,2.27-.506l-1.76-1.772V48.905Zm133.68,49.359a2.457,2.457,0,0,0-.89,2.025c0.09,0.676.21,1.435,0.38,2.278a8.77,8.77,0,0,1,1.76,1.772,4.624,4.624,0,0,0,2.02,1.519,1.024,1.024,0,0,0,.63-1.013,1.391,1.391,0,0,1,.12-1.012,12.521,12.521,0,0,1-1.51-1.772,1.3,1.3,0,0,0,.63-0.507,2.172,2.172,0,0,1,.38-0.506,2,2,0,0,0-.25-2.784h-3.27Zm1.51,48.6a5.36,5.36,0,0,0,1.25-1.139,14.735,14.735,0,0,1,1.01-1.139,8.648,8.648,0,0,1,.13-1.519,3.157,3.157,0,0,0-.13-1.519,1.459,1.459,0,0,0-.5-0.759h-3.02a0.4,0.4,0,0,0-.38.253,1.408,1.408,0,0,1-.63.506v3.038Zm1.51-14.175h0.5a1.431,1.431,0,0,0,.5-0.76v-4.556a1.408,1.408,0,0,1-.63-0.506,0.639,0.639,0,0,0-.63-0.253,13.861,13.861,0,0,1-1.76-.127,1.857,1.857,0,0,0-1.76.886v1.519ZM1216.43,18.024c-0.5.506-.67,0.846-0.5,1.012a1.152,1.152,0,0,0,1.26.759,22.86,22.86,0,0,1,4.15-.127,22.2,22.2,0,0,0,4.15-.127,1.025,1.025,0,0,0,.76-0.253c0.33-.336.25-0.672-0.25-1.012a6.7,6.7,0,0,0-3.4-.127,5.666,5.666,0,0,1-3.15-.127q-0.51-.5-0.75-0.759c-0.17-.166-0.42-0.419-0.76-0.759Zm133.43,177.694a9.273,9.273,0,0,1-2.27.253,17.286,17.286,0,0,1-2.26,2.025,5.216,5.216,0,0,0,1.26,1.013,2.265,2.265,0,0,1,2.01.759,1.288,1.288,0,0,0,.5.633c0.17,0.087.26,0.043,0.26-.127a7.825,7.825,0,0,0,1.25-1.012c0.34-.337.67-0.673,1.01-1.013v-1.772A1.615,1.615,0,0,0,1349.86,195.718Zm0.25-38.728v1.265a1.478,1.478,0,0,0,.76,1.266h3.02a4.187,4.187,0,0,0,1-1.645,3.241,3.241,0,0,0-.75-1.392l-1.51-1.519h-1.76a2.271,2.271,0,0,0-.76,2.025h0ZM1232.04,16.505a3.144,3.144,0,0,0-.76,1.519,4.483,4.483,0,0,0,.76,1.772h2.26a1.025,1.025,0,0,0,.76-0.253,0.712,0.712,0,0,0,.5-0.253,0.743,0.743,0,0,1,.26-0.506,1.6,1.6,0,0,1-1.14-1.772,2.031,2.031,0,0,0-1.13-2.025Zm37.51,207.563a5.605,5.605,0,0,0,.88.759,6.6,6.6,0,0,1,.88.76h1.13a1.413,1.413,0,0,0,1.14-.76,5.22,5.22,0,0,1-1.26-1.139,4.393,4.393,0,0,0-1.76-1.139,12.008,12.008,0,0,0-2.77.253c-0.84,0-1.01.424-.51,1.266h2.27ZM1353.01,178a13.469,13.469,0,0,0-1.14,1.013c0.17,0.846.51,1.226,1.01,1.139a7.968,7.968,0,0,1,1.26-.127c0.33-.336.67-0.672,1.01-1.012s0.66-.673,1-1.013c-0.17-.842-0.46-1.222-0.88-1.139a5.632,5.632,0,0,1-1.13.127C1353.8,177.327,1353.42,177.663,1353.01,178ZM1218.44,21.821a1.847,1.847,0,0,0-1.38-.506,1.128,1.128,0,0,0-1.13.506v0.506a1.832,1.832,0,0,0,1.38.506,1.122,1.122,0,0,0,1.13-.506V21.821Zm125.38,179.466a0.45,0.45,0,0,0-.51-0.507c-0.34-.336-0.67-0.166-1,0.507v0.759a1.028,1.028,0,0,0,.5,1.266c0.67,0.34,1.01-.083,1.01-1.266v-0.759Zm-39.02-76.95a6.047,6.047,0,0,1-.76-0.886,6.207,6.207,0,0,0-.76-0.886,12.69,12.69,0,0,0,1.52-1.772,8.245,8.245,0,0,0-.51-2.025h-4.78a2.016,2.016,0,0,0-.25,3.037,1.162,1.162,0,0,1,.5,1.266,5.216,5.216,0,0,1-1.26,1.013v3.29c0.34,0.34.67,0.676,1.01,1.013s0.67,0.676,1.01,1.012a15.1,15.1,0,0,0,3.77,1.266,16.85,16.85,0,0,1-2.39,1.645c-0.76.423-1.38,0.8-1.89,1.139a2.92,2.92,0,0,1-1.26,3.038,0.527,0.527,0,0,1-.12.379,0.5,0.5,0,0,0-.13.38V152.18a0.491,0.491,0,0,0,.13.38,0.543,0.543,0,0,1,.12.38c1.01,0.846,1.51,1.479,1.51,1.9s-0.59,1.226-1.76,2.405v4.809a1.916,1.916,0,0,1,.76.633,5.306,5.306,0,0,0,.75.886l-1.51,1.519v1.519c0.34,0.34.63,0.632,0.88,0.885a3.516,3.516,0,0,1,.63.886,1.328,1.328,0,0,1-.25,1.772,2.5,2.5,0,0,0-1.01,1.519l2.77,2.784a2.07,2.07,0,0,1,.13,1.266,0.894,0.894,0,0,0,.88,1.013,17.5,17.5,0,0,1,2.27-2.025V124.337ZM1265.77,68.4v52.65a2.394,2.394,0,0,0,1.01.759,1.48,1.48,0,0,0,2.01-.759v-1.519a6,6,0,0,0,.76-0.886,1.914,1.914,0,0,1,.76-0.632V111.68a1.167,1.167,0,0,0-1.26-.759,3.482,3.482,0,0,1-1.51-.506,1.976,1.976,0,0,1-.26-1.266v-2.278a32.472,32.472,0,0,1,3.03-2.784v-1.772a6.6,6.6,0,0,0-1.52-1.519,6,6,0,0,0,.76-0.886,6.207,6.207,0,0,1,.76-0.886V91.177c-0.51-.506-1.01-0.969-1.52-1.392a4.606,4.606,0,0,1-1.25-1.9,1.261,1.261,0,0,1,1.25-.506c1.01-.166,1.52-0.589,1.52-1.266a17.56,17.56,0,0,1,.12-2.278,4.656,4.656,0,0,0-.38-2.278,4.564,4.564,0,0,1-1.26-2.151c0-.419.51-1.139,1.52-2.152a6.861,6.861,0,0,0,.12-3.417,6.415,6.415,0,0,1,.38-3.67,5.628,5.628,0,0,0,1.13-.127,5.928,5.928,0,0,1,1.13-.127h18.63a0.228,0.228,0,0,0,.26-0.253l0.25-.253a1.433,1.433,0,0,0-.51-0.759,9.82,9.82,0,0,0-1.63-.38,1.851,1.851,0,0,1-1.39-1.139,1.646,1.646,0,0,1-.75-0.126,1.782,1.782,0,0,0-.76-0.127h-20.39c-0.17,0-.25.043-0.25,0.127s-0.09.126-.25,0.126h0a1.291,1.291,0,0,0-.51,1.266h0Zm33.99,33.539a4.368,4.368,0,0,0,1.51,1.139h1.76a1.565,1.565,0,0,0,1.77-1.772V99.277a12.865,12.865,0,0,0-1.52-1.772,3.3,3.3,0,0,0,.63-0.759,1.463,1.463,0,0,1,.63-0.506,0.5,0.5,0,0,1,.13-0.38,0.531,0.531,0,0,0,.13-0.38V75.99a0.649,0.649,0,0,0-.26-0.633,1.345,1.345,0,0,1-.5-0.633h-1.51q-2.025-2.782,1.01-3.037a5.825,5.825,0,0,0,1.26-.759V67.637a1.114,1.114,0,0,0-1.14-.633c-0.42.087-.54,0.126-0.38,0.126a3.215,3.215,0,0,1-1.63-1.139,0.865,0.865,0,0,0-1.13-.38,2.656,2.656,0,0,1-2.77,1.266l-1.51-1.519h-0.76q-0.75-.5-1.26.506c-0.34.34-.17,0.676,0.5,1.013a1.483,1.483,0,0,1,.76,1.266c-0.34,1.353.25,1.942,1.76,1.772a1.477,1.477,0,0,1,1.26.759v29.869C1299,101.049,1299.42,101.516,1299.76,101.935Zm-29.45,42.905c0-.506-0.34-0.76-1.01-0.76a5.257,5.257,0,0,0-1.01-.379,2.2,2.2,0,0,1-1.01-.633c-0.5-.506-0.84-0.672-1-0.506a1.436,1.436,0,0,0-.51,1.518V173.7a1.723,1.723,0,0,0,1.77,1.772h2.26l1.26,1.266c0.17,0,.25.043,0.25,0.126s0.08,0.127.25,0.127c1.35,0,2.02-.59,2.02-1.772v-2.278a2.187,2.187,0,0,0-1.51-.76c-0.84.34-1.43,0-1.76-1.012v-9.113l0.75-.759q1.515-1.519,0-3.291a5.859,5.859,0,0,0-2.01-2.025,4.282,4.282,0,0,1-.26-1.772,12.633,12.633,0,0,0,1.52-1.771V144.84Zm7.04,27.337a2.185,2.185,0,0,0-.75,1.266c-0.34,1.353.25,2.025,1.76,2.025h11.58a6.328,6.328,0,0,1,1.51,1.519h0.76a1.281,1.281,0,0,0,1.26-.507,1.17,1.17,0,0,0-.51-1.265l-3.02-3.038h-12.59Zm-9.69-36.07a0.722,0.722,0,0,1,.88.38,0.645,0.645,0,0,1-.25.886,9.531,9.531,0,0,0-1.01.886,3.021,3.021,0,0,0,1.39,1.012,4.782,4.782,0,0,0,1.64-.759v-3.291l-1.52-1.519,1.26-1.265,0.26-.507v-1.518a0.229,0.229,0,0,0-.26-0.253,0.221,0.221,0,0,1-.25-0.254,3.485,3.485,0,0,1-1.51-.253,1.527,1.527,0,0,1-1.01-1.012,0.9,0.9,0,0,1-.12-0.76,0.915,0.915,0,0,0-.13-0.759l-0.5-.506a0.443,0.443,0,0,0-.5.506,1.19,1.19,0,0,0-.38,1.139,6.2,6.2,0,0,1,.12,1.139v6.581h0A5.129,5.129,0,0,0,1267.66,136.107Zm32.6-28.73a3.035,3.035,0,0,0-.12,1.519,2.125,2.125,0,0,1-.38,1.519l-0.5.506c-0.68.34-.85,0.676-0.51,1.013a1.4,1.4,0,0,0,.76.506h4.53a2.758,2.758,0,0,0,.76-2.025v-1.266a1.5,1.5,0,0,0-.76-1.265h-1.76a5.041,5.041,0,0,0-1.26-1.772,2.109,2.109,0,0,0-.76,1.265h0Zm3.78,9.872c0.5-.506.67-0.842,0.5-1.012a1.46,1.46,0,0,0-.5-0.76h-3.02a2.113,2.113,0,0,0-.76,1.266,0.45,0.45,0,0,1,.51.506h3.27Z"/>
</svg>
