<svg xmlns="http://www.w3.org/2000/svg" width="240" height="38" viewBox="0 0 240 38">
  <defs>
    <style>
      .cls-1 {
        fill: #fff;
        fill-rule: evenodd;
      }
    </style>
  </defs>
  <path id="_IC4D" data-name="##IC4D" class="cls-1" d="M9.64,22.708l0.965-7.237h5.282l-0.965,7.237H9.64ZM7.863,35.435l1.321-9.782h5.282l-1.321,9.782h3.047l1.32-9.782h4.825V22.708H17.97l0.914-7.237h4.622V12.527H19.341l1.27-9.533h-3l-1.32,9.533H11.012l1.27-9.533H9.336l-1.32,9.533H3.19v2.945H7.558L6.593,22.708H1.971v2.945H6.136l-1.32,9.782H7.863ZM59.57,34.169a0.07,0.07,0,0,0,.081.079,0.164,0.164,0,0,0,.121.04,13.765,13.765,0,0,0,2.095,0,0.165,0.165,0,0,0,.121-0.04,0.86,0.86,0,0,1,.2-0.158,1.175,1.175,0,0,1,.242.2h2.779l0.242-.238h0.242l0.362-.356V32.981a0.533,0.533,0,0,0-.1-0.139L65.814,32.7V32.467l0.242-.238v-0.99a0.332,0.332,0,0,0-.2-0.119,0.283,0.283,0,0,0-.181-0.02,0.922,0.922,0,0,1-.181.02l-0.161-.158,0.081-.079a0.465,0.465,0,0,1,.322-0.04,0.342,0.342,0,0,0,.282-0.04,0.16,0.16,0,0,0,.04-0.119V14.258a0.924,0.924,0,0,1-.242-0.356,0.933,0.933,0,0,1,.242-0.356q0.04-1.266.04-2.217a3,3,0,0,0-.081-1.029,0.223,0.223,0,0,0-.081-0.1,0.539,0.539,0,0,1-.121-0.1V9.587a0.3,0.3,0,0,0,.121-0.1,0.933,0.933,0,0,1,.121-0.139,1.875,1.875,0,0,1-.242-0.277V8.914a0.213,0.213,0,0,0-.121-0.158,0.572,0.572,0,0,1-.121.1,0.58,0.58,0,0,0-.121.1,0.472,0.472,0,0,1-.161-0.218,0.66,0.66,0,0,1,.161-0.257h0.242l0.362-.356A0.381,0.381,0,0,0,65.894,8a0.575,0.575,0,0,0-.242.04,0.3,0.3,0,0,0-.121.1,0.3,0.3,0,0,1-.121.1H64.927l-0.121-.119A0.432,0.432,0,0,1,64.726,8a0.215,0.215,0,0,1-.081.1,0.325,0.325,0,0,0-.081.059V8.519a0.182,0.182,0,0,1-.121.2L64.2,8.479a0.275,0.275,0,0,1-.181.02,0.118,0.118,0,0,0-.141.1,0.077,0.077,0,0,0,.04.119,0.265,0.265,0,0,1,.121.119,0.484,0.484,0,0,1-.221.158,0.754,0.754,0,0,1-.262-0.119,0.627,0.627,0,0,1,0-.317,0.273,0.273,0,0,0-.081-0.277,0.44,0.44,0,0,0-.342-0.02,0.244,0.244,0,0,1-.3-0.139,1.742,1.742,0,0,1,.262-0.277,0.8,0.8,0,0,0,.222-0.317,1.668,1.668,0,0,0-.081-0.277H62.712a0.323,0.323,0,0,0-.121.2,0.263,0.263,0,0,0-.02.178,0.423,0.423,0,0,1-.02.218q0,0.159-.242.158a0.237,0.237,0,0,1-.242-0.237V7.648a1.883,1.883,0,0,1-.242-0.277V6.421a1.915,1.915,0,0,1,.242-0.277V5.906a0.464,0.464,0,0,0-.342-0.178,0.455,0.455,0,0,1-.342-0.376,1.025,1.025,0,0,1-.141.594,1.111,1.111,0,0,1-.342.317,0.428,0.428,0,0,0-.282.02,0.231,0.231,0,0,1-.282-0.1,0.2,0.2,0,0,1,.242-0.158,0.2,0.2,0,0,0,.242-0.119L60.3,5.392a0.558,0.558,0,0,0,0-.416,0.371,0.371,0,0,1,.121-0.416A2.013,2.013,0,0,1,60.7,4.8L60.94,4.56H61.1a0.221,0.221,0,0,0,.2-0.238q0.08-.2-0.161-0.237a0.461,0.461,0,0,1-.081.119l-0.121.119c-0.188,0-.383-0.006-0.584-0.02a3.383,3.383,0,0,0-.624.02,0.378,0.378,0,0,0-.161.119V4.679a0.186,0.186,0,0,0,.2.119,0.334,0.334,0,0,1,.242.079l0.04,0.079a0.338,0.338,0,0,1-.282.1,0.169,0.169,0,0,0-.161.059,0.3,0.3,0,0,0,.081.435c0.081,0.079.107,0.132,0.081,0.158l-0.2.2v7.6a0.646,0.646,0,0,1-.02.158,0.161,0.161,0,0,0,.06.158,0.191,0.191,0,0,0,.181.059,0.2,0.2,0,0,1,.181.059,0.071,0.071,0,0,1,.081.079l-0.04.04a0.035,0.035,0,0,1-.04.04,1.024,1.024,0,0,1-.4.119h0v19.95Zm3.142-4.037a0.735,0.735,0,0,1,.121.257,0.477,0.477,0,0,1-.161.218H62.309q-0.121.08-.2-0.079c-0.054-.053-0.027-0.105.081-0.158a0.986,0.986,0,0,1,.141-0.119,0.934,0.934,0,0,0,.141-0.119h0.242Zm1.611,0.495a0.729,0.729,0,0,1-.121.257,0.9,0.9,0,0,1-.121-0.139,1.023,1.023,0,0,0-.121-0.138H63.437l-0.081-.079q-0.081-.079.121-0.158H64.2A0.734,0.734,0,0,1,64.323,30.626ZM60.94,24.233c0.081,0.053.107,0.106,0.081,0.158l-0.081.079H60.456a0.155,0.155,0,0,1-.121-0.158,0.113,0.113,0,0,1,.061-0.04,0.113,0.113,0,0,0,.06-0.04H60.94ZM64.806,9.825a1.057,1.057,0,0,0,.02.218c0.013,0.066-.047.112-0.181,0.139a2.811,2.811,0,0,0-.322-0.356,0.305,0.305,0,0,1,.483,0h0Zm-3.5,2.83a0.291,0.291,0,0,1-.081.218H61.141a0.177,0.177,0,0,1-.081-0.178,0.291,0.291,0,0,1,.081-0.218h0.081A0.18,0.18,0,0,1,61.3,12.655Zm5.518,14.666a0.217,0.217,0,0,0-.161-0.119,0.319,0.319,0,0,0-.081.238v7.244a4.038,4.038,0,0,1-.4.356H62.229a0.115,0.115,0,0,1-.08-0.04l-0.2-.2a1.919,1.919,0,0,1-.282.237h-0.2a1.888,1.888,0,0,1-.282-0.237,0.354,0.354,0,0,0-.121.317c0,0.158-.094.212-0.282,0.158a0.186,0.186,0,0,1-.2-0.119l0.242-.238a0.44,0.44,0,0,1-.121-0.079,0.12,0.12,0,0,0-.081-0.04H59.006a0.08,0.08,0,0,1-.06-0.02,0.085,0.085,0,0,0-.06-0.02,0.216,0.216,0,0,1-.081-0.119V32.981a2.361,2.361,0,0,0,.282-0.317,1.782,1.782,0,0,1-.04-0.356V31.952l-0.04-.04a0.035,0.035,0,0,1-.04-0.039,2.554,2.554,0,0,1-.322-0.02,0.41,0.41,0,0,0-.282.059,0.08,0.08,0,0,1-.02.059,0.079,0.079,0,0,0-.02.059v3.325a0.111,0.111,0,0,0,.04.079,0.461,0.461,0,0,1,.081.119h4.249q2.115,0,4.25-.04c0.026,0,.04-0.007.04-0.02s0.013-.02.04-0.02a0.936,0.936,0,0,0,.06-0.435c-0.014-.158-0.02-0.3-0.02-0.435a1.429,1.429,0,0,0,0-.475,0.952,0.952,0,0,1,.04-0.475,0.217,0.217,0,0,0,.1-0.079,0.218,0.218,0,0,1,.1-0.079,0.967,0.967,0,0,0-.121-0.2,0.353,0.353,0,0,1-.121-0.317,0.989,0.989,0,0,0,.121-0.139A0.933,0.933,0,0,1,67.3,32.7V32.229a0.9,0.9,0,0,1-.121-0.139,1.018,1.018,0,0,0-.121-0.139v-1.7l0.242-.238a0.9,0.9,0,0,1-.121-0.139,1.161,1.161,0,0,1-.081-0.139V29.26a0.622,0.622,0,0,0,.121-0.158,0.613,0.613,0,0,1,.121-0.158,0.471,0.471,0,0,1-.02-0.238,0.321,0.321,0,0,0-.061-0.238L67.1,28.31V27.558a1.905,1.905,0,0,1-.282-0.238h0Zm0.081-.4c0.107,0,.161-0.04.161-0.119V15.248l-0.242-.237a1.451,1.451,0,0,0,.242-0.277v-3.84a1.2,1.2,0,0,0-.04-0.356l-0.081-.079-0.362.356v0.238a1.915,1.915,0,0,0-.242.277v9.342l0.242,0.238-0.242.238v0.237a1.01,1.01,0,0,1,.121.139,1.421,1.421,0,0,1,.081.139v0.752a0.693,0.693,0,0,0-.242.337,0.841,0.841,0,0,0,.282.376v1.94l-0.081.079a0.215,0.215,0,0,1-.081.1,0.214,0.214,0,0,0-.081.1v0.475a2,2,0,0,1,.242.277v0.713h0a0.24,0.24,0,0,0,.322.119h0Zm-8.58,3.563v0.871a0.22,0.22,0,0,0,.04.178,1.558,1.558,0,0,0,.282.059,1.941,1.941,0,0,0,.4-0.356V18.692l-0.362-.356H58.4a2.8,2.8,0,0,0-.121.317l0.141,0.139,0.141,0.138a1.915,1.915,0,0,0-.242.277V30.487ZM59.107,3.155a4.132,4.132,0,0,1,.342-0.3L59.49,2.9a0.225,0.225,0,0,1,.1.079,0.21,0.21,0,0,0,.1.079H60.94a0.3,0.3,0,0,0,.121-0.1,0.933,0.933,0,0,1,.121-0.139,0.29,0.29,0,0,1,.121.02,0.143,0.143,0,0,0,.121-0.02,0.226,0.226,0,0,0,.121-0.079c0-.105-0.04-0.158-0.121-0.158H60.456a1.974,1.974,0,0,0-.282.237l-0.2-.2q-0.524-.039-0.806-0.04H58.744a0.515,0.515,0,0,0-.222.04,1.511,1.511,0,0,1-.2.079V3.214l0.242,0.237a0.933,0.933,0,0,0-.121.139,0.3,0.3,0,0,1-.121.1,0.221,0.221,0,0,0,.06.3,0.3,0.3,0,0,1,.141.257,0.315,0.315,0,0,1-.081.059,0.214,0.214,0,0,0-.081.1,0.159,0.159,0,0,0-.04.119v6.492a0.111,0.111,0,0,0,.04.079,0.486,0.486,0,0,1,.081.119,0.352,0.352,0,0,1,.3-0.02,0.21,0.21,0,0,0,.262-0.1c0.026,0,.04-0.026.04-0.079V8.439a0.162,0.162,0,0,0-.04-0.119l-0.2-.2V7.054a0.276,0.276,0,0,0-.02-0.119,0.166,0.166,0,0,1-.02-0.079,0.833,0.833,0,0,1-.161-0.2,0.538,0.538,0,0,1-.04-0.237A1.958,1.958,0,0,0,58.8,6.144V3.452Zm-0.121,10.47a0.259,0.259,0,0,0,.06-0.158,2.876,2.876,0,0,0,.02-0.574c-0.014-.171-0.02-0.349-0.02-0.534a0.162,0.162,0,0,0-.04-0.119l-0.161-.158a1.06,1.06,0,0,1,.2-0.277,0.348,0.348,0,0,0-.081-0.059,0.3,0.3,0,0,1-.081-0.059,0.148,0.148,0,0,0-.121-0.02,0.143,0.143,0,0,1-.121-0.02,0.423,0.423,0,0,1-.161-0.2l-0.161.158v5.621L58.4,17.306a1.254,1.254,0,0,0,.3.04,0.684,0.684,0,0,0,.3-0.079l0.04-.079V14.021a1.57,1.57,0,0,1-.2-0.237h0A1.462,1.462,0,0,0,58.986,13.625Zm6.1-6.868a0.147,0.147,0,0,0-.121.02,0.156,0.156,0,0,0-.121.158,0.222,0.222,0,0,0,.121.079h0.121c0.081-.053.147-0.026,0.2,0.079s-0.027.158-.242,0.158a0.166,0.166,0,0,0-.121.04c-0.081.053-.094,0.106-0.04,0.158a0.424,0.424,0,0,1,.2.4,0.157,0.157,0,0,0,.04.119,0.051,0.051,0,0,0,.081,0,0.928,0.928,0,0,1,.181-0.139,1.122,1.122,0,0,1,.222-0.1,0.3,0.3,0,0,0,.282-0.139,1.03,1.03,0,0,1,.161-0.218V5.906a0.071,0.071,0,0,0-.081-0.079q-0.081-.079-0.161.079V6.144a4.13,4.13,0,0,1-.3.336l-0.3.3A0.276,0.276,0,0,1,65.088,6.757Zm1.934,2.157a0.549,0.549,0,0,0,.04-0.237V6.737a0.323,0.323,0,0,0-.121-0.2,0.911,0.911,0,0,1-.181-0.02,0.118,0.118,0,0,0-.141.1,0.077,0.077,0,0,0,.04.119,0.265,0.265,0,0,1,.121.119,0.34,0.34,0,0,1-.121.2,0.226,0.226,0,0,0-.081.158V7.371a1.915,1.915,0,0,0-.242.277V8.321a0.2,0.2,0,0,0,.242.158,0.2,0.2,0,0,1,.242.158V8.994a0.207,0.207,0,0,0,.2-0.079h0ZM65.491,4.56h-0.2a0.237,0.237,0,0,0-.2.119V4.917l-0.282.277a0.652,0.652,0,0,1,.262.237,0.308,0.308,0,0,0,.342.119,1.37,1.37,0,0,0,.4-0.4V4.679a0.366,0.366,0,0,0-.322-0.119h0Zm0.967,4.433-0.081.079a1.665,1.665,0,0,0-.06.475,0.3,0.3,0,0,0,.141.158H66.78a0.311,0.311,0,0,0,.242-0.059,0.662,0.662,0,0,0,.04-0.3L66.7,8.994H66.458Zm0.161-5.086a0.1,0.1,0,0,0-.04.1,0.409,0.409,0,0,0,0,.356,0.1,0.1,0,0,0,.04.1,0.222,0.222,0,0,1,.081.1h0.242a0.288,0.288,0,0,0,.081-0.4A2.824,2.824,0,0,0,66.7,3.808,0.215,0.215,0,0,1,66.619,3.907Zm-4.35.495a2.808,2.808,0,0,0-.322-0.356L61.584,4.4a0.257,0.257,0,0,1,.06.1,0.069,0.069,0,0,0,.061.059h0.483c0.081-.079.107-0.132,0.081-0.158h0Zm2.417,1.86c-0.081.079-.108,0.132-0.081,0.158a0.114,0.114,0,0,1,.04.059,0.106,0.106,0,0,0,.04.059h0.121q0.322,0,.242-0.158a0.274,0.274,0,0,0-.242-0.119H64.686Zm37.339,18.05a0.31,0.31,0,0,1,.02.2,0.192,0.192,0,0,0,.141.2h0.182a0.23,0.23,0,0,0,.181-0.158v-0.91a0.092,0.092,0,0,0-.06-0.1,0.24,0.24,0,0,1-.1-0.059,0.463,0.463,0,0,0-.2-0.04c-0.08-.053-0.154-0.105-0.221-0.158a1.994,1.994,0,0,1-.181-0.158V22.848a2.931,2.931,0,0,0,.322-0.119,0.6,0.6,0,0,0,.161.119,0.639,0.639,0,0,1,.161.119l0.081-.04a0.079,0.079,0,0,1,.02-0.059,0.081,0.081,0,0,0,.02-0.059,3.32,3.32,0,0,1,0-.732,2.267,2.267,0,0,0-.04-0.732c-0.054-.105-0.121-0.132-0.2-0.079a0.892,0.892,0,0,1-.121.238c-0.027.027-.12,0.106-0.281,0.238a0.722,0.722,0,0,1-.121-0.257,0.472,0.472,0,0,1,.161-0.218h0.362V21.146a0.947,0.947,0,0,0,.121-0.139,0.985,0.985,0,0,1,.121-0.139V20.631a0.117,0.117,0,0,0-.06-0.04,0.111,0.111,0,0,1-.061-0.04,0.662,0.662,0,0,1-.161-0.257,0.668,0.668,0,0,1,.161-0.257,0.722,0.722,0,0,0,.121-0.257,0.666,0.666,0,0,0-.161-0.257h-0.242a2.891,2.891,0,0,1-.121-0.317l0.282-.277V18.217a0.947,0.947,0,0,0,.121-0.139,0.979,0.979,0,0,1,.121-0.139V17.464a0.215,0.215,0,0,0-.262-0.119,0.215,0.215,0,0,1-.262-0.158,0.538,0.538,0,0,0,.041-0.238,1.941,1.941,0,0,0,.241-0.277,0.224,0.224,0,0,0,.121-0.079,0.379,0.379,0,0,0,0-.515,0.294,0.294,0,0,1,0-.475l0.121-.119V14.5l-0.242-.237,0.242-.238V12.794a0.953,0.953,0,0,1-.242-0.317,0.342,0.342,0,0,1-.04-0.158,0.227,0.227,0,0,0-.081-0.158h-0.241a0.237,0.237,0,0,1-.141-0.3,0.344,0.344,0,0,0-.061-0.337,0.225,0.225,0,0,0-.08-0.1,0.212,0.212,0,0,1-.081-0.1q0.041-.2.363-0.119l0.443,0.435h0.04l0.04-.04a0.071,0.071,0,0,0,.081-0.079V11.092a0.226,0.226,0,0,0-.181-0.119,0.4,0.4,0,0,1-.182-0.04c-0.107,0-.161-0.092-0.161-0.277a0.223,0.223,0,0,1,.242-0.2h0.161q0.16-.079.081-0.158l-0.081-.079a2.847,2.847,0,0,0-.523-0.04l-0.363-.356,0.242-.238a0.219,0.219,0,0,0-.081-0.1,0.289,0.289,0,0,1-.08-0.059,0.1,0.1,0,0,1-.041-0.059,0.116,0.116,0,0,0-.04-0.059V9.073a0.117,0.117,0,0,0-.06-0.04,0.111,0.111,0,0,1-.061-0.04l-0.08-.04q-0.444-.039-0.162-0.475l0.242,0.237h0.624a5.21,5.21,0,0,1,.625.04,0.232,0.232,0,0,1,.121.079V9.35a1.034,1.034,0,0,0-.242.237,0.61,0.61,0,0,0,.02.158,1.069,1.069,0,0,1,.02.238,0.825,0.825,0,0,1,.5,0,0.414,0.414,0,0,0,.463-0.158V9.469c-0.269-.053-0.349-0.184-0.242-0.4a0.219,0.219,0,0,1,.081-0.1,0.321,0.321,0,0,0,.08-0.059,0.109,0.109,0,0,0,.041-0.059,0.11,0.11,0,0,1,.04-0.059V8.242h-0.121a1.766,1.766,0,0,1-.282-0.257c-0.08-.092-0.161-0.178-0.241-0.257h-0.766a1.38,1.38,0,0,1-.121-0.356l-0.382-.376-0.383-.376a1.95,1.95,0,0,0,.04-0.376,1.883,1.883,0,0,1,.041-0.376c0-.105.066-0.132,0.2-0.079V5.273a1.086,1.086,0,0,0-.222-0.158q-0.141-.079-0.261-0.158a1.177,1.177,0,0,1-.041-0.2,2.563,2.563,0,0,1-.322-0.376c-0.08-.119-0.161-0.231-0.242-0.336l-0.4.4V4.679a1.266,1.266,0,0,1-.444.158l-0.262.257a2.822,2.822,0,0,0-.262.3,0.21,0.21,0,0,0-.06.2,0.192,0.192,0,0,1-.141.2H98.763l-2.7,2.652V11.8a0.866,0.866,0,0,1,.161.2c0.026,0,.04.027,0.04,0.079a0.852,0.852,0,0,1-.2.158,2.069,2.069,0,0,0-.04.416,1.081,1.081,0,0,0,.081.416,0.208,0.208,0,0,0,.081.1,0.222,0.222,0,0,1,.081.1,0.538,0.538,0,0,0,.04.238l-0.282.277V14.5l0.282,0.277v5.858a1.023,1.023,0,0,1,.121.139,1.442,1.442,0,0,1,.081.139,1.056,1.056,0,0,0-.2.277v2.1a0.111,0.111,0,0,0,.04.079,0.484,0.484,0,0,1,.081.119h0.242a0.189,0.189,0,0,0,.1-0.2,0.315,0.315,0,0,1,.06-0.238,2,2,0,0,0,.3-0.277,1.418,1.418,0,0,1,.342-0.277h0.363a0.44,0.44,0,0,1,.322.2,0.227,0.227,0,0,0,.2.04,1.161,1.161,0,0,0,.443-0.4,0.354,0.354,0,0,0-.121-0.317,0.179,0.179,0,0,1-.081-0.2,0.207,0.207,0,0,1,.2-0.079,0.275,0.275,0,0,0,.181.02,0.958,0.958,0,0,1,.181-0.02,0.479,0.479,0,0,1,.121.356,0.345,0.345,0,0,1,.06.079,0.21,0.21,0,0,0,.1.079l0.242,0.237a0.737,0.737,0,0,0,.342,0,0.242,0.242,0,0,1,.262.119v0.238a0.505,0.505,0,0,1-.241.238,3.789,3.789,0,0,0,.3.336c0.094,0.093.194,0.192,0.3,0.3a0.176,0.176,0,0,0,.141-0.237,0.176,0.176,0,0,1,.141-0.238,0.853,0.853,0,0,0,.141.119,0.712,0.712,0,0,1,.1.079,0.54,0.54,0,0,0,.343.04,0.242,0.242,0,0,1,.262.119v0.633h0a0.232,0.232,0,0,1,.241.079h0Zm-1.832-11.835c0.04,0,.06.014,0.06,0.04a2.928,2.928,0,0,1,.04.475v0.515l-0.241.238a2.6,2.6,0,0,0-.242.277,0.186,0.186,0,0,1-.2.079,0.317,0.317,0,0,1-.081-0.238,0.114,0.114,0,0,0,.04-0.079,2.7,2.7,0,0,1,.2-0.277,0.262,0.262,0,0,0-.282-0.119,0.66,0.66,0,0,1-.322,0l-0.242-.237H98.682L98.6,13.071c-0.054-.105-0.027-0.158.081-0.158a0.513,0.513,0,0,1,.242-0.02,1.448,1.448,0,0,0,.242.02,2.017,2.017,0,0,1,.282.238,0.6,0.6,0,0,1,.3,0,0.239,0.239,0,0,0,.261-0.119,0.3,0.3,0,0,1-.06-0.079,0.345,0.345,0,0,0-.06-0.079,0.121,0.121,0,0,1-.06-0.119,1.359,1.359,0,0,1,.181-0.2,0.337,0.337,0,0,1,.081-0.059,0.321,0.321,0,0,0,.08-0.059,0.712,0.712,0,0,1-.543.119,0.728,0.728,0,0,0-.222-0.119,0.573,0.573,0,0,1-.121.1,0.58,0.58,0,0,0-.121.1l-0.3-.3a4.373,4.373,0,0,0-.342-0.3,2,2,0,0,1,.3-0.1,4.174,4.174,0,0,1,.544-0.02,0.8,0.8,0,0,1,.282-0.2q0.121-.119.121,0.079a2.121,2.121,0,0,1,.04.416v0.455h0A1.446,1.446,0,0,1,100.193,12.477Zm0.4,8.57a0.179,0.179,0,0,1,.182.1,0.854,0.854,0,0,0,.02.178,0.116,0.116,0,0,1-.1.139,0.08,0.08,0,0,1-.121-0.04,0.263,0.263,0,0,0-.121-0.119,0.439,0.439,0,0,0-.342-0.02,0.244,0.244,0,0,1-.3-0.138,2.894,2.894,0,0,0-.02-0.356,1.086,1.086,0,0,1,.02-0.356q0-.2.161-0.119a0.035,0.035,0,0,0,.04.04,0.036,0.036,0,0,1,.041.04v0.277c0.053,0.053.107,0.106,0.161,0.158a2.233,2.233,0,0,0,.241.2A0.153,0.153,0,0,0,100.6,21.047Zm0.5-2.078a0.3,0.3,0,0,1,.08-0.435,2.76,2.76,0,0,1,.323.356,0.344,0.344,0,0,1-.081.435,2.725,2.725,0,0,1-.322-0.356h0Zm-0.161,1.564a0.5,0.5,0,0,1-.242-0.02l-0.121-.119,0.363-.356c0.053,0.053.107,0.106,0.161,0.158s0.107,0.106.161,0.158,0.026,0.106-.081.158h0A1.507,1.507,0,0,0,100.938,20.532Zm-1.491-9.124a0.264,0.264,0,0,0-.1-0.059,0.069,0.069,0,0,1-.06-0.059V10.814c0.053-.105.107-0.132,0.161-0.079a2.012,2.012,0,0,0,.181.158q0.1,0.08.181,0.158Zm0.1-1.247a0.112,0.112,0,0,1,.06-0.139c0.081-.053.134-0.053,0.161,0a0.254,0.254,0,0,0,.121.119,0.217,0.217,0,0,0,.081.119l0.081,0.079a0.317,0.317,0,0,1-.524,0A0.269,0.269,0,0,0,99.548,10.161ZM98.823,13.9a0.3,0.3,0,0,1-.222-0.079c-0.054-.053-0.054-0.079,0-0.079a0.171,0.171,0,0,1,.181-0.119A0.3,0.3,0,0,1,99,13.7v0.119A0.183,0.183,0,0,1,98.823,13.9Zm3.122,0.435c-0.108.053-.161-0.013-0.161-0.2V14.021l0.08-.079a0.128,0.128,0,0,1,.161.079v0.119h0c0.054,0.106.027,0.172-.08,0.2h0Zm-0.766-4.631a0.333,0.333,0,0,1,0,.515,0.305,0.305,0,0,1,0-.515h0ZM98.36,8.677a0.289,0.289,0,0,1-.081-0.218,0.178,0.178,0,0,1,.081-0.178h0.121c0,0.027.006,0.04,0.02,0.04s0.02,0.014.02,0.04a0.366,0.366,0,0,1,0,.237,0.071,0.071,0,0,1-.081.079H98.36Zm3.182-2.533,0.725,0.713a0.61,0.61,0,0,0,.02.158,0.665,0.665,0,0,1,.02.158,0.354,0.354,0,0,0,.121.317h0.242a0.976,0.976,0,0,1,.141-0.119,0.95,0.95,0,0,0,.141-0.119,0.723,0.723,0,0,1,.282.079,0.7,0.7,0,0,1,.08.277,0.17,0.17,0,0,0,.081.139,1.636,1.636,0,0,1,.161.139V8.242h0.121L103.919,8a0.408,0.408,0,0,1,.14.416,0.883,0.883,0,0,0-.02.416l-0.241.238a2.64,2.64,0,0,0-.242.277V9.469h0.121c0.08,0.079.161,0.165,0.242,0.257a0.881,0.881,0,0,0,.281.218,0.946,0.946,0,0,0,.121-0.139,0.183,0.183,0,0,1,.161-0.059,0.212,0.212,0,0,0,.081.1,0.625,0.625,0,0,1,.121.1h4.672a0.094,0.094,0,0,1,.1.059,0.179,0.179,0,0,0,.1.1v0.475a1.049,1.049,0,0,1,.121.139,0.876,0.876,0,0,0,.12.138v3.8a0.183,0.183,0,0,0,.121.2q1.611,0.04,2.639.04h1.691q0.665,0,1.068-.02t0.765-.059a6.653,6.653,0,0,1-.02-0.91,6.992,6.992,0,0,0-.02-0.91,0.115,0.115,0,0,0-.061-0.04,0.11,0.11,0,0,1-.06-0.04H115.68a2.091,2.091,0,0,1-.161-0.178,2.329,2.329,0,0,0-.161-0.178c0-.132.061-0.178,0.181-0.139a0.194,0.194,0,0,0,.262-0.139l-0.242-.238V11.8a1.874,1.874,0,0,1-.241-0.277,0.519,0.519,0,0,1,.04-0.277,0.725,0.725,0,0,1,.282-0.079,2,2,0,0,1,.282.238,0.368,0.368,0,0,0,.121-0.158V8.677A0.164,0.164,0,0,0,116,8.558L115.841,8.4a1.194,1.194,0,0,1-.04-0.3,0.821,0.821,0,0,0-.04-0.257q-0.968-.95-1.913-1.9t-1.873-1.86q-0.645,0-1.33-.02t-1.349-.02q-0.665,0-1.229.02c-0.376.014-.684,0.02-0.926,0.02l-0.2.2a2.066,2.066,0,0,0-.282-0.237h-4.472c-0.08,0-.12.053-0.12,0.158l0.2,0.2a0.17,0.17,0,0,1-.161.158,0.447,0.447,0,0,1-.2-0.04,0.377,0.377,0,0,1-.141-0.119,0.177,0.177,0,0,0-.141-0.079,0.14,0.14,0,0,0-.081.139V4.639a2.578,2.578,0,0,0,.242.277l0.282,0.277a0.361,0.361,0,0,0-.242.218c-0.027.093-.054,0.178-0.081,0.257q0,0.119-.2.119h0V6.144ZM103.7,6.777a1.032,1.032,0,0,0-.222-0.2,1.658,1.658,0,0,0-.2-0.079l-0.242-.079V6.144l0.161-.079,0.162-.079a2.923,2.923,0,0,1,.362.336q0.16,0.178.363,0.376a0.749,0.749,0,0,0-.061.158,0.837,0.837,0,0,1-.06.158A1.513,1.513,0,0,1,103.7,6.777Zm4.35-2.236a0.094,0.094,0,0,1,.1.02,0.155,0.155,0,0,1,.121.158l-0.081.079h-0.564a1.154,1.154,0,0,0-.2-0.237c-0.081-.079-0.108-0.132-0.081-0.158a0.187,0.187,0,0,1,.2-0.119h0.121a1.031,1.031,0,0,1,.12.139,0.947,0.947,0,0,0,.121.139h0A0.439,0.439,0,0,0,108.047,4.54Zm-3.424,1.524a2.381,2.381,0,0,0-.181.158c-0.08-.079-0.121-0.105-0.121-0.079a0.54,0.54,0,0,1-.04-0.237l0.363-.356a0.288,0.288,0,0,0,.08.059,0.338,0.338,0,0,1,.081.059V5.906A2.157,2.157,0,0,1,104.623,6.064Zm1.914,0.594a0.157,0.157,0,0,1,.161-0.119L107.06,6.9a0.217,0.217,0,0,0-.02.158,0.165,0.165,0,0,1-.06.158,0.116,0.116,0,0,1-.161-0.04,0.268,0.268,0,0,0-.121-0.119,0.071,0.071,0,0,0-.081-0.079,0.226,0.226,0,0,0-.08-0.119v-0.2Zm-1.893-1.346c-0.108-.132-0.189-0.224-0.242-0.277-0.054-.079-0.067-0.132-0.04-0.158a0.164,0.164,0,0,1,.2-0.079h0.121a0.321,0.321,0,0,1-.04.515h0Zm-1.732-.277a0.261,0.261,0,0,0,.2,0c0.08-.026.134,0.027,0.161,0.158a2.819,2.819,0,0,1-.362.317,0.293,0.293,0,0,1,0-.475h0Zm8.217-.277q-0.162-.079-0.081-0.2V4.442a0.158,0.158,0,0,1,.161-0.119,0.224,0.224,0,0,1,.081.119V4.56h0c0,0.185-.054.251-0.161,0.2h0Zm-4.633.2a0.3,0.3,0,0,1-.221.079,0.182,0.182,0,0,1-.181-0.079V4.877l0.08-.079h0.242a0.071,0.071,0,0,1,.08.079h0V4.956Zm8.822,3.266a0.289,0.289,0,0,1-.081.218h-0.08a0.167,0.167,0,0,1-.121-0.178,0.291,0.291,0,0,1,.08-0.218h0.121A0.179,0.179,0,0,1,115.318,8.222Zm-1.732,1.8a0.206,0.206,0,0,1,.2-0.079h0.121a0.155,0.155,0,0,1,.121.158l-0.081.079h-0.121c-0.188,0-.268-0.053-0.241-0.158h0Zm1.208,19a0.337,0.337,0,0,1,.081-0.059,0.321,0.321,0,0,0,.08-0.059l0.161,0.158c0.054,0.053.107,0.106,0.162,0.158a0.285,0.285,0,0,1-.121.158h-0.363c0,0.132.027,0.2,0.081,0.2,0.107,0.027.207,0.053,0.3,0.079a0.359,0.359,0,0,1,.221.2h0.363a0.289,0.289,0,0,0,.242-0.04,0.164,0.164,0,0,0,.06-0.158,0.61,0.61,0,0,1-.02-0.158,0.89,0.89,0,0,1-.121-0.139,1.247,1.247,0,0,1-.081-0.139l0.2-.2a0.442,0.442,0,0,0,0-.277,0.974,0.974,0,0,0-.242-0.119H115.68l-0.08-.079c-0.054-.053-0.041-0.079.04-0.079a0.369,0.369,0,0,1,.2-0.1,0.715,0.715,0,0,0,.2-0.059V24.867a0.224,0.224,0,0,0-.081-0.119,0.759,0.759,0,0,0-.2-0.059,1.012,1.012,0,0,1-.282-0.1q0.4-.316.564-0.435V22.61l-0.2-.2V22.333a1.672,1.672,0,0,1,.242-0.2,0.669,0.669,0,0,1-.04-0.4,0.686,0.686,0,0,0-.04-0.4,0.209,0.209,0,0,0-.2-0.079H109.92a0.11,0.11,0,0,0-.04.059,0.137,0.137,0,0,1-.081.059v0.95q0-.039.081,0.119a0.392,0.392,0,0,1,.161.4,1.926,1.926,0,0,0-.242.277v0.238l0.242,0.237a2.647,2.647,0,0,1,.242.277,0.559,0.559,0,0,1,.04.238l0.443,0.435a0.213,0.213,0,0,1,.061.2,0.19,0.19,0,0,0,.141.2h0.483a2.81,2.81,0,0,1,.322.356,0.467,0.467,0,0,1-.221.139,4.187,4.187,0,0,1-.665-0.02l-0.363-.356a4.213,4.213,0,0,1-.322-0.356,2.125,2.125,0,0,0-.141.2,0.265,0.265,0,0,0-.02.119v0.238a0.233,0.233,0,0,0,.161.2,0.912,0.912,0,0,0,.181-0.02,0.118,0.118,0,0,1,.141.1,0.188,0.188,0,0,1-.06.139l-0.141.139a0.179,0.179,0,0,0,.242.139,0.176,0.176,0,0,1,.241.1,0.2,0.2,0,0,1-.241.119,0.2,0.2,0,0,0-.242.158,0.346,0.346,0,0,0-.04.158,0.225,0.225,0,0,1-.081.158,1.085,1.085,0,0,1-.282-0.2,0.51,0.51,0,0,0-.121.218,0.742,0.742,0,0,0,.121.257c0.134,0,.282-0.006.443-0.02a0.808,0.808,0,0,0,.443-0.178,0.448,0.448,0,0,1,.162-0.238l0.161-.079a0.2,0.2,0,0,0,.141-0.059l0.141-.139a0.462,0.462,0,0,1,.221.178q0.1,0.139.423-.059c-0.027.027-.027,0.02,0-0.02a0.98,0.98,0,0,1,.121-0.139,0.222,0.222,0,0,1,.141.277,0.406,0.406,0,0,0-.02.277,0.639,0.639,0,0,0,.221.3,1.2,1.2,0,0,1,.262.257,0.26,0.26,0,0,1-.362.119l-0.725-.712a0.236,0.236,0,0,0-.141.3,0.363,0.363,0,0,1,.02.257l0.926,0.91h0.081a0.238,0.238,0,0,1,.2.119c0,0.079-.054.119-0.161,0.119h-0.443l-0.242-.237a1.621,1.621,0,0,0-.241-0.2,0.441,0.441,0,0,0-.343-0.02,0.244,0.244,0,0,1-.3-0.139,1.459,1.459,0,0,0,.242-0.277V27.281l-0.363-.356h-0.121v0.356a0.213,0.213,0,0,1-.261.119,0.215,0.215,0,0,0-.262.158,1.178,1.178,0,0,0,.04.356c0,0.132-.04.2-0.121,0.2a0.38,0.38,0,0,1-.161-0.119,0.07,0.07,0,0,1-.08-0.079,0.273,0.273,0,0,1-.121-0.02,0.148,0.148,0,0,0-.121.02c-0.161,0-.215.093-0.161,0.277a0.182,0.182,0,0,0,.121.2,0.09,0.09,0,0,0,.1.02,0.461,0.461,0,0,1,.141-0.02q0.16,0.08.081,0.158a0.071,0.071,0,0,1-.081.079h-0.6a0.2,0.2,0,0,0,.081.238,0.412,0.412,0,0,0,.3.04,0.594,0.594,0,0,1,.3,0,0.461,0.461,0,0,1,.2.04,0.873,0.873,0,0,1,.2.158,0.447,0.447,0,0,0,.2.04,0.157,0.157,0,0,1,.161.119,0.222,0.222,0,0,1-.08.119,1.906,1.906,0,0,0-.544,0,1.071,1.071,0,0,1-.5-0.04l-0.2-.2h-0.282a1.627,1.627,0,0,1-.2.238,1.577,1.577,0,0,0-.2.237h-0.564a0.974,0.974,0,0,0-.141-0.119,0.951,0.951,0,0,1-.141-0.119h-0.423a1.147,1.147,0,0,0-.423.079,3.952,3.952,0,0,0,.3.336,4.359,4.359,0,0,1,.3.337h1.53a3.51,3.51,0,0,1,.322.356,0.142,0.142,0,0,1-.161.139,1.309,1.309,0,0,0-.2-0.02,0.95,0.95,0,0,0-.363-0.238,0.775,0.775,0,0,0-.322.2,1.2,1.2,0,0,1-.483.059c-0.161-.013-0.336-0.02-0.524-0.02a1.032,1.032,0,0,0-.141-0.119,0.944,0.944,0,0,1-.141-0.119h-0.725a1.032,1.032,0,0,0-.141-0.119,0.944,0.944,0,0,1-.141-0.119,2.163,2.163,0,0,1-.483-0.04,0.106,0.106,0,0,1-.121-0.119l0.2-.2a1.523,1.523,0,0,0-.08-0.139,0.98,0.98,0,0,0-.121-0.138,0.925,0.925,0,0,1,.322-0.317c0.054-.053.107-0.026,0.161,0.079V29.5c0,0.079.067,0.119,0.2,0.119,0.187,0.053.282,0,.282-0.158a0.355,0.355,0,0,0,.04-0.158,0.223,0.223,0,0,1,.081-0.158,0.3,0.3,0,0,1,.181.158,0.172,0.172,0,0,0,.221.079V29.023a0.18,0.18,0,0,1,.242-0.139,0.18,0.18,0,0,0,.242-0.139l-0.6-.594h-0.524l-0.242.237H104.4l-0.04.04a0.036,0.036,0,0,1-.041.04,0.158,0.158,0,0,0,.041.119,0.289,0.289,0,0,0,.08.059,0.219,0.219,0,0,1,.081.1,0.768,0.768,0,0,1-.4.356,0.219,0.219,0,0,0-.081-0.1,0.206,0.206,0,0,1-.08-0.1,0.653,0.653,0,0,0-.3.218,2.059,2.059,0,0,1-.222.257h-0.242a0.277,0.277,0,0,0-.12.4l0.443,0.436a0.169,0.169,0,0,1-.222.158,0.215,0.215,0,0,0-.262.119v0.2a0.215,0.215,0,0,0,.262.158,0.215,0.215,0,0,1,.262.158V31.6h0.363l0.241,0.238h0.766a0.875,0.875,0,0,1,.12.238,0.859,0.859,0,0,1-.12.237h-0.282a0.537,0.537,0,0,1-.081-0.1,0.98,0.98,0,0,0-.121-0.139h-0.564a0.579,0.579,0,0,1-.08-0.1,1.049,1.049,0,0,0-.121-0.138h-0.121a0.371,0.371,0,0,1,0,.238,0.223,0.223,0,0,0,.081.237,2.22,2.22,0,0,1,.3.02,1.815,1.815,0,0,0,.261.02,2.754,2.754,0,0,1,.323.356l-0.363.356-0.523-.515a0.8,0.8,0,0,1-.162.059,0.852,0.852,0,0,0-.161.059v0.376a1.95,1.95,0,0,1-.04.376c0,0.079-.054.119-0.161,0.119a0.362,0.362,0,0,1-.161.04,0.232,0.232,0,0,0-.161.079V34.01c0,0.185.053,0.277,0.161,0.277h0.382a1.977,1.977,0,0,0,.383-0.04l0.081-.079-0.242-.237V33.694l0.363-.356a0.15,0.15,0,0,1,.14.218,0.188,0.188,0,0,0,.1.257,1.469,1.469,0,0,1,.282-0.237h0.121a0.938,0.938,0,0,0-.02-0.178,0.262,0.262,0,0,1,.02-0.178l0.121-.119a2.875,2.875,0,0,1,.362.317,0.113,0.113,0,0,0-.08.079c0,0.027-.027.04-0.081,0.04a1.056,1.056,0,0,1-.322.04v0.356l-0.242.237a0.972,0.972,0,0,0,.4.139,7.179,7.179,0,0,0,1.007-.059,0.219,0.219,0,0,1,.081-0.1,0.608,0.608,0,0,0,.121-0.1l0.241,0.238h1.491a0.226,0.226,0,0,0,.12-0.079,0.316,0.316,0,0,0,.021-0.2,0.19,0.19,0,0,1,.141-0.2,0.346,0.346,0,0,1,.12.2,1.3,1.3,0,0,0,.061.237,0.228,0.228,0,0,0,.181.04h3.384q0.443-.435.906-0.91t0.946-.91a1.874,1.874,0,0,1-.241-0.277V32.031a0.226,0.226,0,0,1,.08-0.158,0.1,0.1,0,0,1,.141.039,1.484,1.484,0,0,0,.141.158,0.18,0.18,0,0,0,.141-0.178,1.051,1.051,0,0,1-.02-0.218,2.813,2.813,0,0,1-.362-0.317h-0.242l-0.081-.079c-0.054-.105-0.027-0.158.081-0.158a2.2,2.2,0,0,1,.483-0.04c0.107,0.106.2,0.2,0.282,0.3a0.9,0.9,0,0,0,.282.218,0.57,0.57,0,0,0,.242-0.04q0.16-.079.081-0.2a0.318,0.318,0,0,1-.242-0.4l0.08-.079c0.054,0,.081.014,0.081,0.04a0.071,0.071,0,0,1,.081.079v0.356h0.12L115.036,31a0.711,0.711,0,0,1,.242-0.515,0.243,0.243,0,0,0-.121-0.356h-0.725a1.956,1.956,0,0,0-.282.238h-0.725c-0.161-.264-0.108-0.435.161-0.515a0.2,0.2,0,0,0,.2-0.2c0.054-.158.013-0.237-0.121-0.237a0.9,0.9,0,0,1-.141.119,1.032,1.032,0,0,0-.141.119h-0.725l-0.362.356a0.111,0.111,0,0,0,.04.079l0.081,0.079,0.12,0.119a0.878,0.878,0,0,1,.222.376,2.138,2.138,0,0,1,.02.3,1.371,1.371,0,0,1-.4.4,0.517,0.517,0,0,0-.282,0,0.26,0.26,0,0,1-.282-0.119,1.952,1.952,0,0,0,.242-0.277V30.487l0.161-.158a0.986,0.986,0,0,1,.181-0.2,0.287,0.287,0,0,1,.1.079l0.121,0.119c0.026,0.027,0,.014-0.081-0.04q-0.6-.276-0.483-0.475l0.081-.158a0.585,0.585,0,0,1,.121-0.158,0.807,0.807,0,0,0-.2-0.257c-0.08-.066-0.161-0.139-0.242-0.218a0.253,0.253,0,0,1,.4-0.079,1.172,1.172,0,0,1,.242.2,1.387,1.387,0,0,0,.443-0.04,0.255,0.255,0,0,0,.161-0.119,0.118,0.118,0,0,1,.161-0.04,0.224,0.224,0,0,1,.1.079,0.285,0.285,0,0,0,.06.079,1.255,1.255,0,0,0,.3.04,0.846,0.846,0,0,1,.262.04,2.545,2.545,0,0,1,.262.218l0.222,0.218,0.241-.237h0.121V29.023Zm-2.5,3.444-0.081.079c-0.054,0-.08-0.013-0.08-0.04a0.071,0.071,0,0,1-.081-0.079V32.071a0.959,0.959,0,0,0-.181.02,0.274,0.274,0,0,1-.181-0.02,0.106,0.106,0,0,1-.121-0.119,0.186,0.186,0,0,1,.2-0.119,0.165,0.165,0,0,1,.1.02,0.156,0.156,0,0,0,.1.02c0.107,0.053.134,0.119,0.08,0.2a0.32,0.32,0,0,1,.242.4h0Zm-2.739-2.474a2.627,2.627,0,0,0-.242-0.257,0.757,0.757,0,0,1,.262-0.119,0.487,0.487,0,0,1,.221.158v0.356h0.242a0.25,0.25,0,0,1,.081-0.238c0.107-.026.207-0.046,0.3-0.059a0.293,0.293,0,0,0,.221-0.178,1.474,1.474,0,0,1,.222.178,0.319,0.319,0,0,0,.3.059c0.026-.026.053-0.02,0.081,0.02a0.248,0.248,0,0,1,.04.139,0.234,0.234,0,0,1-.121.317h-0.242l-0.241-.238h-0.645a0.853,0.853,0,0,0,.02.178,0.267,0.267,0,0,1-.02.178,0.1,0.1,0,0,1-.161.079l-0.081-.079V30.131h0A0.572,0.572,0,0,1,109.558,29.993Zm3.826-7.739a1.567,1.567,0,0,1-.2.237,1.038,1.038,0,0,0-.2.277,2.9,2.9,0,0,1-.323-0.277h-0.483a0.288,0.288,0,0,1-.141-0.277,2.307,2.307,0,0,0,.02-0.277,0.372,0.372,0,0,1,.121-0.158,0.9,0.9,0,0,0,.141.119,1.166,1.166,0,0,0,.141.079h0.483a0.95,0.95,0,0,1,.363-0.238,0.761,0.761,0,0,1,.322.238,0.5,0.5,0,0,0,.363.02,0.394,0.394,0,0,1,.322.02l0.121-.059,0.121-.059a0.482,0.482,0,0,1,.221-0.158,0.689,0.689,0,0,1,.262.158v0.356a0.92,0.92,0,0,0,.181-0.02,0.282,0.282,0,0,1,.181.02l0.081,0.079,0.04,0.04c0,0.079-.054.119-0.161,0.119a0.567,0.567,0,0,1-.242-0.04,0.2,0.2,0,0,1-.08-0.2h-1.652Zm0.665,5.027a0.951,0.951,0,0,1-.141-0.119h-0.242l-0.282.277a0.852,0.852,0,0,0-.161-0.059q-0.081-.019-0.2-0.059l0.765-.752V26.054c-0.08-.079-0.155-0.158-0.221-0.237a1.056,1.056,0,0,0-.222-0.2c-0.054-.105-0.014-0.158.121-0.158a0.512,0.512,0,0,1,.242-0.02,1.227,1.227,0,0,0,.2.02,0.611,0.611,0,0,0,.161.119,0.64,0.64,0,0,1,.161.119h0.4l0.645,0.633a0.345,0.345,0,0,1-.2.119,1.479,1.479,0,0,0-.242.059,0.3,0.3,0,0,0-.04.218v0.238a0.077,0.077,0,0,0,.02.059,0.079,0.079,0,0,1,.02.059,0.308,0.308,0,0,0,.081.059,0.225,0.225,0,0,1,.081.1,0.04,0.04,0,1,1,0,.079,0.071,0.071,0,0,1-.081.079H114.19A1.038,1.038,0,0,0,114.049,27.281ZM106.416,33.3a0.918,0.918,0,0,0-.121.139,0.942,0.942,0,0,1-.121.139h-0.282a2.939,2.939,0,0,0-.121-0.317,0.988,0.988,0,0,1,.262-0.3A1.2,1.2,0,0,0,106.3,32.7l-0.242-.237V32.229a1.4,1.4,0,0,0-.282-0.277,2.876,2.876,0,0,0,.323-0.119,0.823,0.823,0,0,1,.322.218c0.08,0.093.161,0.178,0.242,0.257a0.227,0.227,0,0,0,.161.02,0.171,0.171,0,0,1,.161.059,0.318,0.318,0,0,1,.04.119,0.294,0.294,0,0,0,.04.119v0.237a0.081,0.081,0,0,1-.02.059,0.079,0.079,0,0,0-.02.059,2.121,2.121,0,0,1-.181.158,2.045,2.045,0,0,0-.181.158h-0.242Zm7.653-9.461a0.674,0.674,0,0,1-.262.158,0.681,0.681,0,0,1-.262-0.158V23.6a0.871,0.871,0,0,1-.12-0.138,1.049,1.049,0,0,0-.121-0.139,0.69,0.69,0,0,1,.08-0.317h1.048a1.174,1.174,0,0,1,.241.2,0.521,0.521,0,0,0,.141-0.1,0.55,0.55,0,0,1,.141-0.1h0.484a0.876,0.876,0,0,1,.12.238,0.571,0.571,0,0,1-.12.2,0.778,0.778,0,0,1-.282-0.2l-0.2.2a0.5,0.5,0,0,1-.342.04,0.759,0.759,0,0,0-.342,0,0.33,0.33,0,0,0-.2.119v0.238Zm0.081,4.79a2.332,2.332,0,0,0-.363-0.356c0.107-.105.215-0.2,0.322-0.3s0.228-.191.363-0.3a0.92,0.92,0,0,0,.181-0.02,0.447,0.447,0,0,1,.222.02,0.387,0.387,0,0,1,.161.119,0.562,0.562,0,0,0-.161.2,0.162,0.162,0,0,0-.061.158,0.163,0.163,0,0,1-.06.158,2.361,2.361,0,0,1-.282.317H114.15Zm-2.095-3.543a0.98,0.98,0,0,0-.121-0.139c-0.107-.053-0.134-0.105-0.08-0.158,0.053-.105.121-0.132,0.2-0.079h0.121l0.242,0.237h0.241a1.88,1.88,0,0,0,.282-0.237h0.484a0.233,0.233,0,0,1,.12.317c0,0.106-.04.158-0.12,0.158a3.465,3.465,0,0,1-.645.02q-0.323-.019-0.644-0.02A0.633,0.633,0,0,1,112.055,25.084Zm3.263,0.238a0.89,0.89,0,0,0,.121.139h0.241a0.294,0.294,0,0,1,0,.475H115.4c-0.08-.079-0.154-0.158-0.221-0.238a1.586,1.586,0,0,0-.262-0.238,0.679,0.679,0,0,1-.081-0.2,0.335,0.335,0,0,1,.242-0.079H115.2A1.049,1.049,0,0,1,115.318,25.322Zm-3.424-2.038a0.3,0.3,0,0,1,.4.079l-0.322.317a0.252,0.252,0,0,1-.4-0.079,0.908,0.908,0,0,1,.322-0.317h0Zm-6.445,8.827,0.363,0.356a2.787,2.787,0,0,0-.363.317,0.119,0.119,0,0,0-.08-0.04,0.115,0.115,0,0,1-.081-0.04V32.229a0.157,0.157,0,0,1,.161-0.119h0Zm4.854-.04a0.766,0.766,0,0,1,.262.119,0.3,0.3,0,0,0,0,.218c0.026,0.066-.027.113-0.161,0.139l-0.363-.356A0.758,0.758,0,0,1,110.3,32.071Zm0.383-.99a1.309,1.309,0,0,0-.2.02,0.142,0.142,0,0,1-.161-0.139l0.363-.356a0.294,0.294,0,0,1,0,.475h0Zm0.282-7.165c-0.135,0-.2-0.04-0.182-0.119a1.156,1.156,0,0,0,.02-0.2c0.134-.184.3-0.184,0.484,0a0.92,0.92,0,0,1-.322.317h0ZM105.006,31a0.254,0.254,0,0,1-.221.119A0.171,0.171,0,0,1,104.6,31c-0.054,0-.054-0.026,0-0.079a0.071,0.071,0,0,1,.081-0.079h0.242a0.036,0.036,0,0,1,.04.04,0.035,0.035,0,0,0,.04.04V31Zm3.666,3.048a0.293,0.293,0,0,1,0-.475,0.271,0.271,0,0,1,0,.475h0Zm0.12-1.108a0.348,0.348,0,0,1,.524,0,0.317,0.317,0,0,1-.524,0h0Zm2.337-8.273q-0.162-.079-0.081-0.2V24.352c0.054-.105.107-0.132,0.161-0.079a0.071,0.071,0,0,1,.081.079v0.119h0c0,0.185-.054.251-0.161,0.2h0Zm2.175,1.623a0.264,0.264,0,0,1-.484,0,0.306,0.306,0,0,1,.484,0h0Zm3.263,2.217a1.031,1.031,0,0,1,.12.139,0.947,0.947,0,0,0,.121.139V29.26l-0.241.238a1.879,1.879,0,0,0,.241.277,0.555,0.555,0,0,1-.121.1,0.212,0.212,0,0,0-.08.1,0.433,0.433,0,0,0-.04.2,0.108,0.108,0,0,0-.041.059,0.112,0.112,0,0,1-.04.059q-0.323.356-.685,0.693t-0.725.693a0.162,0.162,0,0,1-.04.119,1.3,1.3,0,0,1-.061.238,0.314,0.314,0,0,1-.221.04q-0.282.277-.5,0.475t-0.463.4a0.656,0.656,0,0,1-.04.317,0.676,0.676,0,0,1-.322.04,2.122,2.122,0,0,0-.161.178c-0.055.066-.108,0.139-0.162,0.218a0.214,0.214,0,0,0,.1.158,2.377,2.377,0,0,1,.181.158c0.054,0.079.107,0.053,0.161-.079a0.221,0.221,0,0,0,.021-0.158,0.161,0.161,0,0,1,.06-0.158,0.923,0.923,0,0,1,.423-0.059,0.909,0.909,0,0,0,.423-0.059l0.081-.079V32.7q0.242-.237.241,0.04a0.346,0.346,0,0,1,.04.158,0.225,0.225,0,0,0,.081.158c0.107-.105.215-0.2,0.322-0.3a1.936,1.936,0,0,0,.282-0.3,0.4,0.4,0,0,0,.04-0.238,2.1,2.1,0,0,1,.484-0.534,2.719,2.719,0,0,0,.443-0.416,2.827,2.827,0,0,0,.1-0.277,0.746,0.746,0,0,1,.06-0.158h0.282l0.363-.356a0.476,0.476,0,0,1,.241-0.475V29.735a0.305,0.305,0,0,0-.1-0.119,0.858,0.858,0,0,1-.141-0.119V28.271a1.408,1.408,0,0,0,.282-0.277,0.524,0.524,0,0,1-.041-0.238,1.09,1.09,0,0,1-.2-0.238v-0.99l0.2-.2a0.189,0.189,0,0,0-.06-0.139c-0.04-.04-0.088-0.085-0.141-0.139V25.579a1.122,1.122,0,0,1,.2-0.238,0.528,0.528,0,0,1,.041-0.238,1.427,1.427,0,0,0-.282-0.277V24.589a1.037,1.037,0,0,0-.2-0.119,0.119,0.119,0,0,0-.08-0.04,0.306,0.306,0,0,1-.121-0.04,0.071,0.071,0,0,1-.081-0.079,0.115,0.115,0,0,1,.061-0.04,0.113,0.113,0,0,0,.06-0.04,0.234,0.234,0,0,1,.161-0.02,0.167,0.167,0,0,0,.161-0.059,0.187,0.187,0,0,0,.061-0.178,0.854,0.854,0,0,1-.02-0.178,0.555,0.555,0,0,0,.04-0.237,0.975,0.975,0,0,1,.141-0.119,0.132,0.132,0,0,0,.06-0.119,1.615,1.615,0,0,0-.241-0.2c0-.158.006-0.317,0.02-0.475a1.941,1.941,0,0,0-.02-0.475,0.127,0.127,0,0,0-.121-0.158,0.839,0.839,0,0,1-.323-0.079,0.516,0.516,0,0,1-.04-0.277,2.627,2.627,0,0,1,.242-0.277l0.242-.237a0.946,0.946,0,0,1,.02-0.435,0.434,0.434,0,0,0-.141-0.436H111.33a0.222,0.222,0,0,0-.242.119,0.861,0.861,0,0,0-.04.277,0.224,0.224,0,0,1-.121.079l-0.08-.04a1.893,1.893,0,0,1-.061-0.218,2.133,2.133,0,0,0-.06-0.218h-1.289a1.919,1.919,0,0,1-.282.238,1.172,1.172,0,0,0-.242-0.2,0.555,0.555,0,0,1-.121.1,0.573,0.573,0,0,0-.12.1,0.137,0.137,0,0,1-.121-0.119c-0.081-.079-0.135-0.092-0.161-0.04a0.07,0.07,0,0,0-.081.079v3.8a0.2,0.2,0,0,0,.081.2,0.085,0.085,0,0,1,.06.02,0.079,0.079,0,0,0,.06.02h0.242a0.323,0.323,0,0,1,.222.04,1.472,1.472,0,0,1,.06.238,0.336,0.336,0,0,0,.121.2c0.081,0,.121-0.053.121-0.158q0.039-.791.04-1.544V21.7a0.083,0.083,0,0,0-.02-0.059,0.077,0.077,0,0,1-.02-0.059A0.071,0.071,0,0,1,109.2,21.5h-0.282a0.07,0.07,0,0,1-.08-0.079,0.213,0.213,0,0,1,.121-0.158H109.2l0.282-.277H112.7a0.942,0.942,0,0,1,.362-0.238,0.755,0.755,0,0,1,.322.238,0.654,0.654,0,0,0,.3-0.218,2.027,2.027,0,0,1,.222-0.257,0.322,0.322,0,0,1,.121.2,0.869,0.869,0,0,1,.06.158,0.341,0.341,0,0,0,.1.158h0.967a1.972,1.972,0,0,0,.282-0.238,2.07,2.07,0,0,1,.282.238,3.978,3.978,0,0,0,.4-0.02,1.1,1.1,0,0,1,.444.059h0v7.442Zm-13.535-13.26,0.242,0.238a1.957,1.957,0,0,1-.242.277v1.108a0.077,0.077,0,0,0,.021.059q0.02,0.02-.021-0.059a4.386,4.386,0,0,1,.343.376c0.094,0.119.194,0.244,0.3,0.376a1.579,1.579,0,0,0,.06-0.257q0.02-.138.041-0.614t0.02-1.445V12.556a1.889,1.889,0,0,1-.242-0.277l0.242-.238V11.289a0.827,0.827,0,0,1,.161-0.059,0.793,0.793,0,0,0,.161-0.059,2.063,2.063,0,0,1,.282.238,0.583,0.583,0,0,1,.242.04l0.141-.139,0.141-.139h0.241l0.242,0.238a0.975,0.975,0,0,1,.141-0.119,1.393,1.393,0,0,1,.141-0.079h0.725a0.406,0.406,0,0,1,.141.119,0.148,0.148,0,0,0,.181.04l0.081-.079,0.121-.119h1.208l0.081,0.079,0.08,0.079v1.465a0.938,0.938,0,0,1,.242.356,0.76,0.76,0,0,1-.2.317,0.16,0.16,0,0,0-.04.119V15.8a0.262,0.262,0,0,0,.02.119,0.279,0.279,0,0,1,.02.119,1.919,1.919,0,0,0,.282.238c0,0.027.027,0.04,0.081,0.04h1.732a1.065,1.065,0,0,1,.282-0.2c0.161,0,.328-0.006.5-0.02a1.769,1.769,0,0,1,.464.02,0.942,0.942,0,0,0,.362.238,0.958,0.958,0,0,0,.363-0.238h4.712c0.107,0,.162-0.105.162-0.317V15.723l-0.363-.356H115.2a1.956,1.956,0,0,0-.282.237,0.219,0.219,0,0,1-.081-0.119,0.4,0.4,0,0,0-.523,0,0.471,0.471,0,0,0-.1.059,0.447,0.447,0,0,1-.1.059h-0.443l-0.241-.237h-1.249a0.291,0.291,0,0,1-.1.119,1.03,1.03,0,0,0-.141.119h-0.241a2.07,2.07,0,0,0-.282-0.237h-1.249l-0.282.277a0.3,0.3,0,0,0-.282-0.02,0.227,0.227,0,0,1-.282-0.138V12.556l-0.282-.277v-1.7c0,0.027-.027-0.013-0.08-0.119a3.5,3.5,0,0,0-1.048,0,0.4,0.4,0,0,1-.725,0h-1.49a1.985,1.985,0,0,1-.282.238l-0.242-.238h-0.241a2.127,2.127,0,0,0-.162.178,0.218,0.218,0,0,1-.241.059,0.146,0.146,0,0,0-.2.079,0.157,0.157,0,0,1-.161.119A0.64,0.64,0,0,0,104,10.775a0.593,0.593,0,0,1-.161-0.119,0.3,0.3,0,0,1-.282.02,0.18,0.18,0,0,0-.242.138,0.609,0.609,0,0,0,.121.158l0.04,0.04q0.121,0.277-.02.356a0.23,0.23,0,0,0-.141.2,1.723,1.723,0,0,1-.02.277,1.36,1.36,0,0,0-.02.237,0.565,0.565,0,0,0-.242.435,1.991,1.991,0,0,1,.242.277,0.731,0.731,0,0,0,.04.238,0.9,0.9,0,0,1-.141.119,1.032,1.032,0,0,0-.141.119h0v1.979ZM99.105,4.62q0.221-.217.423-0.455,0.121-.119-0.121-0.119a0.128,0.128,0,0,1-.121-0.079,0.643,0.643,0,0,0-.121-0.158,0.323,0.323,0,0,0-.121.2c0,0.185-.054.277-0.161,0.277a0.405,0.405,0,0,0-.242.059c-0.054.04-.121,0.086-0.2,0.139a0.219,0.219,0,0,1-.2.059,0.2,0.2,0,0,0-.2.139,0.552,0.552,0,0,0,0,.3,0.305,0.305,0,0,1-.121.3h-0.6a0.232,0.232,0,0,0-.181.04q-0.021.04-.1,0.237a0.182,0.182,0,0,1-.121.2,0.458,0.458,0,0,0-.141.02,0.443,0.443,0,0,1-.141.02,0.524,0.524,0,0,1-.242.237,0.226,0.226,0,0,0-.081.317,1.1,1.1,0,0,1-.282.317,1.791,1.791,0,0,0-.322.317,2.034,2.034,0,0,1-.342.336,1.226,1.226,0,0,0-.3.336V24.629a2.859,2.859,0,0,1-.02.356,0.7,0.7,0,0,0,.061.356,0.07,0.07,0,0,0,.081.079l0.081-.079a0.439,0.439,0,0,0,.04-0.2,0.232,0.232,0,0,1,.121-0.2,0.875,0.875,0,0,0,.2-0.178,2.2,2.2,0,0,1,.161-0.178V10.577A1.879,1.879,0,0,1,95.54,10.3V10.062l0.242-.237V9.35a1.993,1.993,0,0,0-.242-0.277,0.58,0.58,0,0,1,.121-0.1,0.215,0.215,0,0,0,.081-0.1,1.305,1.305,0,0,0,.04-0.554,1.369,1.369,0,0,1,.081-0.633l1.168-1.148q0.6-.594,1.249-1.187a0.8,0.8,0,0,0,.06-0.158,0.757,0.757,0,0,1,.06-0.158h0.282Zm0.544-.574,0.362-.356a1.4,1.4,0,0,0,.222-0.178,1.513,1.513,0,0,1,.221-0.178h2.135a0.083,0.083,0,0,0,.061-0.02,0.082,0.082,0,0,1,.06-0.02,0.219,0.219,0,0,1,.081-0.1,0.607,0.607,0,0,0,.121-0.1,1.5,1.5,0,0,1,.281.237h8.177a2.077,2.077,0,0,0,.4-0.04,0.427,0.427,0,0,1,.322.04q0.564,0.515,1.028.99t0.906,0.91a1.346,1.346,0,0,1,.06.139,1,1,0,0,0,.061.139,0.392,0.392,0,0,0,.322.02,0.232,0.232,0,0,1,.282.1,0.24,0.24,0,0,1,.06.218,1.523,1.523,0,0,0-.02.218,0.861,0.861,0,0,0,.161.2H115.2c0.053,0.132.107,0.277,0.161,0.435q0.282,0.277.544,0.515t0.544,0.515h0.2a0.211,0.211,0,0,1,.161.257,0.207,0.207,0,0,0,.121.257l0.363-.356a0.649,0.649,0,0,0-.041-0.3,0.409,0.409,0,0,0-.241-0.1,1.237,1.237,0,0,1-.363-0.04l-0.08-.079,0.241-.237L116.164,6.5h-0.282a0.705,0.705,0,0,1-.061-0.2,0.749,0.749,0,0,0-.06-0.2l-1.168-1.148-0.04-.079a0.714,0.714,0,0,0-.081-0.277,0.432,0.432,0,0,0-.242-0.04c-0.215-.211-0.409-0.409-0.584-0.594s-0.369-.382-0.584-0.594a0.592,0.592,0,0,0-.08-0.237,0.73,0.73,0,0,0-.282-0.079,1.1,1.1,0,0,0-.141-0.119,0.858,0.858,0,0,1-.141-0.119h-0.242l-0.242-.237h-0.523l-0.242.237h-1.49a0.886,0.886,0,0,0-.383-0.237,0.731,0.731,0,0,0-.342.2,0.279,0.279,0,0,1-.222-0.139,0.232,0.232,0,0,0-.3-0.059l-0.242.237h-4.269l-0.242-.237h-1.249a0.949,0.949,0,0,1-.141.119,1.034,1.034,0,0,0-.141.119H99.931q-0.161.159-.121,0.2a0.266,0.266,0,0,1-.282.317,0.223,0.223,0,0,0-.242.119l0.242,0.238V4.046h0.121Zm5.72,30.756H104a0.168,0.168,0,0,0-.121.04,0.07,0.07,0,0,0-.08.079c-0.027.079,0.013,0.119,0.121,0.119a0.544,0.544,0,0,1,.14.1l0.141,0.139h0.242l0.121,0.119c0.026,0.027.067,0.066,0.121,0.119h1.49a0.989,0.989,0,0,1,.141-0.119,1.373,1.373,0,0,1,.141-0.079,0.847,0.847,0,0,0,.2.158,1.393,1.393,0,0,0,.8,0,0.219,0.219,0,0,0,.1-0.079,0.537,0.537,0,0,1,.1-0.119h0.483a0.9,0.9,0,0,0,.141.119,0.989,0.989,0,0,1,.141.119h3.746l0.242-.238H112.6a0.251,0.251,0,0,0,.181-0.079,0.471,0.471,0,0,0,.02-0.238,0.471,0.471,0,0,1,.02-0.237c0-.105.081-0.158,0.242-0.158a0.345,0.345,0,0,0,.2-0.119,0.52,0.52,0,0,0-.121-0.2c-0.054-.053-0.108-0.105-0.161-0.158a0.435,0.435,0,0,0-.242-0.04,0.738,0.738,0,0,0-.4.4l0.081,0.079a0.189,0.189,0,0,1,0,.277H110.2a2.011,2.011,0,0,0-.282.237l-0.241-.237h-3.746a1.956,1.956,0,0,0-.282.237,0.509,0.509,0,0,1-.1-0.119,0.336,0.336,0,0,0-.061-0.079,0.167,0.167,0,0,0-.12-0.04h0Zm-3.585-1.227v-0.4l0.241-.238-0.12-.119a0.109,0.109,0,0,1-.041-0.079,0.564,0.564,0,0,1-.04-0.356,0.254,0.254,0,0,0-.121-0.277,0.369,0.369,0,0,1-.443-0.436,0.071,0.071,0,0,0-.081-0.079,0.07,0.07,0,0,0-.08.079,0.544,0.544,0,0,0-.04.237l-0.161.158a0.829,0.829,0,0,1-.121-0.2,1.819,1.819,0,0,0-.121-0.257,0.227,0.227,0,0,0-.242.02,0.17,0.17,0,0,0-.141.1,0.1,0.1,0,0,1-.141.059,0.37,0.37,0,0,1-.08-0.317A1.861,1.861,0,0,1,99.81,31.2a0.552,0.552,0,0,0-.04-0.238c-0.054-.079-0.108-0.092-0.161-0.04a0.259,0.259,0,0,0-.121.119,0.117,0.117,0,0,1-.161.04c-0.161,0-.249.046-0.262,0.139a1.514,1.514,0,0,1-.061.257,3.426,3.426,0,0,1-.443.435,0.548,0.548,0,0,1-.04.238,2.817,2.817,0,0,0,.342.356,2.967,2.967,0,0,1,.342.356l0.4,0.4,0.4,0.4a3.006,3.006,0,0,1,.363.336,1.539,1.539,0,0,0,.362.3h1.209a0.112,0.112,0,0,0,.04-0.059,0.11,0.11,0,0,1,.04-0.059l-0.241-.237V33.575Zm-0.806.237a1.376,1.376,0,0,0-.322-0.04,0.157,0.157,0,0,1-.1-0.158,0.227,0.227,0,0,0-.02-0.158,0.321,0.321,0,0,1,.4-0.119l0.362,0.356A0.337,0.337,0,0,1,100.978,33.812Zm-1.692-1.346a0.317,0.317,0,0,1,.524,0,0.348,0.348,0,0,1-.524,0h0Zm-1.128-8.748-0.242-.475H97.675a0.934,0.934,0,0,1-.141.119,0.986,0.986,0,0,0-.141.119h-0.2l-0.886.871v0.475a0.611,0.611,0,0,0,.443.139,3.915,3.915,0,0,0,.443-0.059c0.081-.079.161-0.151,0.242-0.218a1.029,1.029,0,0,0,.2-0.218h0.322a1.569,1.569,0,0,0,.2.238,2.614,2.614,0,0,1,.242.277,3.626,3.626,0,0,1,.645-0.633,1.175,1.175,0,0,1,.02-0.2c0.013-.079-0.047-0.132-0.181-0.158l-0.081.079c-0.081.079-.135,0.106-0.161,0.079a0.182,0.182,0,0,1-.121-0.2,0.548,0.548,0,0,0,.04-0.238h-0.4Zm-0.785.495a0.7,0.7,0,0,1-.342-0.139l0.04-.04,0.04-.04A7.588,7.588,0,0,1,98.2,24l0.161,0.158h0A7.038,7.038,0,0,1,97.373,24.213ZM108.067,27.4c-0.054.132-.027,0.2,0.081,0.2a1.2,1.2,0,0,0,.483.059c0.161-.013.323-0.02,0.484-0.02a0.117,0.117,0,0,0,.08-0.04,0.484,0.484,0,0,1,.121-0.079v-1.94a0.707,0.707,0,0,1-.2-0.2,0.615,0.615,0,0,0-.242-0.2,0.457,0.457,0,0,0-.141.02,0.184,0.184,0,0,1-.141-0.02,0.247,0.247,0,0,0-.282.158v0.712a0.2,0.2,0,0,0,.242.119,0.2,0.2,0,0,1,.241.158,1.91,1.91,0,0,0-.241.277v0.435a0.9,0.9,0,0,0-.2.178,2.091,2.091,0,0,1-.161.178h-0.121Zm-4.632-4.433a0.506,0.506,0,0,0,.242.238,0.07,0.07,0,0,0,.08-0.079,18.653,18.653,0,0,0,.061-1.88,12.124,12.124,0,0,0-.1-1.405,2.956,2.956,0,0,0-.322-0.059,0.509,0.509,0,0,0-.363.139v0.475l0.282,0.277v0.238l0.242,0.238a2.854,2.854,0,0,1-.06.3,0.182,0.182,0,0,1-.182.059,0.248,0.248,0,0,0-.282.2v0.95a0.414,0.414,0,0,0,.021.139q0.02,0.059.06,0.178h0.322Zm0.584,4.117a0.172,0.172,0,0,1-.221.079,0.168,0.168,0,0,1-.081.218,0.3,0.3,0,0,0-.161.178,0.771,0.771,0,0,0,.161.059,2.136,2.136,0,0,0,.262.04,4.8,4.8,0,0,0,.5.02h0.927l0.242-.238a0.813,0.813,0,0,1,.282.2h0.725a0.226,0.226,0,0,0,.12-0.079,0.525,0.525,0,0,1-.1-0.119,0.6,0.6,0,0,0-.1-0.119l-0.222-.218a1.511,1.511,0,0,0-.221-0.178h-1.168a0.374,0.374,0,0,0-.161.119v0.237q-0.444.277-.524-0.158c0-.105-0.027-0.158-0.081-0.158A0.194,0.194,0,0,0,104.019,27.083Zm-2.6-2.85-0.242.238h-0.241a2.308,2.308,0,0,1-.181.158,2.239,2.239,0,0,0-.182.158,0.329,0.329,0,0,0,.121.436,0.243,0.243,0,0,1,.081.317,1.249,1.249,0,0,1-.081.139,0.947,0.947,0,0,1-.121.139,0.263,0.263,0,0,0,.363.079,0.3,0.3,0,0,0,.121-0.317q0.2-.2.382-0.356a2.893,2.893,0,0,0,.343-0.356V24.233h-0.363ZM99.045,34.05a0.162,0.162,0,0,0-.2.158c0.081,0.079.154,0.158,0.222,0.238a1.018,1.018,0,0,0,.221.2,0.765,0.765,0,0,0,.081.356,1.535,1.535,0,0,0,.846,0l0.08-.079V34.644l-0.3-.3a4.357,4.357,0,0,0-.342-0.3h-0.6Zm-0.4-3.444a1.925,1.925,0,0,0,.282-0.238h0.181a0.225,0.225,0,0,0,.181-0.119l-0.242-.238a0.249,0.249,0,0,1,0-.2,0.111,0.111,0,0,0-.081-0.158,0.29,0.29,0,0,0-.2.119,0.117,0.117,0,0,1-.161.04l-0.161-.158-0.121.119a0.319,0.319,0,0,1-.081.238,1.286,1.286,0,0,0-.161.2,0.3,0.3,0,0,0,.081.4h0.483Zm-2.175-4.2a0.358,0.358,0,0,0,.161.04,0.236,0.236,0,0,1,.161.079,0.157,0.157,0,0,0,.161.119,0.25,0.25,0,0,0,.081-0.238V25.342a0.225,0.225,0,0,0-.081-0.119H96.91a0.035,0.035,0,0,0-.04.04,0.62,0.62,0,0,1-.443.2l-0.121.119a0.933,0.933,0,0,1,.242.356,0.924,0.924,0,0,1-.242.356,0.377,0.377,0,0,0,.161.119h0Zm7.351-7.917a1.468,1.468,0,0,0-.061-0.277C103.7,18.137,103.65,18.065,103.6,18a2.31,2.31,0,0,0-.161-0.178h-0.2a0.214,0.214,0,0,0-.161.119,1.976,1.976,0,0,0-.041.4,1.036,1.036,0,0,0,.081.4l0.08,0.079h0.484A0.382,0.382,0,0,0,103.818,18.494Zm-5.519,7.8a0.94,0.94,0,0,0,.141-0.119h0.242l0.362-.356L98.8,25.579V25.342a0.685,0.685,0,0,0-.262-0.158,0.486,0.486,0,0,0-.222.158l0.242,0.238a0.69,0.69,0,0,1-.081.277,0.7,0.7,0,0,1-.282.079l-0.081.079a0.226,0.226,0,0,0-.121.079,0.258,0.258,0,0,1-.121.119,0.078,0.078,0,0,0-.04.119,0.118,0.118,0,0,0,.141.1,0.958,0.958,0,0,1,.181-0.02h0A0.992,0.992,0,0,1,98.3,26.292Zm1.108,3.325h0.765c0.162-.158.188-0.29,0.081-0.4a0.5,0.5,0,0,1-.2-0.435c0-.105-0.095-0.158-0.282-0.158a0.186,0.186,0,0,0-.2.119,0.4,0.4,0,0,1,.1.139,0.379,0.379,0,0,0,.1.139,0.866,0.866,0,0,1-.222.218,0.646,0.646,0,0,0-.222.3Zm9.788-1.187c-0.08-.026-0.168-0.053-0.262-0.079a0.379,0.379,0,0,1-.221-0.158,0.075,0.075,0,0,0-.1,0,0.133,0.133,0,0,0-.06.119,0.3,0.3,0,0,1-.322.356,0.375,0.375,0,0,0-.162.119l0.363,0.356h0.242a0.922,0.922,0,0,0,.12-0.257,0.906,0.906,0,0,1,.121-0.257h0.4a0.183,0.183,0,0,0-.121-0.2h0Zm-5.76,6.61a1.038,1.038,0,0,0-.141-0.119,0.951,0.951,0,0,1-.141-0.119H102.67q-0.162.159,0.04,0.237h0.161a1.1,1.1,0,0,1,.322.277,0.734,0.734,0,0,0,.323.238,0.986,0.986,0,0,1,.141-0.059,1.311,1.311,0,0,0,.141-0.059v-0.4h-0.363Zm-4.793-7.62a0.5,0.5,0,0,0,.242-0.02c0.134,0,.174-0.052.121-0.158a0.071,0.071,0,0,0-.081-0.079H98.158l-0.6.594a0.287,0.287,0,0,0,.4.119q0.121-.119.222-0.238c0.067-.079.141-0.158,0.221-0.238A1.514,1.514,0,0,1,98.642,27.42Zm4.592-2.3a0.171,0.171,0,0,0-.121.139q0.16,0.2.282,0.356c0.08,0.106.161,0.212,0.242,0.317,0.026,0,.04-0.006.04-0.02s0.013-.02.04-0.02l0.04-.04A1.8,1.8,0,0,0,103.8,25.5V25.144a0.1,0.1,0,0,0-.041-0.1,0.205,0.205,0,0,1-.08-0.1h-0.242A0.522,0.522,0,0,1,103.234,25.124Zm4.833,2.058a0.176,0.176,0,0,0-.12-0.218,4.238,4.238,0,0,0-.444-0.059,0.617,0.617,0,0,0-.443.139v0.178a0.221,0.221,0,0,0,.121.178l0.242-.238,0.242,0.238h0.4A0.3,0.3,0,0,1,108.067,27.182Zm-12.486.238a0.812,0.812,0,0,0-.242-0.02,0.389,0.389,0,0,0-.282.119v0.238a0.208,0.208,0,0,0,.081.1,0.35,0.35,0,0,1,.081.059,0.579,0.579,0,0,1,.242.04l0.161,0.158a0.073,0.073,0,0,0,.1,0,0.131,0.131,0,0,0,.06-0.119,0.372,0.372,0,0,0,.02-0.218,1.729,1.729,0,0,1-.02-0.257Zm7.492,0.97h-0.121a0.111,0.111,0,0,1-.061.04,0.113,0.113,0,0,0-.06.04v0.079a0.585,0.585,0,0,1,.2.277,0.375,0.375,0,0,0,.161.317q0.122-.276.2-0.515h0.161c0.081,0.053.147,0.027,0.2-.079,0.054-.053.027-0.105-0.08-0.158h-0.6Zm-0.343,3.958a0.225,0.225,0,0,0-.141.079,0.667,0.667,0,0,0,0,.554l0.081,0.079a0.689,0.689,0,0,1,.161.02,0.162,0.162,0,0,0,.161-0.1,0.853,0.853,0,0,0,0-.633H102.73Zm1.068-5.779a0.07,0.07,0,0,0-.061-0.059,0.177,0.177,0,0,1-.1-0.1,0.366,0.366,0,0,1-.162.04,0.369,0.369,0,0,0-.161.04v0.356a0.47,0.47,0,0,1,.222.2,0.264,0.264,0,0,0,.262.119V26.569Zm-3.021,1.207a0.632,0.632,0,0,1-.2.218,0.288,0.288,0,0,0,.121.4l0.363-.356v-0.4A0.3,0.3,0,0,0,100.777,27.776Zm0.282,7.62a0.82,0.82,0,0,0,.241.158,0.832,0.832,0,0,0,.242-0.158V35.158a0.9,0.9,0,0,0-.242-0.119,0.884,0.884,0,0,0-.241.119V35.4Zm-2.337-1.623a0.915,0.915,0,0,1,.322-0.317,0.321,0.321,0,0,0-.4-0.119l-0.362.356a0.357,0.357,0,0,0,.443.079h0ZM95.3,29.379a0.165,0.165,0,0,0-.2.079c-0.054.053-.027,0.106,0.081,0.158l0.242,0.238a0.853,0.853,0,0,0,.121-0.238,0.871,0.871,0,0,0-.121-0.237H95.3Zm2.86,2.454a0.271,0.271,0,0,0,0-.475,0.294,0.294,0,0,0,0,.475h0Zm3.988,1.979a0.224,0.224,0,0,0,.121-0.079c0-.105-0.04-0.158-0.121-0.158a0.283,0.283,0,0,0-.181-0.02,0.919,0.919,0,0,1-.181.02v0.237h0.362Zm-0.765-6.175a0.167,0.167,0,0,0,.121-0.04V27.519a0.071,0.071,0,0,0-.081-0.079,0.239,0.239,0,0,0-.362.238h0a1.06,1.06,0,0,0,.322-0.04h0Zm-6-1.148a0.291,0.291,0,0,0-.081.218,0.177,0.177,0,0,0,.081.178H95.46a0.335,0.335,0,0,0,0-.436c-0.054,0-.081.014-0.081,0.04h0ZM95.661,28.9a0.306,0.306,0,0,0,0-.515,0.334,0.334,0,0,0,0,.515h0Zm6.525,6.373c-0.107.053-.134,0.106-0.08,0.158a0.07,0.07,0,0,0,.08.079h0.121c0.188,0,.255-0.053.2-0.158s-0.121-.132-0.2-0.079h-0.121ZM103.8,19.4V19.167l-0.081-.079h-0.08a0.177,0.177,0,0,0-.081.178,0.286,0.286,0,0,0,.081.218c0-.026.026-0.013,0.08,0.04A0.22,0.22,0,0,0,103.8,19.4h0Zm-5.76,5.66-0.081-.079q-0.081-.079-0.161.119v0.079a0.2,0.2,0,0,0,.081.238c0.107,0.053.161-.026,0.161-0.238h0V25.064Zm5.4-1.108h-0.242l-0.08.079a0.113,0.113,0,0,0-.04.079,0.252,0.252,0,0,0,.221.119,0.3,0.3,0,0,0,.222-0.079V24.035a0.071,0.071,0,0,1-.081-0.079h0Zm-3.383.119a0.263,0.263,0,0,0,.483,0,0.3,0.3,0,0,0-.483,0h0Zm-1.33-.435a0.114,0.114,0,0,0,.04-0.079,0.3,0.3,0,0,1,.04-0.119,0.232,0.232,0,0,0-.121-0.2,0.106,0.106,0,0,0-.121.119,0.263,0.263,0,0,0-.02.178,0.922,0.922,0,0,1,.02.178c0.107,0.053.161,0.027,0.161-.079h0Zm15.71,2.771a0.07,0.07,0,0,0,.08-0.079c0.054-.053.027-0.105-0.08-0.158h-0.121a0.208,0.208,0,0,0-.2.079c-0.054.106,0.014,0.158,0.2,0.158h0.121ZM167.079,23.6h-2.658V7.408H158.5L145.205,25.182l2.3,4.157h10.03v6.1h6.889v-6.1h2.658V23.6Zm-14.059.079,5.116-7.165-0.08,7.165H153.02Zm44.59,2.534a0.387,0.387,0,0,1,.161.119,0.328,0.328,0,0,0,.2.119h0.121l0.121,0.119a2.137,2.137,0,0,0-.161.178,2.274,2.274,0,0,1-.161.178h-0.121a0.142,0.142,0,0,0-.081-0.2c-0.08-.026-0.094-0.026-0.04,0a1.112,1.112,0,0,0,.08.139,0.193,0.193,0,0,1,.041.1v0.079a4.025,4.025,0,0,1-.4.356l-0.483-.475h-1.007l-0.121.119v1.188a0.111,0.111,0,0,0,.04.079l0.081,0.079a1.59,1.59,0,0,0,.141-0.158,0.1,0.1,0,0,1,.141-0.04,0.117,0.117,0,0,1,.1.139,0.862,0.862,0,0,0-.02.178,0.18,0.18,0,0,1-.242.139,0.179,0.179,0,0,0-.241.139V31a0.481,0.481,0,0,1,.1.059,0.447,0.447,0,0,0,.1.059c0.134,0.053.215,0.086,0.242,0.1a0.227,0.227,0,0,1,.04.178v0.317q-0.081.2-.2,0.119c-0.189,0-.282.066-0.282,0.2v1.821a0.182,0.182,0,0,0,.121.2h2.5c0.08-.079.167-0.158,0.262-0.237s0.181-.158.262-0.237a0.233,0.233,0,0,1,.12.2q-0.081.277,0.162,0.277a1.947,1.947,0,0,0,.483.02c0.161-.013.308-0.02,0.443-0.02a1.162,1.162,0,0,0,.181-0.139,0.55,0.55,0,0,1,.141-0.1,0.366,0.366,0,0,0,.322-0.119V33.456l0.363-.356a0.242,0.242,0,0,1,.161.277,0.469,0.469,0,0,1-.06.1,0.451,0.451,0,0,0-.061.1,0.817,0.817,0,0,0-.161.237,0.8,0.8,0,0,0,.161.237h0.725a1.1,1.1,0,0,1,.282-0.2,1.919,1.919,0,0,0,.282.237,1.7,1.7,0,0,1,.625-0.04,1.669,1.669,0,0,0,.624-0.039c0.053,0,.08-0.066.08-0.2h-0.443a1.572,1.572,0,0,0-.2-0.237,1.506,1.506,0,0,1-.2-0.238h-0.282a0.649,0.649,0,0,1-.161-0.257,0.653,0.653,0,0,1,.161-0.257h0.241a4.68,4.68,0,0,0,.443.455c0.162,0.145.309,0.284,0.443,0.416v0.119h0.363l0.242,0.237H204.9l0.081-.079a0.273,0.273,0,0,0,.02-0.178,0.185,0.185,0,0,1,.06-0.178,0.171,0.171,0,0,1,.162-0.059,0.646,0.646,0,0,0,.161.02l0.362-.356a0.669,0.669,0,0,1,.04-0.277q0.121-.237.4-0.04a0.252,0.252,0,0,1,.041.317l-0.162.158a0.352,0.352,0,0,0-.04.356l0.322,0.317h5.035q0.6-.594,1.209-1.168t1.208-1.168A1.034,1.034,0,0,1,214,31.5a1.036,1.036,0,0,0,.2-0.218l0.04-.04V31.2l-0.322-.317c-0.108-.026-0.242-0.066-0.4-0.119a1.932,1.932,0,0,1,.242-0.277V30.369a1.383,1.383,0,0,0-.463,0,0.932,0.932,0,0,1-.463-0.04,0.214,0.214,0,0,1-.081-0.119V30.052a0.138,0.138,0,0,1,.121-0.119,0.081,0.081,0,0,1,.121.04,0.251,0.251,0,0,0,.12.119,1.257,1.257,0,0,0,.3.04,0.845,0.845,0,0,1,.261.04q0.16,0,.081.2h0.362a1.874,1.874,0,0,0,.282-0.238h0.242a1.1,1.1,0,0,0,.242.2c0.08-.053.154-0.105,0.221-0.158a2.329,2.329,0,0,0,.182-0.158,3.917,3.917,0,0,1-.4-0.356,0.9,0.9,0,0,1-.282-0.04c-0.081-.026-0.108-0.119-0.081-0.277a0.083,0.083,0,0,0-.02-0.059,0.077,0.077,0,0,1-.02-0.059,0.256,0.256,0,0,0-.141-0.119c-0.067-.026-0.074-0.066-0.02-0.119a0.161,0.161,0,0,1,.161-0.1,0.227,0.227,0,0,0,.161-0.02,0.587,0.587,0,0,1,.524-0.238l0.362-.356V27.8a3.6,3.6,0,0,1-.644-0.633h-0.242a0.959,0.959,0,0,0-.181.02,0.118,0.118,0,0,1-.141-0.1,0.1,0.1,0,0,1,.04-0.139,0.389,0.389,0,0,0,.121-0.139,1.154,1.154,0,0,0-.2-0.238V25.817a3.526,3.526,0,0,1,.362-0.317,1.17,1.17,0,0,1,.242.2l0.241-.238c0.081-.079.107-0.132,0.081-0.158q-0.081-.158-0.2-0.079h-0.4a3.173,3.173,0,0,0-.121-0.317,1.37,1.37,0,0,1,.483-0.435,0.253,0.253,0,0,1,.141.04,0.251,0.251,0,0,0,.141.04v0.277a0.674,0.674,0,0,0,.262.158,0.681,0.681,0,0,0,.262-0.158V24.589l-0.242-.238a0.566,0.566,0,0,0,.1-0.119,0.218,0.218,0,0,1,.1-0.079,0.889,0.889,0,0,1-.141-0.178,0.343,0.343,0,0,1-.061-0.178,0.4,0.4,0,0,0-.08-0.257c-0.054-.066-0.108-0.125-0.161-0.178l0.241-.238V22.65a1.926,1.926,0,0,1,.242-0.277V21.66a0.217,0.217,0,0,0-.161-0.119,0.356,0.356,0,0,1-.161-0.04c-0.135,0-.2-0.092-0.2-0.277a0.275,0.275,0,0,1,.242-0.2c0.188-.026.282-0.079,0.282-0.158V20a0.1,0.1,0,0,0-.04-0.1,0.212,0.212,0,0,1-.081-0.1h-1.249a0.07,0.07,0,0,1-.08-0.079c-0.054-.105-0.027-0.158.08-0.158a0.285,0.285,0,0,1,.182-0.02,0.177,0.177,0,0,0,.181-0.1l-0.242-.238,0.161-.158a1.32,1.32,0,0,1,.2.02,0.325,0.325,0,0,0,.2-0.02,0.374,0.374,0,0,0,.161-0.119V18.692a0.982,0.982,0,0,0-.2-0.119H214.93a0.241,0.241,0,0,1-.161-0.277,0.179,0.179,0,0,0-.242-0.2,0.2,0.2,0,0,1-.241-0.2,0.254,0.254,0,0,1,.08-0.317,1.034,1.034,0,0,0,.242-0.238,1.383,1.383,0,0,1,.463,0,0.516,0.516,0,0,0,.423-0.119,0.7,0.7,0,0,0-.222-0.257,1.168,1.168,0,0,1-.261-0.257V16.594c-0.216-.026-0.282-0.158-0.2-0.4l0.081-.079,0.08,0.04a0.081,0.081,0,0,0,.02.059,0.079,0.079,0,0,1,.021.059v0.317h0.12l0.363-.356a0.566,0.566,0,0,1-.1-0.119,0.623,0.623,0,0,0-.1-0.119,2.632,2.632,0,0,1,.241-0.277l0.242-.237V15.327a0.586,0.586,0,0,0-.2-0.277,0.234,0.234,0,0,1,0-.317,0.212,0.212,0,0,1,.08-0.1,0.212,0.212,0,0,0,.081-0.1,0.222,0.222,0,0,0,.02-0.237,0.346,0.346,0,0,0-.262-0.158,0.185,0.185,0,0,1-.2-0.119l0.241-.237a2.577,2.577,0,0,0,.242-0.277V13.031l-0.363-.356h-0.241a0.155,0.155,0,0,1-.121-0.158l0.08-.079a0.19,0.19,0,0,1,.141-0.02,0.183,0.183,0,0,0,.141-0.02l0.081-.079a0.212,0.212,0,0,0-.121-0.158,0.594,0.594,0,0,0-.3,0,0.314,0.314,0,0,1-.3-0.119,0.911,0.911,0,0,0,.322-0.317,0.856,0.856,0,0,0,.685-0.435,0.559,0.559,0,0,0-.04-0.238,0.163,0.163,0,0,0-.161-0.1,0.229,0.229,0,0,1-.162-0.02c-0.08,0-.12-0.053-0.12-0.158a1.572,1.572,0,0,0,.241-0.2l0.242-.238V8.36l-0.242-.238V7.885l-3.182-3.127-0.282-.277a0.118,0.118,0,0,0-.04-0.079,0.174,0.174,0,0,1-.02-0.139,0.091,0.091,0,0,0-.02-0.1,1.459,1.459,0,0,0-.161-0.2c-0.055-.053-0.108-0.105-0.162-0.158h-3.786a0.322,0.322,0,0,0-.121.2,0.234,0.234,0,0,1-.04.237,0.119,0.119,0,0,0-.081.04,0.219,0.219,0,0,1-.12-0.079,0.261,0.261,0,0,1-.021-0.178,0.187,0.187,0,0,0-.06-0.178,0.491,0.491,0,0,0-.443.079,0.681,0.681,0,0,1-.262.158,0.482,0.482,0,0,1-.221-0.158l-0.121-.119h-0.484a0.215,0.215,0,0,0-.121.158l0.081,0.079a0.184,0.184,0,0,0,.141.02,0.457,0.457,0,0,1,.141-0.02,0.07,0.07,0,0,0,.081.079c0.053,0.106.013,0.158-.121,0.158a1.941,1.941,0,0,1-.443.04,1.532,1.532,0,0,0-.282-0.237,0.245,0.245,0,0,0-.3.04,0.5,0.5,0,0,1-.222.158l-0.121-.119c-0.107-.105-0.188-0.092-0.242.04V4.362a0.211,0.211,0,0,1-.12.158,1.105,1.105,0,0,1-.242-0.2h-0.242a0.208,0.208,0,0,1-.121-0.257,0.208,0.208,0,0,0-.12-0.257h-0.786a6.97,6.97,0,0,0-.745.04,0.071,0.071,0,0,0-.081.079,0.106,0.106,0,0,0,.121.119,0.567,0.567,0,0,0,.242.04l0.362,0.356a0.466,0.466,0,0,1-.281.1,1.169,1.169,0,0,1-.323-0.218h-1.772c-0.081-.079-0.161-0.165-0.242-0.257a1.752,1.752,0,0,0-.282-0.257h-0.241a1.2,1.2,0,0,0-.242-0.2,0.628,0.628,0,0,1-.161.119l-0.161.079a0.528,0.528,0,0,0-.282.119V4.442L199.14,4.8h1.491c0.08,0,.12.053,0.12,0.158a0.27,0.27,0,0,1-.12.356h-0.484l-0.141-.139-0.141-.139h-0.846a0.369,0.369,0,0,1-.02.356,1.569,1.569,0,0,1-.221.277,0.193,0.193,0,0,0,.2.1,0.223,0.223,0,0,1,.2.059q0.12,0.08,0,.158a1.356,1.356,0,0,1-.564.04,1.158,1.158,0,0,0-.524.04,0.568,0.568,0,0,0-.1.119,0.218,0.218,0,0,1-.1.079,0.368,0.368,0,0,1-.121-0.158,0.275,0.275,0,0,1,.04-0.237,1.379,1.379,0,0,0,.141-0.158,1.492,1.492,0,0,1,.141-0.158h0.2a0.222,0.222,0,0,0,.2-0.237c0.053-.132,0-0.211-0.161-0.237l-0.081.079c-0.054.106-.108,0.132-0.161,0.079q-0.162-.079-0.081-0.2a0.183,0.183,0,0,0-.12-0.2,0.691,0.691,0,0,0-.262.218,1.219,1.219,0,0,1-.262.257h-1.49a1.031,1.031,0,0,0-.121-0.2,0.538,0.538,0,0,1-.041-0.237c-0.08-.079-0.147-0.066-0.2.04V5.669a0.3,0.3,0,0,1,.121.1,0.889,0.889,0,0,0,.121.139l-0.242.237V7.885l0.242,0.237a0.58,0.58,0,0,1-.121.1,0.219,0.219,0,0,0-.081.1,0.115,0.115,0,0,1-.04.079V18.494q0,1.306.02,2.236t0.02,1.207a0.259,0.259,0,0,1,.161.119,0.712,0.712,0,0,1,.061.2,0.994,0.994,0,0,0,.06.218,0.243,0.243,0,0,0,.161.139c-0.08.079-.161,0.165-0.241,0.257s-0.161.178-.242,0.257L195.8,23.4c-0.081.132-.074,0.224,0.02,0.277a0.23,0.23,0,0,1,.141.2,0.218,0.218,0,0,1-.08.1,0.207,0.207,0,0,0-.081.1,0.885,0.885,0,0,1-.06.317,0.274,0.274,0,0,0,.141.317,0.85,0.85,0,0,1,.2-0.158l0.081-.079a0.578,0.578,0,0,1,.241.04,0.071,0.071,0,0,1,.081.079v0.237a1.456,1.456,0,0,1-.242.277v0.238l-0.08.079a0.144,0.144,0,0,1-.121.02,0.147,0.147,0,0,0-.121.02,0.241,0.241,0,0,0-.161.277,0.2,0.2,0,0,0,.241.2h0.121A2,2,0,0,1,196.4,25.7h0.725l0.242-.238a0.184,0.184,0,0,1,.121.2,0.225,0.225,0,0,1-.161.277,0.455,0.455,0,0,1-.2.039,0.9,0.9,0,0,1-.141.119,1.179,1.179,0,0,1-.141.079,2.336,2.336,0,0,1-.523.02,1.231,1.231,0,0,0-.484.059l-0.08.079a0.568,0.568,0,0,0,.121.356H196.6a1.956,1.956,0,0,1,.282-0.238h0.241a0.192,0.192,0,0,1,.121.238,0.191,0.191,0,0,0,.121.238c0.187,0,.282-0.066.282-0.2h0q-0.2-.435-0.04-0.515h0Zm-1.289-5.383a0.519,0.519,0,0,1,.3-0.059,1.828,1.828,0,0,0,.262.02l0.04,0.04a0.035,0.035,0,0,0,.04.04,0.276,0.276,0,0,1-.121.158h-0.6a1.849,1.849,0,0,1-.322.475,0.225,0.225,0,0,1-.161-0.158V20.908l0.121-.119a0.345,0.345,0,0,1,.141.158,0.172,0.172,0,0,0,.221.079v0.119h0a0.367,0.367,0,0,1,.081-0.317h0Zm0.684,7.679c0,0.079-.054.119-0.161,0.119a0.2,0.2,0,0,1-.08-0.2,0.433,0.433,0,0,1,.04-0.2,0.206,0.206,0,0,1,.2-0.079c-0.054-.079-0.027-0.145.081-0.2,0.107-.026.208-0.053,0.3-0.079a0.359,0.359,0,0,0,.222-0.2,0.2,0.2,0,0,1,.241,0l0.121,0.119a2.732,2.732,0,0,0-.322.356h-0.645v0.356Zm17.925-6.729,0.081,0.079a0.112,0.112,0,0,1-.041.079,0.226,0.226,0,0,1-.12.079h-0.323v0.356a0.98,0.98,0,0,1,.121.138,0.942,0.942,0,0,0,.121.139v0.475a0.214,0.214,0,0,1-.222.1,0.388,0.388,0,0,0-.221.02,0.258,0.258,0,0,1-.242-0.079,0.07,0.07,0,0,1-.08-0.079,0.544,0.544,0,0,1,.04-0.238,0.212,0.212,0,0,1,.08-0.1,0.555,0.555,0,0,0,.121-0.1,3.273,3.273,0,0,1,.081-0.554q0-.158.2-0.079a0.279,0.279,0,0,1,.4-0.238h0Zm-1.651.238a0.16,0.16,0,0,1,.08-0.2c0.054-.053.107-0.026,0.161,0.079a0.278,0.278,0,0,0,.1.079,0.381,0.381,0,0,1,.1.04,0.667,0.667,0,0,1,.262.119,1.009,1.009,0,0,1,.02.277,0.234,0.234,0,0,1-.161.079h-0.162a0.3,0.3,0,0,1-.181-0.158,0.173,0.173,0,0,0-.221-0.079v0.633a2.329,2.329,0,0,1-.182.158,2.732,2.732,0,0,0-.221.2h-0.443a0.226,0.226,0,0,1-.161-0.158,0.544,0.544,0,0,1,.04-0.238,0.232,0.232,0,0,1,.161-0.079,0.362,0.362,0,0,0,.161-0.04,0.176,0.176,0,0,0,.141-0.238,0.171,0.171,0,0,1,.1-0.237h0.4V22.017ZM205.041,6.064a0.253,0.253,0,0,0-.141-0.04,0.9,0.9,0,0,1-.141.119,1.034,1.034,0,0,0-.141.119h-0.241a0.844,0.844,0,0,1-.121-0.237,0.792,0.792,0,0,1,.161-0.237H204.9a0.45,0.45,0,0,1,.061-0.1,0.469,0.469,0,0,0,.06-0.1A0.938,0.938,0,0,0,205,5.411a0.262,0.262,0,0,1,.02-0.178,0.1,0.1,0,0,1,.04-0.1,0.212,0.212,0,0,0,.081-0.1h0.242a0.926,0.926,0,0,1,.141-0.119,1,1,0,0,0,.141-0.119h0.161a0.217,0.217,0,0,1,.161.119,4.6,4.6,0,0,1-.343.376l-0.382.376V6.025c-0.081.132-.095,0.192-0.04,0.178s0.066-.072.04-0.178h0.121a0.427,0.427,0,0,1,.121.4,0.236,0.236,0,0,1-.323.079,0.38,0.38,0,0,1-.161-0.119A0.358,0.358,0,0,0,205.041,6.064Zm2.075,3.206q0.16-.039.282-0.079a0.53,0.53,0,0,0,.241-0.2c0-.026.027-0.04,0.081-0.04a0.17,0.17,0,0,1,.121.04,0.387,0.387,0,0,1,.161.119l-0.363.356H207c0,0.132.04,0.2,0.121,0.2a2.164,2.164,0,0,0,.483.04h1.49a0.086,0.086,0,0,1,.061.02,0.079,0.079,0,0,0,.06.02,0.081,0.081,0,0,0,.02.059,0.079,0.079,0,0,1,.021.059V15.01l0.12,0.119,0.121,0.119a0.217,0.217,0,0,1-.08.1,0.219,0.219,0,0,0-.081.1,2.756,2.756,0,0,0-.06.614,1.767,1.767,0,0,0,.1.3h0.766a1.874,1.874,0,0,0,.282.237h0.725a0.358,0.358,0,0,1,.08.435,0.336,0.336,0,0,1-.362.04l-0.2-.2a2.971,2.971,0,0,0-.966,0l-0.242.178a1.442,1.442,0,0,0-.161.139V17.7l0.362,0.356h0.363a1.927,1.927,0,0,1,.362.04c0.107,0,.134.053,0.081,0.158l-0.04.04a0.036,0.036,0,0,1-.041.04H209.9a0.353,0.353,0,0,0-.121.317,1.437,1.437,0,0,1-.241.277,1.974,1.974,0,0,1,.241.277v0.2a1.935,1.935,0,0,1-.241.277,1.037,1.037,0,0,1,.12.139,0.947,0.947,0,0,0,.121.139,1.646,1.646,0,0,1-.06.277,0.231,0.231,0,0,1-.181.04c-0.189.027-.282,0.093-0.282,0.2v0.871l0.04,0.079,0.2,0.2a1.433,1.433,0,0,1-.08.139,1.012,1.012,0,0,1-.121.139v3.642a0.726,0.726,0,0,0,.4.4,0.387,0.387,0,0,0,.4-0.2c0.107,0,.162.04,0.162,0.119a0.494,0.494,0,0,1,.02.237,1.36,1.36,0,0,0-.02.238,0.282,0.282,0,0,1-.3.119,0.656,0.656,0,0,0-.382.04q-0.041.04-.282,0.4a1.072,1.072,0,0,0-.02.554,1.457,1.457,0,0,1-.02.633,0.231,0.231,0,0,1-.121.079h-1.209a2.011,2.011,0,0,0-.282.237l-0.2-.2q-0.363,0-.926-0.02t-1.209-.02q-0.645,0-1.349.02t-1.35.02q-0.242.08,0,.158a2.891,2.891,0,0,0,.323.119l0.08,0.079v0.277a1.342,1.342,0,0,0-.322.079,1.874,1.874,0,0,1-.282-0.238,0.567,0.567,0,0,1-.242-0.04A0.242,0.242,0,0,1,202,28.35V20.156l-0.2-.2a1.059,1.059,0,0,1,.2-0.277V19.206a1.458,1.458,0,0,0-.242-0.277L202,18.692V13.783l-0.242-.238v-0.99A1.991,1.991,0,0,1,202,12.279V12.042l-0.242-.237,0.2-.2a1.053,1.053,0,0,0,.08-0.4,0.442,0.442,0,0,0-.282-0.356,0.947,0.947,0,0,0,.121-0.138A0.979,0.979,0,0,1,202,10.577V9.864a0.182,0.182,0,0,0,.1-0.1,0.092,0.092,0,0,1,.1-0.059h3.1a0.1,0.1,0,0,0,.1-0.04,0.213,0.213,0,0,1,.1-0.079l-0.242-.237a0.393,0.393,0,0,1,.322-0.139q0.16,0.02.363,0.059a0.116,0.116,0,0,1,.04.059,0.106,0.106,0,0,0,.04.059V9.508c-0.054.079-.014,0.145,0.121,0.2l0.242-.237H207c0-.132.04-0.2,0.121-0.2h0ZM203.974,7.45l0.3-.3,0.383-.376h0.483q0.161,0.08.081,0.158a0.5,0.5,0,0,0-.2.435l0.242,0.237-0.081.079a0.618,0.618,0,0,1-.241.079,2.846,2.846,0,0,0-.665,0,1.855,1.855,0,0,1-.665-0.04l-0.12-.119h0Zm-2.236,19.811a0.4,0.4,0,0,1-.1.139,2.931,2.931,0,0,0-.222-0.2,0.368,0.368,0,0,0-.3-0.04l-0.6-.594a1.018,1.018,0,0,0,.121-0.139,0.9,0.9,0,0,1,.12-0.139V26.054a1.874,1.874,0,0,1-.241-0.277,1.255,1.255,0,0,1,.08-0.317,1.812,1.812,0,0,1,.343.257,0.4,0.4,0,0,1,.1.376,0.3,0.3,0,0,1,.182.238,0.616,0.616,0,0,0,.1.277,1.02,1.02,0,0,0,.2.218q0.12,0.1.2,0.178A0.615,0.615,0,0,1,201.738,27.261Zm10.111-4.216a1.174,1.174,0,0,0-.222.238l-0.362-.119v-0.4a0.248,0.248,0,0,0-.282-0.277,0.084,0.084,0,0,0-.061.02,0.082,0.082,0,0,1-.06.02c-0.108.053-.135,0.119-0.081,0.2a0.321,0.321,0,0,1-.08.238,0.275,0.275,0,0,1-.2-0.079,0.541,0.541,0,0,0-.1-0.139,0.49,0.49,0,0,1-.1-0.139,2.294,2.294,0,0,0,.161-0.178,2.137,2.137,0,0,1,.161-0.178h1.007c0.081,0.053.161,0.113,0.242,0.178a0.742,0.742,0,0,1,.2.3A0.807,0.807,0,0,1,211.849,23.046Zm-0.222,6.333a0.667,0.667,0,0,1,.161.257,0.476,0.476,0,0,1-.161.218,0.594,0.594,0,0,0-.121-0.1,0.555,0.555,0,0,1-.121-0.1l-0.161.158a0.329,0.329,0,0,1-.241.079,0.119,0.119,0,0,0-.162.04,0.626,0.626,0,0,1-.12.158,0.481,0.481,0,0,1-.262-0.158c-0.068-.079-0.128-0.145-0.181-0.2a0.668,0.668,0,0,1,.08-0.277,0.723,0.723,0,0,1,.282-0.079,0.173,0.173,0,0,0,.141-0.079,1.5,1.5,0,0,1,.141-0.158h0.242l0.241,0.238h0.242ZM196.482,6.658V6.9a0.681,0.681,0,0,1-.262.158,0.339,0.339,0,0,1-.181-0.158,2.752,2.752,0,0,1,.2-0.277l-0.2-.2A1.551,1.551,0,0,1,196,5.985a1.161,1.161,0,0,1,.4-0.435,0.661,0.661,0,0,0,.262.218,0.8,0.8,0,0,0,.463-0.02c-0.107.132-.181,0.218-0.221,0.257l-0.141.139V6.381a1.408,1.408,0,0,1-.282.277h0Zm4.189-.554a1.263,1.263,0,0,0,.443.2q0.323,0,.04.475h-0.483a0.2,0.2,0,0,0-.161.237,0.15,0.15,0,1,1-.242,0,0.2,0.2,0,0,0-.161-0.237h-0.121a0.185,0.185,0,0,1-.2-0.119,0.106,0.106,0,0,1,.121-0.119,0.675,0.675,0,0,1,.322,0,0.26,0.26,0,0,0,.282-0.119,0.89,0.89,0,0,1-.121-0.139,0.98,0.98,0,0,0-.121-0.139,0.276,0.276,0,0,1,.4-0.04h0Zm-2.054,16.665a0.148,0.148,0,0,0-.121-0.02,0.143,0.143,0,0,1-.121-0.02,0.139,0.139,0,0,1-.121-0.119,0.25,0.25,0,0,1,0-.2,0.219,0.219,0,0,1,.081-0.1,0.321,0.321,0,0,0,.08-0.059H198.9a0.843,0.843,0,0,1,.181-0.2,2.139,2.139,0,0,0,.181-0.158,0.939,0.939,0,0,0-.02-0.178,0.116,0.116,0,0,1,.1-0.139,0.338,0.338,0,0,1,.282.158l0.08,0.079c0,0.053.013,0.079,0.04,0.079l-0.2.2c-0.054.053-.027,0.106,0.081,0.158s0.134,0.106.08,0.158a0.07,0.07,0,0,1-.08.079H198.9Zm0.805-15.2a3.818,3.818,0,0,0-.282-0.317,1.567,1.567,0,0,1-.2-0.237h-0.282a1.875,1.875,0,0,1-.282-0.237,1.926,1.926,0,0,1-.282.237l-0.121-.356,0.363-.356a0.9,0.9,0,0,0,.181.139,0.363,0.363,0,0,0,.181.059,0.374,0.374,0,0,1,.3.119,2.613,2.613,0,0,0,.182.2l0.362,0.356c-0.054.158-.094,0.291-0.121,0.4h0Zm-2.658.554V7.885a0.265,0.265,0,0,1,.4-0.079,2.478,2.478,0,0,1,.322.277V8.36a0.244,0.244,0,0,1-.3.139,0.454,0.454,0,0,0-.383.059,0.1,0.1,0,0,0-.06.119,0.665,0.665,0,0,1,.02.158,0.219,0.219,0,0,1-.081.119c-0.107,0-.161-0.04-0.161-0.119A0.471,0.471,0,0,1,196.5,8.6a1.464,1.464,0,0,0,.02-0.237Zm1.349,16.091a0.663,0.663,0,0,1,.3-0.218,2.81,2.81,0,0,1,.322.356,0.2,0.2,0,0,1-.241.119,0.2,0.2,0,0,0-.242.119,0.873,0.873,0,0,1-.181.2,2.045,2.045,0,0,0-.181.158H197.65a0.519,0.519,0,0,1-.141-0.1c-0.04-.04-0.088-0.085-0.141-0.138a0.158,0.158,0,0,1-.081-0.158,0.26,0.26,0,0,1,.242-0.079h0.363A2.052,2.052,0,0,0,198.113,24.213Zm17.18-3.661a0.445,0.445,0,0,1-.162.238,1.157,1.157,0,0,0-.2.238h-0.282l-0.242.237a0.314,0.314,0,0,1-.161-0.317l0.081-.317a0.257,0.257,0,0,1,.262-0.079,0.414,0.414,0,0,0,.3-0.04,0.305,0.305,0,0,0,.121-0.1,0.9,0.9,0,0,1,.12-0.139A0.617,0.617,0,0,1,215.293,20.552ZM213.4,6.539a0.3,0.3,0,0,1,.121.1,0.946,0.946,0,0,0,.121.139q0.16,0.08.081,0.158a0.208,0.208,0,0,1-.2.079h-0.4a1.122,1.122,0,0,1-.2.237h-0.282a0.877,0.877,0,0,1-.121-0.237,0.9,0.9,0,0,1,.121-0.237h0.282a1.154,1.154,0,0,1,.2-0.237H213.4Zm-0.141,20.346a0.16,0.16,0,0,1,.1-0.158c0.054-.053.107-0.026,0.161,0.079l0.2,0.2L214,27.281a1.5,1.5,0,0,0-.141.158,0.657,0.657,0,0,0-.1.2,0.3,0.3,0,0,1-.121.277H213.4a0.215,0.215,0,0,1-.08-0.119,0.812,0.812,0,0,1,.2-0.238V27.321a0.947,0.947,0,0,1-.121-0.139,1.037,1.037,0,0,0-.12-0.138A0.618,0.618,0,0,0,213.258,26.885Zm-12.386-5.621q0.161,0.08.081,0.158a0.071,0.071,0,0,1-.081.079h-0.966a0.473,0.473,0,0,1-.162-0.218,0.747,0.747,0,0,1,.121-0.257h0.282l0.242,0.237h0.483Zm14.1-6.531,0.081,0.317a0.316,0.316,0,0,1-.161.317,0.191,0.191,0,0,1-.121-0.238,0.193,0.193,0,0,0-.121-0.237h-0.242a0.331,0.331,0,0,1-.08-0.435,0.169,0.169,0,0,1,.161-0.059,0.227,0.227,0,0,0,.161-0.02,2.809,2.809,0,0,1,.322.356h0ZM196.643,29.617a2.647,2.647,0,0,0-.242.277,0.263,0.263,0,0,1-.08-0.435,1.6,1.6,0,0,0,.141-0.158,1.4,1.4,0,0,1,.141-0.158h0.523q0.16,0.08.081,0.158c-0.054.106-.121,0.132-0.2,0.079h-0.161A1.627,1.627,0,0,1,196.643,29.617ZM209.9,21.5a0.187,0.187,0,0,1-.121-0.277,1.465,1.465,0,0,0-.02-0.237,0.19,0.19,0,0,1,.141-0.2c0.107,0.106.208,0.2,0.3,0.277a1.784,1.784,0,0,1,.262.277c0.053,0.079.026,0.132-.081,0.158H209.9ZM204.417,5.273a1.728,1.728,0,0,1-.524,0c-0.161-.079-0.175-0.145-0.04-0.2,0.081-.026.167-0.053,0.262-0.079a0.383,0.383,0,0,0,.221-0.158,0.216,0.216,0,0,1,.222-0.04,0.507,0.507,0,0,1,.221.119Zm2.7,24.344A0.844,0.844,0,0,1,207,29.379a0.792,0.792,0,0,1,.161-0.238h0.363a0.207,0.207,0,0,1,.2.079c0.053,0.053.026,0.106-.081,0.158a0.9,0.9,0,0,0-.12.139,0.775,0.775,0,0,1-.081.1h-0.322Zm1.812-.277a0.251,0.251,0,0,1-.4-0.079V29.023a0.328,0.328,0,0,1,.2-0.119,0.847,0.847,0,0,1,.362,0,0.381,0.381,0,0,1,.162.119,0.922,0.922,0,0,1-.323.317h0Zm5.841-20.662a0.189,0.189,0,0,0-.06-0.139c-0.041-.04-0.088-0.085-0.141-0.139s-0.027-.105.08-0.158h0.242a0.355,0.355,0,0,1,.121.317,0.169,0.169,0,0,0,.08.139,0.4,0.4,0,0,1,.121.139c0.054,0.053.026,0.106-.081,0.158H214.89a0.352,0.352,0,0,1-.121-0.317h0ZM207.72,30.685a1.82,1.82,0,0,0-.1.158,0.269,0.269,0,0,1-.221,0,2.74,2.74,0,0,1-.363-0.317,0.308,0.308,0,0,1,.121-0.4,2.766,2.766,0,0,0,.564.554h0Zm3.524-5.225a0.215,0.215,0,0,1,.262.119,0.07,0.07,0,0,1-.08.079,1.4,1.4,0,0,1-.806,0,0.183,0.183,0,0,1-.121-0.2,0.2,0.2,0,0,1,.081-0.2,0.186,0.186,0,0,1,.2.079q0-.039.081,0.119A0.924,0.924,0,0,0,211.244,25.46Zm-12.426-.752a0.2,0.2,0,0,0,.141-0.059l0.141-.139a0.31,0.31,0,0,1,.4.079,2.123,2.123,0,0,0-.161.178,2.311,2.311,0,0,1-.161.178,1.54,1.54,0,0,0-.363.04,0.322,0.322,0,0,1-.322-0.158,0.437,0.437,0,0,1,.322-0.119h0Zm8.942,8.669a0.228,0.228,0,0,1-.08.158,0.252,0.252,0,0,1-.4-0.079,0.717,0.717,0,0,1,0-.475l0.121-.119,0.362,0.356h0v0.158Zm-6.4-28.084a2.257,2.257,0,0,0,.282.02,0.221,0.221,0,0,1,.12.178V5.669a0.091,0.091,0,0,1-.06.1,0.092,0.092,0,0,1-.1-0.02,0.593,0.593,0,0,0-.282-0.2,0.313,0.313,0,0,1-.322-0.2A0.753,0.753,0,0,1,201.356,5.293Zm-2.619,3.582-0.12.119h-0.725c-0.081-.079-0.108-0.132-0.081-0.158a0.07,0.07,0,0,1,.081-0.079,1.92,1.92,0,0,1,.362-0.04h0.363a0.375,0.375,0,0,1,.12.158h0Zm3.908-.633a0.876,0.876,0,0,1,.12.238,0.858,0.858,0,0,1-.12.237H202.4a0.776,0.776,0,0,1-.161-0.237,0.792,0.792,0,0,1,.161-0.238h0.242ZM200.51,24a0.8,0.8,0,0,1-.242-0.158V23.6a0.885,0.885,0,0,1,.242-0.119,0.9,0.9,0,0,1,.241.119v0.238A0.818,0.818,0,0,1,200.51,24Zm-3.988,6.531a0.248,0.248,0,0,0,.06-0.1,0.07,0.07,0,0,1,.061-0.059h0.483l0.081,0.079a0.035,0.035,0,0,0,.04.04,2.745,2.745,0,0,0-.2.218,2.311,2.311,0,0,1-.161.178Zm0.765-23.671a2.105,2.105,0,0,0,.161-0.178A2.133,2.133,0,0,1,197.61,6.5a0.3,0.3,0,0,1,.08.435,2.359,2.359,0,0,1-.282.317,0.278,0.278,0,0,1-.121-0.4h0Zm12.648,7.006L210.1,13.7a0.252,0.252,0,0,1,.4.079l-0.161.158-0.161.158a0.3,0.3,0,0,1-.4-0.079Zm3.1,2a0.662,0.662,0,0,1-.161.257h-0.242a0.741,0.741,0,0,1-.121-0.257,0.747,0.747,0,0,1,.121-0.257h0.242A0.667,0.667,0,0,1,213.037,15.861ZM214.89,13.9c-0.054-.053-0.108-0.105-0.161-0.158s-0.108-.105-0.161-0.158a0.18,0.18,0,0,1,.08-0.2,2.207,2.207,0,0,1,.483.04l0.121,0.119h0ZM199.422,20.75a0.321,0.321,0,0,1-.2.04,0.918,0.918,0,0,1-.242-0.158,2.74,2.74,0,0,0,.363-0.317,0.383,0.383,0,0,1,.241,0,0.333,0.333,0,0,1,.2.119,2.792,2.792,0,0,0-.363.317h0ZM214.648,10.7a0.878,0.878,0,0,1-.121-0.238,0.894,0.894,0,0,1,.121-0.237h0.242a0.894,0.894,0,0,1,.121.237,0.878,0.878,0,0,1-.121.238h-0.242ZM210.137,5.55c0.08,0.053.107,0.106,0.08,0.158l-0.08.079h-0.484c-0.107-.053-0.134-0.105-0.08-0.158a0.07,0.07,0,0,1,.08-0.079h0.484Zm4.108,2.058c-0.027.132-.08,0.185-0.161,0.158a0.266,0.266,0,0,0-.2,0,0.334,0.334,0,0,1,0-.515ZM209.13,33.337c0.08,0.053.107,0.106,0.08,0.158l-0.08.079h-0.484c-0.107-.053-0.134-0.105-0.08-0.158a0.07,0.07,0,0,1,.08-0.079h0.484Zm0.886-10.925-0.121.119-0.121.119c-0.08.053-.134,0.066-0.161,0.04a0.158,0.158,0,0,1-.08-0.2V22.373a0.293,0.293,0,0,1,.483.039h0Zm4.39,5.265h0.162a0.236,0.236,0,0,1,.161.079c0.026,0.027,0,.079-0.081.158a1.991,1.991,0,0,0-.242.277,0.305,0.305,0,0,1,0-.515h0Zm-2.638.99a0.674,0.674,0,0,1-.262-0.158,1.032,1.032,0,0,1,.141-0.119,0.9,0.9,0,0,0,.141-0.119,0.128,0.128,0,0,1,.161-0.079,0.266,0.266,0,0,1,.081.2v0.119A0.681,0.681,0,0,1,211.768,28.667Zm1.511-3.523v0.238a0.426,0.426,0,0,1-.121.317,0.231,0.231,0,0,1-.121-0.2V25.262A0.17,0.17,0,1,1,213.279,25.144Zm-14.018,6.729a0.8,0.8,0,0,1-.242-0.158,0.938,0.938,0,0,0-.02-0.178,0.116,0.116,0,0,1,.1-0.139,0.081,0.081,0,0,1,.121.04,0.253,0.253,0,0,0,.121.119l0.08,0.079a0.11,0.11,0,0,1,.04.059,0.11,0.11,0,0,0,.041.059A0.9,0.9,0,0,1,199.261,31.873Zm9.1-.238q0.2,0.04.162,0.139a0.292,0.292,0,0,0,0,.218,0.348,0.348,0,0,1-.524,0Zm1.652-8.036a1.156,1.156,0,0,0,.02.2c0.013,0.079-.047.132-0.181,0.158a2.724,2.724,0,0,1-.322-0.356,0.3,0.3,0,0,1,.483,0h0Zm0.745,7.244a0.757,0.757,0,0,1-.262-0.119,0.216,0.216,0,0,0,.02-0.158,0.16,0.16,0,0,1,.1-0.158,0.081,0.081,0,0,1,.121.04,0.253,0.253,0,0,0,.121.119l0.08,0.079a0.114,0.114,0,0,1,.041.059,0.106,0.106,0,0,0,.04.059h0A0.98,0.98,0,0,1,210.761,30.844Zm-13.876-7.837c0.08,0.053.107,0.106,0.08,0.158l-0.08.079H196.4a0.156,0.156,0,0,1-.121-0.158l0.081-.079h0.524Zm16.756-7.64a0.263,0.263,0,0,0,.2,0c0.08-.026.134,0.027,0.161,0.158l-0.363.356a0.305,0.305,0,0,1,0-.515h0Zm-5.4-9.7a0.926,0.926,0,0,1,.141-0.119,1,1,0,0,0,.141-0.119c0.053-.105.107-0.132,0.161-0.079,0.107,0.053.134,0.119,0.08,0.2V5.669a0.347,0.347,0,0,1-.523,0h0Zm-7.13,3.563h-0.161a0.23,0.23,0,0,1-.161-0.079c-0.054-.053-0.027-0.105.08-0.158a0.947,0.947,0,0,0,.121-0.139,0.98,0.98,0,0,1,.121-0.139,0.305,0.305,0,0,1,0,.515h0Zm-1.45-3.008c-0.108.053-.161-0.013-0.161-0.2V5.906l0.08-.079a0.128,0.128,0,0,1,.161.079V6.025h0a0.159,0.159,0,0,1-.08.2h0Zm6.848-.079a0.3,0.3,0,0,1,.483,0,0.263,0.263,0,0,1-.483,0h0Zm-3.384-.356a0.271,0.271,0,0,1,0,.475,0.294,0.294,0,0,1,0-.475h0ZM207.78,31.6a0.3,0.3,0,0,1-.221-0.079V31.437a0.183,0.183,0,0,1,.181-0.079,0.307,0.307,0,0,1,.222.079v0.079h0A0.185,0.185,0,0,1,207.78,31.6Zm2.276-.4c0.054-.105.121-0.132,0.2-0.079h0.12c0.081,0.053.107,0.106,0.081,0.158a0.071,0.071,0,0,1-.081.079h-0.12c-0.189,0-.256-0.053-0.2-0.158h0Zm1.289-3.8a0.224,0.224,0,0,1-.08-0.238V27.044c0.053-.105.107-0.132,0.161-0.079l0.08,0.079v0.119h0c0,0.212-.054.291-0.161,0.238h0Zm-0.282-9.223a0.187,0.187,0,0,1,.2-0.119c0.026,0.027.046,0.033,0.06,0.02s0.033-.006.06,0.02c0.081,0.053.107,0.106,0.081,0.158l-0.081.079h-0.12c-0.189,0-.256-0.053-0.2-0.158h0Zm-14.017,0a0.185,0.185,0,0,1,.2-0.119c0.027,0.027.047,0.033,0.061,0.02s0.033-.006.06,0.02c0.08,0.053.107,0.106,0.08,0.158l-0.08.079h-0.121q-0.282,0-.2-0.158h0Zm13.232,2.1a0.3,0.3,0,0,1-.222-0.079V20.117a0.184,0.184,0,0,1,.181-0.079,0.3,0.3,0,0,1,.222.079,0.05,0.05,0,0,1,0,.079A0.184,0.184,0,0,1,210.278,20.275Zm0.262-4.552a0.271,0.271,0,0,1,.241-0.119H210.9c0.081,0.079.107,0.132,0.081,0.158a0.114,0.114,0,0,0-.041.059,0.112,0.112,0,0,1-.04.059h-0.121c-0.215,0-.3-0.053-0.241-0.158h0Zm2.175,1.029a0.255,0.255,0,0,1-.222.119,0.17,0.17,0,0,1-.181-0.119V16.673l0.08-.079h0.242l0.04,0.04a0.036,0.036,0,0,0,.041.04h0v0.079Zm-1.692,7.6a0.348,0.348,0,0,1-.524,0,0.317,0.317,0,0,1,.524,0h0Zm-10.554.04a0.3,0.3,0,0,1-.221.079,0.182,0.182,0,0,1-.181-0.079c-0.054-.053-0.054-0.079,0-0.079a0.07,0.07,0,0,1,.08-0.079h0.242l0.08,0.079h0v0.079Zm-3.222-11.835a0.317,0.317,0,0,1,.524,0,0.348,0.348,0,0,1-.524,0h0ZM211.99,20.71a0.3,0.3,0,0,1-.222.079,0.3,0.3,0,0,1-.221-0.079V20.631a0.223,0.223,0,0,1,.12-0.079,0.387,0.387,0,0,1,.242,0l0.081,0.079V20.71Zm-10.634.277a0.205,0.205,0,0,1-.1-0.218,0.215,0.215,0,0,1,.1-0.178c0-.053.026-0.053,0.08,0a0.071,0.071,0,0,1,.081.079v0.238a0.036,0.036,0,0,1-.041.04,0.035,0.035,0,0,0-.04.04h-0.08ZM201.114,7.45a0.182,0.182,0,0,1-.121-0.2c0.027-.026.033-0.046,0.02-0.059s-0.007-.033.02-0.059c0.054-.079.094-0.105,0.121-0.079a0.228,0.228,0,0,1,.121.079V7.252c0,0.185-.054.251-0.161,0.2h0Zm1.45-.356a0.165,0.165,0,0,1,.2-0.079h0.121q0.16,0.08.081,0.158a0.071,0.071,0,0,1-.081.079h-0.121q-0.282,0-.2-0.158h0Zm5.236-.752a0.208,0.208,0,0,1,.2-0.079h0.121a0.381,0.381,0,0,1,.121.158l-0.121.119H208c-0.188,0-.256-0.066-0.2-0.2h0Zm-3.584.356a0.3,0.3,0,0,1-.222.079,0.182,0.182,0,0,1-.181-0.079V6.619a0.07,0.07,0,0,1,.08-0.079,0.385,0.385,0,0,1,.242,0l0.081,0.079h0V6.7Zm-4.754,2.138q0.081,0.159-.2.158H199.14l-0.08-.079c-0.027-.053,0-0.105.08-0.158a0.168,0.168,0,0,1,.121-0.04,0.186,0.186,0,0,1,.2.119h0Zm-4.954,13.3A0.18,0.18,0,0,1,194.75,22a0.175,0.175,0,0,0,.241-0.1V16.475l-0.241-.237a1.941,1.941,0,0,0,.241-0.277V10.339a0.071,0.071,0,0,0-.08-0.079,0.7,0.7,0,0,0-.564,0l-0.081.079v5.383a1.894,1.894,0,0,0,.242.277,0.792,0.792,0,0,0-.242.277v8.59l0.081,0.079a0.386,0.386,0,0,0,.342,0,0.225,0.225,0,0,1,.3.158l-0.362.356h-0.181a0.224,0.224,0,0,0-.182.119v0.475a0.365,0.365,0,0,0,.182.2,0.2,0.2,0,0,1,.06.277,0.979,0.979,0,0,1,.121.139,0.9,0.9,0,0,0,.121.139v0.238a1.926,1.926,0,0,0-.242.277v0.95a0.063,0.063,0,0,0,.04.059,0.065,0.065,0,0,1,.041.059h0.322a0.993,0.993,0,0,0,.362-0.079,4.14,4.14,0,0,1-.02-0.713q0.019-.356.02-0.633a0.544,0.544,0,0,0-.261-0.4,0.362,0.362,0,0,1-.222-0.277l0.483-.475V24.966c0-.277-0.014-0.56-0.04-0.851,0-.132-0.04-0.158-0.121-0.079a0.228,0.228,0,0,0-.121.079,0.26,0.26,0,0,0,.021.119,0.14,0.14,0,0,1-.021.119,0.07,0.07,0,0,1-.08.079c-0.054.053-.108,0.027-0.161-0.079v-0.4a0.224,0.224,0,0,1,.262-0.2,0.169,0.169,0,0,0,.221-0.158,0.942,0.942,0,0,1-.121-0.138,0.98,0.98,0,0,0-.121-0.139V22.61h0ZM209.13,34.564a1.972,1.972,0,0,1-.282.238h-4.391a1.25,1.25,0,0,0-.362.04l-0.081.079V35.1a0.227,0.227,0,0,0,.161.178H208.2a1.478,1.478,0,0,0,.484,0,1.015,1.015,0,0,1,.483.04l0.2,0.2a0.3,0.3,0,0,1,.081-0.059,0.365,0.365,0,0,0,.081-0.059,0.419,0.419,0,0,1,.362-0.119l0.242,0.238h0.483a0.989,0.989,0,0,1,.141-0.119,1.373,1.373,0,0,1,.141-0.079,1.911,1.911,0,0,0,.282.238,0.184,0.184,0,0,1,.141-0.02,0.094,0.094,0,0,0,.1-0.02,0.4,0.4,0,0,1,.282-0.218,3.013,3.013,0,0,1,.362-0.02,0.1,0.1,0,0,0,.1-0.04,0.213,0.213,0,0,1,.1-0.079V34.921a1.2,1.2,0,0,1,.261-0.257,0.647,0.647,0,0,0,.222-0.3,0.311,0.311,0,0,0,.04-0.119,2.5,2.5,0,0,0,.322-0.376,2.019,2.019,0,0,1,.242-0.3,0.848,0.848,0,0,0,.322-0.04l0.6-.594V32.467a0.861,0.861,0,0,0,.161-0.2,0.308,0.308,0,0,0-.041-0.435l-0.4.4v0.317a0.247,0.247,0,0,1-.282.277,1.267,1.267,0,0,0-.363.039l-1.974,1.94h-1.208l-0.081-.079a0.854,0.854,0,0,1-.2-0.158l-0.242.238h-0.241a1.868,1.868,0,0,1-.282-0.238h0Zm-6.949.732a1.275,1.275,0,0,0,.5-0.059l0.08-.079q0.041-.119-0.12-0.119a0.5,0.5,0,0,1-.141-0.1c-0.041-.04-0.088-0.085-0.141-0.139h-0.242a0.809,0.809,0,0,1-.242.2,0.224,0.224,0,0,1-.121-0.079,0.25,0.25,0,0,1,0-.2c0.027-.079-0.027-0.119-0.161-0.119a0.85,0.85,0,0,1-.2.158,1.166,1.166,0,0,1-.141-0.079,0.9,0.9,0,0,1-.141-0.119h-0.483l-0.242.238-0.242-.238H198.9a0.322,0.322,0,0,0-.121.2,0.115,0.115,0,0,0-.041.079,0.294,0.294,0,0,1-.04.119,0.07,0.07,0,0,1-.08.079,0.213,0.213,0,0,1-.081-0.119,0.216,0.216,0,0,1-.02-0.158,0.164,0.164,0,0,0-.061-0.158,0.2,0.2,0,0,0-.181-0.059,0.92,0.92,0,0,1-.181.02h-2.7a1.538,1.538,0,0,0-.161-0.139,1.922,1.922,0,0,1-.2-0.178q0.039,0.356-.2.3a0.242,0.242,0,0,0-.322.139v0.376a0.59,0.59,0,0,0,.081.218q0.725,0,1.49.02t1.369,0.02q0.6,0,1.007-.02a1.794,1.794,0,0,0,.484-0.059l0.161-.158a0.311,0.311,0,0,1,.282-0.04l0.242,0.237a1.956,1.956,0,0,1,.282-0.237h0.241l0.242,0.237h0.483a1.868,1.868,0,0,0,.282-0.237,0.288,0.288,0,0,1,.121.02,0.279,0.279,0,0,0,.121.02,0.311,0.311,0,0,1,.121.1,0.839,0.839,0,0,0,.121.139h0A2.56,2.56,0,0,1,202.181,35.3ZM212.513,3.808V3.927l0.645,0.633h0.282c0.08,0.079.167,0.172,0.262,0.277s0.194,0.212.3,0.317a0.091,0.091,0,0,1,.02.1,0.306,0.306,0,0,0-.02.1l2.014,1.979V10.3a0.254,0.254,0,0,0,.2.158,0.321,0.321,0,0,0,.2-0.04,1.28,1.28,0,0,0,.2-0.158l0.161-.158V7.371Q214.85,5.55,213,3.65a0.233,0.233,0,0,0-.242-0.079,0.237,0.237,0,0,1-.242.238h0Zm0.242-.356c-0.081-.079-0.161-0.165-0.242-0.257s-0.161-.178-0.241-0.257a0.828,0.828,0,0,0-.081-0.317,0.549,0.549,0,0,0-.282-0.04,2.008,2.008,0,0,0-.282-0.238h-0.242l-0.241.238A1.034,1.034,0,0,0,211,2.462c-0.041-.026-0.034-0.013.02,0.04Q210.7,2.3,210.6,2.423a0.289,0.289,0,0,1-.222.119,0.207,0.207,0,0,1-.1-0.079,0.224,0.224,0,0,0-.1-0.079,0.079,0.079,0,0,1-.06-0.02,0.086,0.086,0,0,0-.061-0.02h-2.094a0.084,0.084,0,0,0-.061.02,0.082,0.082,0,0,1-.06.02l-0.161.158a0.084,0.084,0,0,0-.061.02,0.082,0.082,0,0,1-.06.02h-1.37c-0.027,0-.04-0.006-0.04-0.02s-0.014-.02-0.04-0.02a0.211,0.211,0,0,1-.1-0.079,0.224,0.224,0,0,0-.1-0.079c-0.107.027-.155,0.073-0.141,0.139a1.054,1.054,0,0,1,.02.218,2.009,2.009,0,0,0,.182.158,0.913,0.913,0,0,1,.181.2h5.2a0.279,0.279,0,0,0,.121-0.02,0.148,0.148,0,0,1,.121.02,0.17,0.17,0,0,1,.121.04,2.535,2.535,0,0,0,.322.336q0.16,0.139.362,0.336h0.121a0.237,0.237,0,0,0,.242-0.238h0V3.452Zm-19.012,8.59L193.5,11.8V11.567a1.012,1.012,0,0,1-.121-0.138,0.918,0.918,0,0,0-.121-0.139,0.232,0.232,0,0,1,.121-0.079,0.306,0.306,0,0,0,.121-0.04c0.161,0,.242-0.053.242-0.158V9.429a0.1,0.1,0,0,0-.041-0.1,0.217,0.217,0,0,1-.08-0.1,0.793,0.793,0,0,1-.242-0.02,0.252,0.252,0,0,1-.08-0.139c0.08-.079.154-0.158,0.221-0.238s0.141-.158.222-0.238l-0.161-.158-0.162-.158a0.164,0.164,0,0,0-.12-0.04,0.186,0.186,0,0,0-.182.02,0.169,0.169,0,0,0-.1.139v6.333a0.221,0.221,0,0,0,.08.119,1.829,1.829,0,0,0,.645-0.04V12.042Zm5.558-9.7a0.572,0.572,0,0,0-.241.04,0.276,0.276,0,0,0-.041.238,0.182,0.182,0,0,1-.12.2q-0.162.08-.081,0.158a0.185,0.185,0,0,0,.2.119,7.258,7.258,0,0,1,.927-0.02c0.322,0.014.63,0.02,0.926,0.02l0.141-.139,0.141-.139H201.4a0.5,0.5,0,0,0,.242.238h2.255a1.034,1.034,0,0,1,.141-0.119,0.9,0.9,0,0,0,.141-0.119h0.484l0.2-.2a0.368,0.368,0,0,1,.161-0.04,0.359,0.359,0,0,0,.161-0.04c0.107-.026.094-0.092-0.04-0.2h-0.483a1.979,1.979,0,0,1-.282.238h-0.242l-0.242-.238h-0.241a0.949,0.949,0,0,1-.141.119,0.926,0.926,0,0,0-.141.119h-1.249l-0.242-.238h-1.007a0.244,0.244,0,0,0-.08.178,0.384,0.384,0,0,1-.041.178c0,0.106-.054.132-0.161,0.079l-0.443-.435H199.3Zm17.482,9.1a0.176,0.176,0,0,0-.2-0.2,1.405,1.405,0,0,1-.282.277,1.083,1.083,0,0,0-.282.317v1.108a0.111,0.111,0,0,0,.04.079,1.056,1.056,0,0,1,.121.139,1.512,1.512,0,0,1,.08.139v0.475a1.436,1.436,0,0,0-.241.277v0.4a0.226,0.226,0,0,0,.161.158,0.251,0.251,0,0,0,.322-0.079,0.947,0.947,0,0,1-.121-0.139,0.98,0.98,0,0,0-.121-0.138,0.215,0.215,0,0,1,.262-0.119,0.214,0.214,0,0,0,.262-0.119V11.448ZM194.77,32.288a0.112,0.112,0,0,1,.06-0.139,0.1,0.1,0,0,1,.141.04,0.393,0.393,0,0,0,.141.119l0.121-.119a5.023,5.023,0,0,0,.04-0.613V31l-0.644-.633-0.081.079a15.555,15.555,0,0,0-.06,1.761q0.019,0.852.06,1.761l0.081,0.079a0.968,0.968,0,0,1,.181.02c0.067,0.014.127-.046,0.181-0.178a0.974,0.974,0,0,0-.141-0.119,0.132,0.132,0,0,1-.06-0.119,0.835,0.835,0,0,0,.161-0.2c0.027,0,.04-0.026.04-0.079a0.319,0.319,0,0,1,.081-0.237,1.347,1.347,0,0,0,.161-0.2l-0.483-.475h0A0.273,0.273,0,0,0,194.77,32.288ZM194.548,6.44a0.109,0.109,0,0,0,.041.059q0.4,0.119.4-.237V5.431a1.974,1.974,0,0,0-.241-0.277,1.408,1.408,0,0,0,.282-0.277,0.725,0.725,0,0,1-.061-0.158,0.87,0.87,0,0,0-.06-0.158h-0.322a1.389,1.389,0,0,0-.141.158,1.6,1.6,0,0,1-.141.158,0.236,0.236,0,0,0,0,.356l0.161,0.158a0.559,0.559,0,0,1,.04.237,0.98,0.98,0,0,0-.121.139,0.946,0.946,0,0,1-.121.139l0.242,0.237V6.381A0.116,0.116,0,0,1,194.548,6.44ZM194.508,29.5q0.16,0.159.3,0.317t0.3,0.317l0.081-.079a2.409,2.409,0,0,0,0-1.069,0.071,0.071,0,0,0-.081-0.079h-0.241a1.427,1.427,0,0,0-.282-0.277,0.8,0.8,0,0,1-.162.059c-0.054.014-.12,0.033-0.2,0.059l0.282,0.277h0V29.5Zm0.4-20.7a0.645,0.645,0,0,0-.262-0.1,0.294,0.294,0,0,1-.222-0.178h-0.08a0.224,0.224,0,0,0-.081.119V9.389l0.564,0.554c0.054,0,.081-0.013.081-0.04a0.07,0.07,0,0,0,.08-0.079V8.875a0.071,0.071,0,0,0-.08-0.079h0Zm20.865,17.575V26.133a0.232,0.232,0,0,0-.121-0.2h-0.483a1.152,1.152,0,0,0-.4.435,0.261,0.261,0,0,0,.02.119,0.28,0.28,0,0,1,.02.119l0.161,0.158a1.275,1.275,0,0,0,.2.158,1.121,1.121,0,0,0,.2-0.238h0.282a0.422,0.422,0,0,0,.121-0.317h0Zm0.806,0.554a0.255,0.255,0,0,0,.2-0.158V25.579A0.071,0.071,0,0,0,216.7,25.5a0.128,0.128,0,0,0-.161.079v0.515a1.012,1.012,0,0,1-.282.1,0.633,0.633,0,0,0-.241.1v0.277a2.825,2.825,0,0,0,.362.317,0.455,0.455,0,0,0,.2.04h0Zm-20.06-23a0.187,0.187,0,0,0-.2-0.079,0.871,0.871,0,0,1-.282.3,0.6,0.6,0,0,0-.242.3c0.053,0.106.107,0.145,0.161,0.119a0.176,0.176,0,0,1,.161,0,0.95,0.95,0,0,0,.141.119,1.033,1.033,0,0,1,.141.119,0.594,0.594,0,0,1,.3,0,0.314,0.314,0,0,0,.3-0.119l-0.241-.237V4.2a1.893,1.893,0,0,1-.242-0.277h0ZM194.75,7.648a1.91,1.91,0,0,1,.241-0.277V7.133a0.385,0.385,0,0,0-.322-0.158,0.284,0.284,0,0,1-.282-0.2,0.187,0.187,0,0,0-.121.277,0.325,0.325,0,0,0,.121.2,0.727,0.727,0,0,1,.121.257,0.722,0.722,0,0,1-.121.257,0.07,0.07,0,0,0-.08.079,0.412,0.412,0,0,0,.141.238c0.066,0.053.141,0.106,0.221,0.158a1.281,1.281,0,0,0,.363-0.079l-0.282-.277V7.648Zm21.388,7.719a0.379,0.379,0,0,0-.14.317q0.019,0.159.06,0.356a1.427,1.427,0,0,1,.282.277,0.721,0.721,0,0,0,.322.237,0.158,0.158,0,0,0,.1-0.158,0.217,0.217,0,0,1,.02-0.158,1.894,1.894,0,0,1-.242-0.277,0.216,0.216,0,0,0,.1-0.079,0.305,0.305,0,0,1,.06-0.079,0.308,0.308,0,0,0-.04-0.435h-0.524Zm0.242,7.6a0.887,0.887,0,0,0,.2-0.178,2.122,2.122,0,0,1,.161-0.178,1.359,1.359,0,0,1,.02-0.237,0.494,0.494,0,0,0-.02-0.238,0.224,0.224,0,0,0-.081-0.119h-0.483a0.066,0.066,0,0,0-.061.04,0.218,0.218,0,0,1-.1.079V22.61Zm0.242-2.217h0.08a0.219,0.219,0,0,0,.081-0.119V19.919a0.211,0.211,0,0,1-.1-0.079,0.1,0.1,0,0,0-.1-0.04,2.257,2.257,0,0,1-.282-0.02,0.3,0.3,0,0,0-.282.139v0.237ZM194.629,2.819c-0.081.079-.108,0.132-0.081,0.158a0.187,0.187,0,0,0,.2.119,3.744,3.744,0,0,1,.664-0.02,3.643,3.643,0,0,0,.665-0.02,0.167,0.167,0,0,0,.121-0.04c0.053-.053.04-0.105-0.04-0.158a1.1,1.1,0,0,0-.544-0.02,0.927,0.927,0,0,1-.5-0.02L194.991,2.7l-0.12-.119Zm21.348,27.788a1.507,1.507,0,0,1-.362.04,2.738,2.738,0,0,1-.363.317,0.855,0.855,0,0,0,.2.158,0.366,0.366,0,0,1,.322.119,0.2,0.2,0,0,0,.081.1c0.026,0.014.04,0.007,0.04-.02a1.316,1.316,0,0,0,.2-0.158L216.259,31V30.725A0.261,0.261,0,0,0,215.977,30.606Zm0.041-6.056v0.2a0.232,0.232,0,0,0,.12.2h0.484a0.663,0.663,0,0,0,.161-0.257,0.5,0.5,0,0,0-.121-0.218l-0.242-.238h-0.282a0.355,0.355,0,0,0-.12.317h0ZM197.126,2.581a0.484,0.484,0,0,0-.121.237,0.688,0.688,0,0,0,.121.277h0.363a0.167,0.167,0,0,0,.121-0.04,0.117,0.117,0,0,0,.08-0.04,0.113,0.113,0,0,1,.04-0.079,0.249,0.249,0,0,1-.181-0.277,0.317,0.317,0,0,0-.181-0.317Zm6,32.458a0.9,0.9,0,0,0,.141.119,1.038,1.038,0,0,1,.141.119h0.181a0.224,0.224,0,0,0,.181-0.119,0.883,0.883,0,0,1-.2-0.178,0.694,0.694,0,0,0-.282-0.178,1.963,1.963,0,0,0-.443.04c-0.135,0-.161.066-0.081,0.2h0.363Zm13.353-7.2a2.2,2.2,0,0,0-.181.158c0.026,0.132.08,0.192,0.161,0.178a1.3,1.3,0,0,1,.2-0.02l0.161-.158,0.161-.158q-0.041-.2-0.141-0.178a0.912,0.912,0,0,1-.181.02A2.139,2.139,0,0,1,216.481,27.835ZM194.951,3.412a0.3,0.3,0,0,0-.221-0.079,0.185,0.185,0,0,0-.182.079V3.492a0.3,0.3,0,0,0,.222.079,0.183,0.183,0,0,0,.181-0.079V3.412Zm20.06,28.065a0.071,0.071,0,0,0-.081-0.079c-0.054-.053-0.108-0.026-0.161.079V31.6a0.159,0.159,0,0,0,.081.2c0.107,0.053.161-.013,0.161-0.2V31.477Zm-6.244-12.033a0.952,0.952,0,0,1-.121-0.139,1.031,1.031,0,0,0-.12-0.139,1.935,1.935,0,0,0,.241-0.277,1.3,1.3,0,0,0-.08-0.317h-0.766a0.312,0.312,0,0,0-.04.475,0.181,0.181,0,0,1,.081.2,0.856,0.856,0,0,1-.2.158v0.515l0.161,0.158,0.161,0.158a2.474,2.474,0,0,0,.605.2,2.782,2.782,0,0,1-.383.257c-0.121.066-.222,0.125-0.3,0.178a0.454,0.454,0,0,1-.2.475,0.077,0.077,0,0,1-.02.059,0.083,0.083,0,0,0-.02.059V23.8a0.081,0.081,0,0,0,.02.059,0.079,0.079,0,0,1,.02.059,0.552,0.552,0,0,1,.242.3,0.843,0.843,0,0,1-.282.376v0.752a0.3,0.3,0,0,1,.121.1,0.89,0.89,0,0,0,.121.139l-0.242.238v0.237l0.141,0.139a0.541,0.541,0,0,1,.1.139,0.206,0.206,0,0,1-.04.277,0.386,0.386,0,0,0-.162.238l0.444,0.435a0.324,0.324,0,0,1,.02.2,0.14,0.14,0,0,0,.141.158,2.872,2.872,0,0,1,.362-0.317V19.444ZM202.524,10.7v8.233a0.374,0.374,0,0,0,.161.119,0.24,0.24,0,0,0,.322-0.119V18.692a0.947,0.947,0,0,0,.121-0.139,0.3,0.3,0,0,1,.121-0.1v-0.99a0.188,0.188,0,0,0-.2-0.119,0.576,0.576,0,0,1-.241-0.079,0.305,0.305,0,0,1-.041-0.2V16.712a5.167,5.167,0,0,1,.484-0.435V16a1.034,1.034,0,0,0-.242-0.238,0.942,0.942,0,0,0,.121-0.139,0.918,0.918,0,0,1,.121-0.138V14.258c-0.081-.079-0.161-0.152-0.242-0.218a0.723,0.723,0,0,1-.2-0.3,0.206,0.206,0,0,1,.2-0.079,0.225,0.225,0,0,0,.242-0.2,2.744,2.744,0,0,1,.02-0.356,0.726,0.726,0,0,0-.06-0.356,0.706,0.706,0,0,1-.2-0.336,0.7,0.7,0,0,1,.242-0.337,1.048,1.048,0,0,0,.02-0.534,0.981,0.981,0,0,1,.06-0.574,0.929,0.929,0,0,0,.182-0.02,0.951,0.951,0,0,1,.181-0.02h2.981a0.035,0.035,0,0,0,.04-0.04l0.04-.04a0.226,0.226,0,0,0-.08-0.119,1.609,1.609,0,0,0-.262-0.059,0.293,0.293,0,0,1-.222-0.178,0.279,0.279,0,0,1-.121-0.02,0.286,0.286,0,0,0-.12-0.02h-3.263c-0.027,0-.04.007-0.04,0.02s-0.014.02-.041,0.02h0a0.2,0.2,0,0,0-.08.2h0Zm5.438,5.245a0.7,0.7,0,0,0,.241.178h0.282a0.247,0.247,0,0,0,.282-0.277V15.525a1.974,1.974,0,0,0-.241-0.277,0.588,0.588,0,0,0,.1-0.119,0.218,0.218,0,0,1,.1-0.079,0.079,0.079,0,0,1,.02-0.059,0.081,0.081,0,0,0,.02-0.059V11.883a0.1,0.1,0,0,0-.04-0.1,0.212,0.212,0,0,1-.081-0.1h-0.241c-0.216-.29-0.161-0.448.161-0.475a0.927,0.927,0,0,0,.2-0.119V10.577a0.177,0.177,0,0,0-.181-0.1c-0.067.014-.088,0.02-0.06,0.02a0.516,0.516,0,0,1-.262-0.178,0.141,0.141,0,0,0-.182-0.059,0.427,0.427,0,0,1-.443.2l-0.241-.237h-0.121c-0.081-.053-0.148-0.026-0.2.079q-0.081.08,0.081,0.158a0.232,0.232,0,0,1,.121.2q-0.081.317,0.282,0.277a0.238,0.238,0,0,1,.2.119v4.671A2.964,2.964,0,0,1,207.962,15.941Zm-4.713,6.709c0-.079-0.054-0.119-0.161-0.119a0.871,0.871,0,0,0-.161-0.059,0.349,0.349,0,0,1-.162-0.1c-0.08-.079-0.134-0.105-0.161-0.079a0.224,0.224,0,0,0-.08.237v4.631a0.272,0.272,0,0,0,.282.277h0.362l0.2,0.2c0.026,0,.04.007,0.04,0.02s0.013,0.02.04,0.02a0.266,0.266,0,0,0,.322-0.277V27.044a0.349,0.349,0,0,0-.241-0.119,0.2,0.2,0,0,1-.282-0.158V25.342l0.121-.119a0.334,0.334,0,0,0,0-.515,0.928,0.928,0,0,0-.323-0.317,0.665,0.665,0,0,1-.04-0.277,1.952,1.952,0,0,0,.242-0.277V22.65Zm1.128,4.275a0.334,0.334,0,0,0-.121.2c-0.054.211,0.04,0.317,0.282,0.317h1.853a1.033,1.033,0,0,1,.241.238h0.121a0.208,0.208,0,0,0,.2-0.079,0.181,0.181,0,0,0-.081-0.2l-0.483-.475h-2.014Zm-1.551-5.641a0.117,0.117,0,0,1,.141.059,0.1,0.1,0,0,1-.04.139,1.44,1.44,0,0,0-.162.139,0.483,0.483,0,0,0,.222.158,0.766,0.766,0,0,0,.262-0.119V21.146l-0.242-.238,0.2-.2,0.04-.079V20.394a0.036,0.036,0,0,0-.04-0.04,0.035,0.035,0,0,1-.041-0.04,0.562,0.562,0,0,1-.241-0.04,0.24,0.24,0,0,1-.162-0.158,0.136,0.136,0,0,1-.02-0.119,0.136,0.136,0,0,0-.02-0.119l-0.08-.079a0.07,0.07,0,0,0-.081.079,0.185,0.185,0,0,0-.06.178,0.939,0.939,0,0,1,.02.178v1.029h0A0.836,0.836,0,0,0,202.826,21.284Zm5.216-4.493a0.471,0.471,0,0,0-.02.238,0.324,0.324,0,0,1-.06.238l-0.081.079c-0.108.053-.135,0.106-0.081,0.158a0.224,0.224,0,0,0,.121.079h0.725a0.422,0.422,0,0,0,.121-0.317v-0.2a0.232,0.232,0,0,0-.121-0.2h-0.282a0.787,0.787,0,0,0-.2-0.277,0.322,0.322,0,0,0-.121.2h0Zm0.6,1.544c0.081-.079.107-0.132,0.081-0.158a0.224,0.224,0,0,0-.081-0.119h-0.483a0.321,0.321,0,0,0-.121.2,0.071,0.071,0,0,1,.081.079h0.523Z"/>
</svg>
