<svg height="512pt" viewBox="-11 0 511 512" width="512pt" xmlns="http://www.w3.org/2000/svg"><path d="m489.0625 139.960938v232.429687c-.0625 1.824219-.601562 3.5625-1.53125 5.066406-.871094 1.429688-2.09375 2.640625-3.585938 3.511719l-.042968.03125-234.261719 129.789062c-1.523437.816407-3.191406 1.210938-4.859375 1.210938v-242.800781l154.011719-85.335938h.011719l88.808593-49.195312c.933594 1.574219 1.449219 3.398437 1.449219 5.292969zm0 0" fill="#12a2a8"/><path d="m487.53125 377.457031c-.871094 1.429688-2.09375 2.640625-3.585938 3.511719l-.042968.03125-234.261719 129.789062c-1.523437.816407-3.191406 1.210938-4.859375 1.210938v-88.777344l88.082031-48.8125 65.941407-36.523437zm0 0" fill="#1dd1d9"/><path d="m244.78125 269.199219v242.800781c-1.667969 0-3.335938-.394531-4.859375-1.210938l-234.304687-129.820312c-1.488282-.871094-2.714844-2.082031-3.582032-3.511719-.984375-1.605469-1.535156-3.472656-1.535156-5.421875v-232.074218c0-1.894532.519531-3.71875 1.449219-5.292969l88.808593 49.195312.011719.007813zm0 0" fill="#1dd1d9"/><path d="m90.769531 183.863281v154.023438h-.007812l-88.726563 39.570312c-.984375-1.605469-1.535156-3.472656-1.535156-5.417969v-232.078124c0-1.894532.519531-3.71875 1.453125-5.292969l88.808594 49.195312zm0 0" fill="#3fefef"/><path d="m487.613281 134.667969-88.808593 49.195312h-.007813l-154.015625 85.335938-154.011719-85.324219-.007812-.011719-88.808594-49.195312c.890625-1.503907 2.164063-2.785157 3.738281-3.6875l234.230469-129.769531c1.523437-.816407 3.191406-1.210938 4.859375-1.210938s3.335938.394531 4.859375 1.210938l234.230469 129.769531c1.574218.898437 2.851562 2.183593 3.742187 3.6875zm0 0" fill="#3fefef"/><path d="m487.613281 134.667969-88.808593 49.195312h-.007813l-154.015625-85.328125v-98.535156c1.667969 0 3.335938.394531 4.859375 1.210938l234.230469 129.769531c1.574218.898437 2.851562 2.183593 3.742187 3.6875zm0 0" fill="#12a2a8"/><path d="m402.277344 188.367188v145.015624c0 3.835938-2.089844 7.375-5.4375 9.25l-147.078125 81.484376c-1.558594.835937-3.261719 1.238281-4.980469 1.238281v-155.96875l156-86.433594c.964844 1.613281 1.496094 3.476563 1.496094 5.414063zm0 0" fill="#f01054"/><path d="m244.78125 269.386719v155.96875c-1.714844 0-3.421875-.402344-4.980469-1.238281l-147.078125-81.488282c-3.347656-1.875-5.433594-5.414062-5.433594-9.246094v-145.015624c0-1.9375.527344-3.800782 1.492188-5.414063zm0 0" fill="#fc3e81"/><g fill="#fd82ac"><path d="m400.78125 182.953125-156 86.4375-156-86.4375c.933594-1.578125 2.289062-2.921875 3.964844-3.84375l146.941406-81.402344c3.070312-1.695312 6.789062-1.746093 9.914062-.15625l104.148438 57.699219 43.058594 23.859375c1.675781.921875 3.03125 2.265625 3.972656 3.84375zm0 0"/><path d="m354.636719 337.554688c-2.796875 0-5.507813-1.476563-6.960938-4.09375-2.125-3.839844-.738281-8.675782 3.101563-10.804688l18.703125-10.359375c3.835937-2.125 8.675781-.742187 10.800781 3.097656 2.128906 3.839844.738281 8.675781-3.097656 10.804688l-18.703125 10.359375c-1.222657.675781-2.542969.996094-3.84375.996094zm0 0"/><path d="m354.636719 315.011719c-2.796875 0-5.507813-1.480469-6.960938-4.097657-2.125-3.839843-.738281-8.675781 3.101563-10.800781l18.703125-10.363281c3.835937-2.125 8.675781-.738281 10.800781 3.101562 2.125 3.839844.738281 8.675782-3.101562 10.800782l-18.703126 10.363281c-1.21875.671875-2.539062.996094-3.839843.996094zm0 0"/></g></svg>