<?xml version="1.0" encoding="UTF-8" standalone="no"?>
<!DOCTYPE svg PUBLIC "-//W3C//DTD SVG 1.1//EN" "http://www.w3.org/Graphics/SVG/1.1/DTD/svg11.dtd">
<svg width="100%" height="100%" viewBox="0 0 1207 1207" version="1.1" xmlns="http://www.w3.org/2000/svg" xmlns:xlink="http://www.w3.org/1999/xlink" xml:space="preserve" xmlns:serif="http://www.serif.com/" style="fill-rule:evenodd;clip-rule:evenodd;stroke-linejoin:round;stroke-miterlimit:1.41421;">
    <g id="Artboard1" transform="matrix(1,0,0,1,-901.508,-970.729)">
        <rect x="901.508" y="970.729" width="1206.37" height="1206.37" style="fill:none;"/>
        <clipPath id="_clip1">
            <rect x="901.508" y="970.729" width="1206.37" height="1206.37"/>
        </clipPath>
        <g clip-path="url(#_clip1)">
            <g id="MINDMASTERS" transform="matrix(8.33333,0,0,8.33333,-81612,-91760.3)">
                <text x="9945px" y="11216.4px" style="font-family:'LucidaGrande', 'Lucida Grande', sans-serif;font-weight:500;font-size:7px;fill:white;">M<tspan x="9954.47px 9959.92px 9968.53px 9977.22px 9986.68px 9994.95px 10002.2px 10010px 10017.3px 10025.1px " y="11216.4px 11216.4px 11216.4px 11216.4px 11216.4px 11216.4px 11216.4px 11216.4px 11216.4px 11216.4px ">INDMASTERS</tspan></text>
            </g>
            <g id="HARPER" transform="matrix(8.33333,0,0,8.33333,-81612,-91989.5)">
                <text x="9944.62px" y="11231.8px" style="font-family:'LucidaGrande', 'Lucida Grande', sans-serif;font-weight:500;font-size:27px;fill:white;">HARPER</text>
            </g>
            <g id="Icon" transform="matrix(1,0,0,1,0.508101,30.7293)">
                <path d="M1171.98,1557.16L1171.98,1557.16L1171.98,1557.15L1215,1531.32L1184.91,1481.12L1184.91,1481.12L1159.09,1438.06L1159.09,1438.06L1133.28,1395L1083.11,1425.11L1108.92,1468.18L1073.04,1489.72L1073.04,1489.72L1022.87,1519.85L1022.87,1519.85L986.979,1541.4L961.16,1498.35L910.997,1528.45L941.085,1578.65L941.089,1578.65L966.906,1621.72L966.91,1621.72L992.719,1664.78L1035.76,1638.94L1061.57,1682L1104.59,1656.17L1104.6,1656.18L1154.76,1626.05L1154.76,1626.05L1197.79,1600.22L1171.98,1557.16ZM1084.42,1524.91L1091.71,1537.07L1091.7,1537.07L1091.71,1537.07L1055.82,1558.62L1041.58,1534.87L1034.29,1522.71L1070.17,1501.16L1084.42,1524.91ZM1052.96,1570.06L1052.96,1570.06L1052.96,1570.06L1074.5,1605.97L1050.77,1620.22L1038.61,1627.52L1017.08,1591.6L1040.81,1577.35L1052.96,1570.06ZM1093.21,1620.99L1085.92,1608.83L1085.93,1608.83L1085.92,1608.83L1121.81,1587.28L1136.05,1611.03L1143.34,1623.19L1107.45,1644.74L1093.21,1620.99ZM1124.67,1575.84L1124.67,1575.84L1124.67,1575.84L1103.13,1539.93L1126.86,1525.68L1139.02,1518.38L1160.55,1554.3L1136.82,1568.55L1124.67,1575.84ZM1159.83,1496.18L1141.87,1506.95L1131.11,1489L1120.34,1471.04L1138.28,1460.26L1156.23,1449.48L1177.78,1485.4L1159.83,1496.18ZM1130.42,1406.42L1151.95,1442.34L1134.01,1453.12L1116.06,1463.89L1094.52,1427.97L1130.42,1406.42ZM1027.15,1526.99L1034.09,1538.57L1048.68,1562.91L1037.12,1569.86L1012.79,1584.46L1002.02,1566.5L991.262,1548.55L991.264,1548.55L991.262,1548.54L1027.15,1526.99ZM958.298,1509.76L979.836,1545.68L955.515,1560.29L943.944,1567.23L922.407,1531.32L958.298,1509.76ZM974.041,1617.44L991.987,1606.66L1009.94,1595.89L1031.47,1631.8L995.579,1653.36L974.041,1617.44ZM1128.95,1582.99L1140.51,1576.04L1164.84,1561.44L1186.37,1597.36L1150.48,1618.91L1143.54,1607.33L1128.95,1582.99Z" style="fill:white;fill-rule:nonzero;"/>
            </g>
        </g>
    </g>
</svg>
