<?xml version="1.0" encoding="iso-8859-1"?>
<!-- Generator: Adobe Illustrator 19.0.0, SVG Export Plug-In . SVG Version: 6.00 Build 0)  -->
<svg version="1.1" id="Layer_1" xmlns="http://www.w3.org/2000/svg" xmlns:xlink="http://www.w3.org/1999/xlink" x="0px" y="0px"
	 viewBox="0 0 512 512" style="enable-background:new 0 0 512 512;" xml:space="preserve">
<g>
	<path style="fill:#FFD76E;" d="M255.398,119.868c-30.556,0-55.416-24.859-55.416-55.416s24.86-55.416,55.416-55.416
		s55.416,24.859,55.416,55.416S285.954,119.868,255.398,119.868z"/>
	<path style="fill:#FFD76E;" d="M318.042,243.953H193.958c-9.98,0-18.071-8.091-18.071-18.071v-61.939
		c0-23.639,19.232-42.871,42.871-42.871h74.485c23.639,0,42.871,19.232,42.871,42.871v61.939
		C336.113,235.862,328.022,243.953,318.042,243.953z"/>
	<path style="fill:#FFD76E;" d="M79.511,378.88c-30.556,0-55.416-24.86-55.416-55.416s24.86-55.416,55.416-55.416
		s55.416,24.86,55.416,55.416S110.067,378.88,79.511,378.88z"/>
	<path style="fill:#FFD76E;" d="M142.155,502.965H18.071C8.091,502.965,0,494.874,0,484.894v-61.939
		c0-23.639,19.232-42.871,42.871-42.871h74.485c23.639,0,42.871,19.232,42.871,42.871v61.939
		C160.226,494.874,152.135,502.965,142.155,502.965z"/>
	<path style="fill:#FFD76E;" d="M431.285,378.88c-30.556,0-55.416-24.86-55.416-55.416s24.86-55.416,55.416-55.416
		s55.416,24.86,55.416,55.416S461.841,378.88,431.285,378.88z"/>
	<path style="fill:#FFD76E;" d="M492.725,502.965H368.64c-9.98,0-18.071-8.091-18.071-18.071v-61.939
		c0-23.639,19.232-42.871,42.871-42.871h74.485c23.639,0,42.871,19.232,42.871,42.871v61.939
		C510.795,494.874,502.704,502.965,492.725,502.965z"/>
</g>
<path style="fill:#48AEE2;" d="M320.669,405.832l-47.2-47.2v-66.49c0-9.98-8.091-18.071-18.071-18.071
	c-9.98,0-18.071,8.091-18.071,18.071v66.49l-47.2,47.2c-7.057,7.057-7.057,18.498,0,25.555c7.056,7.057,18.498,7.058,25.555,0
	l39.716-39.716l39.716,39.716c7.056,7.057,18.498,7.058,25.555,0C327.726,424.33,327.726,412.889,320.669,405.832z"/>
<g>
	<path style="fill:#F5AA2C;" d="M255.398,9.035c-0.202,0-0.401,0.013-0.602,0.016v110.803c0.201,0.002,0.4,0.016,0.602,0.016
		c30.556,0,55.416-24.859,55.416-55.416S285.954,9.035,255.398,9.035z"/>
	<path style="fill:#F5AA2C;" d="M293.242,121.073h-38.447v122.88h63.247c9.98,0,18.071-8.091,18.071-18.071v-61.939
		C336.113,140.305,316.881,121.073,293.242,121.073z"/>
	<path style="fill:#F5AA2C;" d="M431.285,268.047c-0.202,0-0.401,0.013-0.602,0.016v110.803c0.201,0.002,0.4,0.016,0.602,0.016
		c30.556,0,55.416-24.859,55.416-55.416S461.841,268.047,431.285,268.047z"/>
	<path style="fill:#F5AA2C;" d="M469.129,380.085h-38.447v122.88h63.247c9.98,0,18.071-8.091,18.071-18.071v-61.939
		C512,399.317,492.768,380.085,469.129,380.085z"/>
	<path style="fill:#F5AA2C;" d="M80.715,268.047c-0.202,0-0.401,0.013-0.602,0.016v110.803c0.201,0.002,0.4,0.016,0.602,0.016
		c30.556,0,55.416-24.859,55.416-55.416S111.271,268.047,80.715,268.047z"/>
	<path style="fill:#F5AA2C;" d="M118.56,380.085H80.113v122.88h63.247c9.98,0,18.071-8.091,18.071-18.071v-61.939
		C161.431,399.317,142.199,380.085,118.56,380.085z"/>
</g>
<path style="fill:#4390CB;" d="M320.669,405.832l-47.2-47.2v-66.49c0-9.98-8.091-18.071-18.071-18.071
	c-0.204,0-0.401,0.024-0.602,0.03v118.173l0.602-0.602l39.716,39.716c7.056,7.057,18.498,7.058,25.555,0
	C327.726,424.33,327.726,412.889,320.669,405.832z"/>
<g>
</g>
<g>
</g>
<g>
</g>
<g>
</g>
<g>
</g>
<g>
</g>
<g>
</g>
<g>
</g>
<g>
</g>
<g>
</g>
<g>
</g>
<g>
</g>
<g>
</g>
<g>
</g>
<g>
</g>
</svg>
