<svg width="121" height="47" viewBox="0 0 121 47" fill="none" xmlns="http://www.w3.org/2000/svg">
<path d="M50.4659 24C48.9459 24 47.7059 24.52 46.7459 25.56C45.8259 26.6 45.3659 27.82 45.3659 29.22C45.3659 30.7 45.8459 31.96 46.8059 33C47.7659 34.04 49.0059 34.56 50.5259 34.56C52.0459 34.56 53.2859 34.04 54.2459 33C55.2059 31.96 55.6859 30.7 55.6859 29.22C55.6859 27.82 55.1859 26.6 54.1859 25.56C53.2259 24.52 51.9859 24 50.4659 24Z" fill="#F33F59"/>
<path fill-rule="evenodd" clip-rule="evenodd" d="M34.5866 38.1608C32.6506 35.3407 31.5258 31.9748 31.5258 28.36C31.5258 25.2032 32.3836 22.2362 33.8904 19.6568C33.5813 19.1461 33.2445 18.6538 32.88 18.18C31.68 16.62 30.18 15.36 28.38 14.4C26.58 13.44 24.5 12.96 22.14 12.96C20.62 12.96 19.1 13.26 17.58 13.86C16.06 14.42 14.84 15.24 13.92 16.32H13.8V0H0V45.36H12.42V42.06H12.54C13.46 43.34 14.8 44.36 16.56 45.12C18.32 45.84 20.18 46.2 22.14 46.2C24.5 46.2 26.58 45.72 28.38 44.76C30.18 43.8 31.68 42.54 32.88 40.98C33.5395 40.1007 34.1084 39.161 34.5866 38.1608ZM67.1039 37.1607V45.36H80.9639V30.06C80.9639 28.54 81.5039 27.26 82.5839 26.22C83.2119 25.6153 83.9616 25.1864 84.833 24.9333C84.483 26.3328 84.308 27.8417 84.308 29.46C84.308 32.18 84.788 34.6 85.748 36.72C86.748 38.84 88.068 40.64 89.708 42.12C91.348 43.56 93.248 44.66 95.408 45.42C97.608 46.18 99.888 46.56 102.248 46.56C104.648 46.56 106.928 46.18 109.088 45.42C111.288 44.66 113.208 43.56 114.848 42.12C116.528 40.64 117.848 38.84 118.808 36.72C119.808 34.6 120.308 32.18 120.308 29.46C120.308 26.78 119.808 24.4 118.808 22.32C117.848 20.2 116.528 18.42 114.848 16.98C113.208 15.54 111.288 14.46 109.088 13.74C106.928 12.98 104.648 12.6 102.248 12.6C99.888 12.6 97.608 12.98 95.408 13.74C93.6509 14.3257 92.0658 15.1496 90.6528 16.2118L90.9239 13.26C90.2439 13.06 89.3639 12.96 88.2839 12.96C86.4839 12.96 84.9039 13.38 83.5439 14.22C82.2239 15.06 81.2239 16.12 80.5439 17.4H80.4239V13.8H67.1039C64.9563 13.7326 63.1359 13.7151 61.6282 13.7511C66.412 17.0198 69.5258 22.3454 69.5258 28.36C69.5258 31.5566 68.6463 34.5587 67.1039 37.1607ZM23.7 29.46C23.7 28.06 23.26 26.84 22.38 25.8C21.5 24.76 20.22 24.24 18.54 24.24C16.9 24.24 15.58 24.76 14.58 25.8C13.62 26.84 13.14 28.06 13.14 29.46C13.14 30.94 13.62 32.2 14.58 33.24C15.58 34.28 16.9 34.8 18.54 34.8C20.22 34.8 21.5 34.3 22.38 33.3C23.26 32.26 23.7 30.98 23.7 29.46ZM98.528 25.8C99.488 24.76 100.728 24.24 102.248 24.24C103.768 24.24 105.008 24.76 105.968 25.8C106.968 26.84 107.468 28.06 107.468 29.46C107.468 30.94 106.988 32.2 106.028 33.24C105.068 34.28 103.828 34.8 102.308 34.8C100.788 34.8 99.548 34.28 98.588 33.24C97.628 32.2 97.148 30.94 97.148 29.46C97.148 28.06 97.608 26.84 98.528 25.8Z" fill="#5C5C5C"/>
</svg>
