<?xml version="1.0" encoding="UTF-8" standalone="no"?>
<!DOCTYPE svg PUBLIC "-//W3C//DTD SVG 1.1//EN" "http://www.w3.org/Graphics/SVG/1.1/DTD/svg11.dtd">
<svg width="100%" height="100%" viewBox="0 0 1351 1351" version="1.1" xmlns="http://www.w3.org/2000/svg" xmlns:xlink="http://www.w3.org/1999/xlink" xml:space="preserve" xmlns:serif="http://www.serif.com/" style="fill-rule:evenodd;clip-rule:evenodd;stroke-linejoin:round;stroke-miterlimit:1.41421;">
    <g id="Artboard1" transform="matrix(1,0,0,1,-876.036,-828.728)">
        <rect x="876.036" y="828.728" width="1350.92" height="1350.92" style="fill:none;"/>
        <g id="PARIS-SOUVENIERS" serif:id="PARIS SOUVENIERS" transform="matrix(8.33333,0,0,8.33333,-72154.1,-62403.4)">
            <text x="8779.36px" y="7695.89px" style="font-family:'Montserrat-Regular', 'Montserrat';font-size:7px;fill:white;">P<tspan x="8788.12px 8797.18px 8806.29px 8812.45px 8820.8px 8826.68px 8835.03px 8844.95px 8854.54px 8863.37px 8872.1px 8881.84px 8888px 8896.73px 8905.83px " y="7695.89px 7695.89px 7695.89px 7695.89px 7695.89px 7695.89px 7695.89px 7695.89px 7695.89px 7695.89px 7695.89px 7695.89px 7695.89px 7695.89px 7695.89px ">ARIS SOUVENIERS</tspan></text>
        </g>
        <g id="Frame" transform="matrix(1,0,0,1,0.0355495,0.727978)">
            <path d="M2209,1608.61L2209,1625L896,1625L896,1608.61L2209,1608.61ZM2209,1358.32L2209,1599.67L896,1599.67L896,1358.32L2209,1358.32ZM2209,1333L2209,1349.39L896,1349.39L896,1333L2209,1333Z" style="fill:white;"/>
        </g>
        <g id="Art-Créme" serif:id="Art&amp;Créme" transform="matrix(8.33333,0,0,8.33333,-72154.1,-62653.4)">
            <text x="8793.79px" y="7701.04px" style="font-family:'Montserrat-Regular', 'Montserrat';font-size:14.2px;fill:black;">A<tspan x="8806.82px 8815.56px 8824.04px 8836.38px 8849.43px 8857.78px 8869.19px 8887.13px " y="7701.04px 7701.04px 7701.04px 7701.04px 7701.04px 7701.04px 7701.04px 7701.04px ">rt&amp;Créme</tspan></text>
        </g>
    </g>
</svg>
