<?xml version="1.0" encoding="UTF-8" standalone="no"?>
<!DOCTYPE svg PUBLIC "-//W3C//DTD SVG 1.1//EN" "http://www.w3.org/Graphics/SVG/1.1/DTD/svg11.dtd">
<svg width="100%" height="100%" viewBox="0 0 1711 1711" version="1.1" xmlns="http://www.w3.org/2000/svg" xmlns:xlink="http://www.w3.org/1999/xlink" xml:space="preserve" xmlns:serif="http://www.serif.com/" style="fill-rule:evenodd;clip-rule:evenodd;stroke-linejoin:round;stroke-miterlimit:1.41421;">
    <g id="Artboard1" transform="matrix(1,0,0,1,-640.612,-643.991)">
        <rect x="640.612" y="643.991" width="1710.17" height="1710.17" style="fill:none;"/>
        <g transform="matrix(9.16667,0,0,8.33333,-80877.8,-62611.5)">
            <text id="PHOTOGRAPHY" x="8944.06px" y="7726.6px" style="font-family:'LucidaGrande', 'Lucida Grande', sans-serif;font-weight:500;font-size:10.5px;fill:white;">PHOTOGRAPHY</text>
        </g>
        <g id="BRIAN-MITCHELL-" serif:id="BRIAN MITCHELL " transform="matrix(8.33333,0,0,8.33333,-73424.4,-63007.3)">
            <g transform="matrix(1.1,0,0,1,-894.35,0)">
                <text x="8943.5px" y="7740.09px" style="font-family:'LucidaGrande', 'Lucida Grande', sans-serif;font-weight:500;font-size:28px;fill:white;">BRIAN</text>
            </g>
            <g transform="matrix(1.1,0,0,1,-894.35,0)">
                <text x="8943.5px" y="7762.59px" style="font-family:'LucidaGrande', 'Lucida Grande', sans-serif;font-weight:500;font-size:28px;fill:white;">MITCHELL</text>
            </g>
        </g>
        <g id="Man-Icon" serif:id="Man Icon" transform="matrix(1,0,0,1,0.612129,0.990682)">
            <path d="M997.336,1664.72C994.185,1682.62 973.995,1685.74 971.589,1704.35C969.49,1720.62 948.235,1744.14 943.389,1714.82C940.252,1695.76 951.277,1670.37 925.6,1662.66C913.243,1658.95 883.81,1641.15 871.777,1644.99C849.38,1652.15 836.033,1641.6 815.223,1652.71C797.592,1662.11 779.486,1657.66 769.223,1680.14C765.152,1689.06 766.347,1703.44 768.029,1712.93C770.432,1726.52 760.474,1725.49 749.02,1730.84C747.611,1708.75 728.758,1699.26 724.291,1679.56C718.909,1655.89 713.541,1632.22 708.163,1608.55C708.325,1666.26 716.57,1715.8 744.313,1766.87C752.289,1781.58 769.407,1830.75 783.334,1839.35C810.3,1856 831.485,1872.59 863.438,1874.83C880.103,1876 878.587,1861.65 892.178,1859.55C914.663,1856.08 905.013,1854.95 915.285,1838.05C931.643,1811.13 949.839,1785.72 966.596,1758.97C981.456,1735.24 994.259,1711.57 1004.62,1685.67C1014.09,1661.94 1009.09,1623.71 1009.01,1598.66C1005.12,1620.69 1001.23,1642.71 997.336,1664.72ZM925.912,1729.12C926.123,1734.89 907.083,1744.65 902.264,1748.18C892.973,1750.62 883.693,1753.06 874.407,1755.5C880.061,1727.95 828.616,1725.68 834.613,1753.84C816.438,1751.75 782.913,1741.75 787.489,1718.28C792.451,1692.85 817.816,1691.5 842.404,1692.91C867.646,1694.37 892.743,1695.48 917.822,1698.66C930.565,1700.29 925.502,1717.76 925.912,1729.12ZM1033.08,1496.75C1032.7,1476.93 1027.04,1456.86 1029.82,1437.37C1033.79,1409.35 1027.2,1396.12 1016.58,1369.54C1007.84,1347.68 1009.5,1331.1 1012.83,1308.64C1007.76,1312.25 1002.7,1315.87 997.619,1319.49C998.348,1312.62 999.082,1305.74 999.807,1298.87C996.983,1301.7 991.959,1302.29 988.919,1304.92C985.304,1295.3 981.692,1285.69 978.081,1276.07C975.904,1282.58 973.741,1289.1 971.564,1295.61C963.971,1280.77 956.362,1265.94 948.768,1251.11C950.577,1264.14 952.394,1277.16 954.204,1290.18C944.128,1278.63 927.35,1265.51 920.742,1251.79C914.165,1238.11 914.388,1216.9 911.649,1201.87C909.907,1213.59 908.175,1225.29 906.437,1236.99C900.478,1214.99 900.052,1211.32 880.382,1200.09C883.753,1210.83 887.139,1221.57 890.506,1232.32C885.329,1225.56 880.138,1218.8 874.961,1212.03C873.83,1214.54 872.711,1217.04 871.58,1219.54C864.784,1214.47 857.981,1209.41 851.186,1204.33C851.444,1208.64 849.43,1213.2 849.995,1217.46C843.832,1207.69 837.687,1197.92 831.524,1188.15C831.182,1195.03 830.803,1201.91 830.45,1208.78C823.806,1201.52 817.16,1194.26 810.519,1187C798.748,1212.78 766.385,1199.21 746.862,1193.58C751.922,1199.01 756.996,1204.44 762.064,1209.86C738.741,1216.92 740.967,1217.09 740.394,1241.49C740.052,1255.95 714.471,1249.8 708.089,1244.65C707.626,1254.4 707.156,1264.15 706.697,1273.9C701.456,1272.31 695.575,1272.48 690.42,1270.65C695.911,1280.76 701.392,1290.88 706.887,1300.99C701.035,1303.9 695.182,1306.81 689.334,1309.72C693.643,1316.18 697.947,1322.64 702.261,1329.09C678.249,1339.6 665.309,1354.86 647,1373.75C657.495,1369.78 667.977,1365.8 678.468,1361.82C674.998,1368.36 671.521,1374.91 668.05,1381.45C674.779,1379.61 681.511,1377.76 688.239,1375.93C679.585,1414.01 684.154,1454.98 690.653,1495.68C687.628,1498.96 685.872,1502.96 685.872,1507.87C685.872,1521.07 693.328,1527.62 697.78,1538.58C699.795,1550.99 701.611,1563.27 702.89,1575.32C702.983,1573.21 703.11,1571.1 703.226,1568.99C705.067,1576.88 708.007,1584.5 712.562,1591.18C742.19,1634.51 807.781,1615.48 833.121,1578.33C851.069,1551.99 857.614,1495.3 877.686,1555.11C892.743,1600.03 944.965,1631.57 990.428,1608.38C1004.77,1601.07 1014.03,1587.69 1018.41,1572.51C1018.54,1573.48 1018.66,1574.49 1018.82,1575.41C1023.15,1556.83 1028.27,1540.01 1031.07,1522.04C1044,1510.21 1042.21,1502.19 1033.08,1496.75ZM951.479,1610.58C911.525,1610.58 874.477,1566.33 882.071,1526.83C889.196,1489.74 944.001,1491.9 972.289,1493C1000.37,1494.1 1012.26,1507.42 1015.53,1530.42C1015.77,1536.88 1016.03,1543.12 1016.35,1548.96C1014.9,1587.43 990.542,1610.58 951.479,1610.58ZM771.079,1610.58C736.401,1610.58 710.043,1592.41 706.442,1556.41C702.904,1520.96 711.951,1494.5 750.272,1493C776.789,1491.96 825.312,1489.49 838.213,1519.47C855.614,1559.87 811.421,1610.58 771.079,1610.58ZM826.202,1495.35C806.738,1488.87 733.005,1475.68 700.982,1489.07C698.533,1466.08 708.424,1445.73 714.294,1422.59C711.76,1423.68 709.234,1424.76 706.697,1425.85C715.004,1404.27 725.436,1386.21 737.423,1366.35C744.812,1354.1 792.659,1366.17 802.564,1367.81C848.101,1375.36 890.29,1364.92 935.502,1362.87C997.114,1360.07 1009.65,1427.11 1013.67,1490.14C988.948,1485.01 954.787,1485.32 946.453,1485.32C908.752,1485.32 864.236,1514.41 826.202,1495.35Z" style="fill:white;"/>
        </g>
    </g>
</svg>
