<svg width="1999" height="209" viewBox="0 0 1999 209" fill="none" xmlns="http://www.w3.org/2000/svg">
<rect width="1999" height="209" fill="#E5E5E5"/>
<g clip-path="url(#clip0)">
<rect width="2000" height="3085" transform="translate(-1 -1935)" fill="white"/>
<path d="M532 -603.5C369.5 -603.5 212.5 -471 18 -471L5.5 -9.49994L2078.5 153.5V-453.5C2063.5 -436.667 1998.96 -408 1860.5 -408C1598 -408 801 -603.5 532 -603.5Z" fill="#9C5FFF" fill-opacity="0.5"/>
<path d="M612 -613.5C449.5 -613.5 292.5 -481 98 -481L85.5 -19.4999L2158.5 143.5V-463.5C2143.5 -446.667 2078.96 -418 1940.5 -418C1678 -418 881 -613.5 612 -613.5Z" fill="#E95FFF" fill-opacity="0.5"/>
<path d="M518.683 -598.343C356.208 -601.179 193.787 -492.497 -0.683703 -495.892L-18.1031 -13.6221L2051.74 185.532L2062.33 -421.376C2047.04 -404.807 1982.01 -377.271 1843.57 -379.687C1581.11 -384.269 787.642 -593.648 518.683 -598.343Z" fill="#925FFF" fill-opacity="0.7"/>
<path d="M525.52 -601.068C363.119 -606.739 198.826 -500.909 4.44411 -507.697L-21.3894 -25.8045L2044.66 209.443L2065.84 -397.187C2050.26 -380.888 1984.76 -354.491 1846.39 -359.323C1584.05 -368.484 794.356 -591.68 525.52 -601.068Z" fill="#D55FFF" fill-opacity="0.7"/>
<path d="M492 -593.5C329.5 -593.5 169 -482 -25.5 -482L-34.5 0.500061L2038.5 163.5V-443.5C2023.5 -426.667 1958.96 -398 1820.5 -398C1558 -398 761 -593.5 492 -593.5Z" fill="#925FFF"/>
</g>
<defs>
<clipPath id="clip0">
<rect width="2000" height="3085" fill="white" transform="translate(-1 -1935)"/>
</clipPath>
</defs>
</svg>
