<svg height="512pt" viewBox="0 -47 512 512" width="512pt" xmlns="http://www.w3.org/2000/svg"><path d="m205.484375 355.097656h101.03125v55.867188h-101.03125zm0 0" fill="#4e7693"/><path d="m205.488281 355.097656h101.023438v17.390625h-101.023438zm0 0" fill="#38627c"/><path d="m512 15.773438v331.777343c0 5.820313-4.707031 10.519531-10.519531 10.519531h-490.960938c-5.8125 0-10.519531-4.699218-10.519531-10.519531v-331.777343c0-8.707032 7.066406-15.773438 15.773438-15.773438h480.453124c8.714844 0 15.773438 7.066406 15.773438 15.773438zm0 0" fill="#e3f4ff"/><path d="m512 15.773438v331.777343c0 5.820313-4.707031 10.519531-10.519531 10.519531h-22.867188c5.808594 0 10.515625-4.699218 10.515625-10.519531v-331.777343c0-8.707032-7.066406-15.7617192-15.769531-15.7617192l.007813-.0117188h22.859374c8.714844 0 15.773438 7.066406 15.773438 15.773438zm0 0" fill="#bddff4"/><path d="m512 307.652344v39.902344c0 5.816406-4.707031 10.515624-10.507812 10.515624h-490.984376c-5.800781 0-10.507812-4.699218-10.507812-10.515624v-39.902344zm0 0" fill="#4e7693"/><path d="m512 307.652344v39.902344c0 5.816406-4.707031 10.515624-10.507812 10.515624h-22.878907c5.808594 0 10.515625-4.699218 10.515625-10.515624v-39.902344zm0 0" fill="#38627c"/><path d="m346.140625 418.691406h-180.28125c-4.269531 0-7.726563-3.460937-7.726563-7.726562 0-4.269532 3.460938-7.726563 7.726563-7.726563h180.28125c4.269531 0 7.726563 3.457031 7.726563 7.726563 0 4.265625-3.460938 7.726562-7.726563 7.726562zm0 0" fill="#38627c"/><path d="m89.914062 263.40625h-39.5625c-5.691406 0-10.300781-4.613281-10.300781-10.304688v-184.445312c0-5.6875 4.609375-10.300781 10.300781-10.300781h39.5625c5.691407 0 10.304688 4.613281 10.304688 10.300781v184.445312c0 5.691407-4.613281 10.304688-10.304688 10.304688zm0 0" fill="#a7c7d3"/><path d="m100.21875 83.136719h-60.167969v-14.480469c0-5.6875 4.609375-10.300781 10.300781-10.300781h39.5625c5.691407 0 10.304688 4.613281 10.304688 10.300781zm0 0" fill="#618baa"/><path d="m468.308594 126.761719h-39.5625c-5.691406 0-10.304688-4.613281-10.304688-10.300781v-47.804688c0-5.6875 4.613282-10.300781 10.304688-10.300781h39.5625c5.691406 0 10.304687 4.613281 10.304687 10.300781v47.804688c0 5.6875-4.613281 10.300781-10.304687 10.300781zm0 0" fill="#a7c7d3"/><path d="m478.613281 83.136719h-60.167969v-14.480469c0-5.6875 4.609376-10.300781 10.300782-10.300781h39.566406c5.6875 0 10.300781 4.613281 10.300781 10.300781zm0 0" fill="#618baa"/><path d="m468.308594 236.292969h-39.5625c-5.691406 0-10.304688-4.613281-10.304688-10.300781v-47.800782c0-5.691406 4.613282-10.304687 10.304688-10.304687h39.5625c5.691406 0 10.304687 4.613281 10.304687 10.304687v47.800782c0 5.6875-4.613281 10.300781-10.304687 10.300781zm0 0" fill="#a7c7d3"/><path d="m478.613281 192.667969h-60.167969v-14.476563c0-5.691406 4.609376-10.304687 10.300782-10.304687h39.566406c5.6875 0 10.300781 4.613281 10.300781 10.304687zm0 0" fill="#618baa"/><path d="m239.632812 121.65625 45.433594 45.433594c2.4375 2.4375 2.4375 6.378906 0 8.816406l-45.433594 45.433594c-2.4375 2.433594-6.378906 2.433594-8.816406 0l-45.429687-45.433594c-2.4375-2.4375-2.4375-6.378906 0-8.816406l45.429687-45.433594c2.4375-2.433594 6.378906-2.433594 8.816406 0zm0 0" fill="#43a3f9"/><path d="m248.171875 86.824219h64.242187c3.445313 0 6.238282 2.792969 6.238282 6.238281v64.242188c0 3.445312-2.792969 6.246093-6.238282 6.246093h-64.242187c-3.445313 0-6.234375-2.800781-6.234375-6.246093v-64.242188c0-3.445312 2.789062-6.238281 6.234375-6.238281zm0 0" fill="#f9b200"/><path d="m241.9375 123.960938 39.578125 39.589843h-33.34375c-3.445313 0-6.234375-2.800781-6.234375-6.246093zm0 0" fill="#9be058"/><path d="m310.988281 229.589844c-3.890625 0-7.238281-2.933594-7.671875-6.890625l-2.136718-19.578125c-.253907-2.328125.5625-4.644532 2.21875-6.300782s3.976562-2.46875 6.300781-2.21875l19.578125 2.136719c4.242187.464844 7.308594 4.28125 6.84375 8.519531-.464844 4.242188-4.269532 7.316407-8.519532 6.84375l-10.015624-1.09375 1.09375 10.015626c.464843 4.242187-2.601563 8.054687-6.84375 8.519531-.285157.03125-.566407.046875-.847657.046875zm0 0" fill="#38627c"/><path d="m244.890625 274.4375h-97.417969c-4.269531 0-7.726562-3.460938-7.726562-7.726562v-217.054688c0-4.269531 3.457031-7.726562 7.726562-7.726562h217.054688c4.269531 0 7.726562 3.457031 7.726562 7.726562v98.410156c0 4.269532-3.460937 7.726563-7.726562 7.726563s-7.726563-3.457031-7.726563-7.726563v-90.683594h-201.601562v201.601563h89.691406c4.269531 0 7.726563 3.457031 7.726563 7.726563 0 4.265624-3.457032 7.726562-7.726563 7.726562zm0 0" fill="#a7c7d3"/><g fill="#3fefef"><path d="m152.855469 284.554688h-10.300781c-6.996094 0-12.691407-5.695313-12.691407-12.691407v-10.304687c0-6.996094 5.695313-12.6875 12.691407-12.6875h10.300781c7 0 12.691406 5.691406 12.691406 12.6875v10.304687c0 6.996094-5.691406 12.691407-12.691406 12.691407zm0 0"/><path d="m152.855469 31.8125h-10.300781c-6.996094 0-12.691407 5.695312-12.691407 12.691406v10.304688c0 6.996094 5.695313 12.6875 12.691407 12.6875h10.300781c7 0 12.691406-5.691406 12.691406-12.6875v-10.304688c0-6.996094-5.691406-12.691406-12.691406-12.691406zm0 0"/><path d="m261.152344 31.8125h-10.304688c-6.996094 0-12.691406 5.695312-12.691406 12.691406v10.304688c0 6.996094 5.695312 12.6875 12.691406 12.6875h10.304688c6.996094 0 12.691406-5.691406 12.691406-12.6875v-10.304688c0-6.996094-5.695312-12.691406-12.691406-12.691406zm0 0"/><path d="m369.445312 31.8125h-10.300781c-7 0-12.691406 5.695312-12.691406 12.691406v10.304688c0 6.996094 5.691406 12.6875 12.691406 12.6875h10.300781c6.996094 0 12.691407-5.691406 12.691407-12.6875v-10.304688c0-6.996094-5.695313-12.691406-12.691407-12.691406zm0 0"/><path d="m261.152344 248.871094h-10.304688c-6.996094 0-12.691406 5.691406-12.691406 12.6875v10.304687c0 6.996094 5.695312 12.691407 12.691406 12.691407h10.304688c6.996094 0 12.691406-5.695313 12.691406-12.691407v-10.304687c0-6.996094-5.695312-12.6875-12.691406-12.6875zm0 0"/><path d="m152.855469 140.339844h-10.300781c-6.996094 0-12.691407 5.695312-12.691407 12.691406v10.304688c0 6.996093 5.695313 12.6875 12.691407 12.6875h10.300781c7 0 12.691406-5.691407 12.691406-12.6875v-10.304688c0-6.996094-5.691406-12.691406-12.691406-12.691406zm0 0"/><path d="m369.445312 140.339844h-10.300781c-7 0-12.691406 5.695312-12.691406 12.691406v10.304688c0 6.996093 5.691406 12.6875 12.691406 12.6875h10.300781c6.996094 0 12.691407-5.691407 12.691407-12.6875v-10.304688c0-6.996094-5.695313-12.691406-12.691407-12.691406zm0 0"/></g><path d="m364.527344 226.476562v35.269532c0 2.742187-2.222656 4.964844-4.964844 4.964844h-35.265625c-4.425781 0-6.640625-5.347657-3.511719-8.472657l35.269532-35.269531c3.125-3.128906 8.472656-.914062 8.472656 3.507812zm0 0" fill="#618baa"/></svg>