<?xml version="1.0" encoding="UTF-8" standalone="no"?>
<!DOCTYPE svg PUBLIC "-//W3C//DTD SVG 1.1//EN" "http://www.w3.org/Graphics/SVG/1.1/DTD/svg11.dtd">
<svg width="100%" height="100%" viewBox="0 0 1593 1593" version="1.1" xmlns="http://www.w3.org/2000/svg" xmlns:xlink="http://www.w3.org/1999/xlink" xml:space="preserve" xmlns:serif="http://www.serif.com/" style="fill-rule:evenodd;clip-rule:evenodd;stroke-linejoin:round;stroke-miterlimit:1.41421;">
    <g id="Artboard1" transform="matrix(1,0,0,1,-736.138,-806.274)">
        <rect x="736.138" y="806.274" width="1592.5" height="1592.5" style="fill:none;"/>
        <g id="Frame" transform="matrix(1,0,0,1,0.138056,10.2736)">
            <path d="M2323,1885L740,1885L740,1281L2323,1281L2323,1885ZM760.833,1301.83L760.833,1864.17L2302.17,1864.17L2302.17,1301.83L760.833,1301.83Z" style="fill:white;"/>
        </g>
        <g id="UNITED-STATES-OF-AMERICA" serif:id="UNITED STATES OF AMERICA" transform="matrix(8.33333,0,0,8.33333,-79143.6,-67097)">
            <text x="9598.31px" y="8265.17px" style="font-family:'Oswald-Regular', 'Oswald';font-size:9px;fill:white;">U<tspan x="9606.16px 9613.87px 9619.06px 9625.74px 9632.37px 9640.07px 9645.09px 9652.31px 9658.97px 9666.07px 9672.75px 9679.37px 9686.59px 9691.61px 9699.43px 9705.91px 9710.93px 9718.32px 9727.22px 9733.84px 9741.47px 9746.67px 9754.26px " y="8265.17px 8265.17px 8265.17px 8265.17px 8265.17px 8265.17px 8265.17px 8265.17px 8265.17px 8265.17px 8265.17px 8265.17px 8265.17px 8265.17px 8265.17px 8265.17px 8265.17px 8265.17px 8265.17px 8265.17px 8265.17px 8265.17px 8265.17px ">NITED STATES OF AMERICA</tspan></text>
        </g>
        <g id="KENTUCKY" transform="matrix(8.33333,0,0,8.33333,-79101.9,-67117.8)">
            <text x="9595.11px" y="8255.27px" style="font-family:'Oswald-SemiBold', 'Oswald SemiBold';font-weight:600;font-size:40px;fill:white;">K<tspan x="9616.19px 9632.75px 9653.91px 9670.43px 9692.55px 9713.67px 9734.75px " y="8255.27px 8255.27px 8255.27px 8255.27px 8255.27px 8255.27px 8255.27px ">ENTUCKY</tspan></text>
        </g>
    </g>
</svg>
