<svg width="121" height="47" viewBox="0 0 121 47" fill="none" xmlns="http://www.w3.org/2000/svg">
<path d="M50.4659 24.2454C48.9459 24.2454 47.7059 24.7654 46.7459 25.8054C45.8259 26.8454 45.3659 28.0654 45.3659 29.4654C45.3659 30.9454 45.8459 32.2054 46.8059 33.2454C47.7659 34.2854 49.0059 34.8054 50.5259 34.8054C52.0459 34.8054 53.2859 34.2854 54.2459 33.2454C55.2059 32.2054 55.6859 30.9454 55.6859 29.4654C55.6859 28.0654 55.1859 26.8454 54.1859 25.8054C53.2259 24.7654 51.9859 24.2454 50.4659 24.2454Z" fill="#F33F59"/>
<path fill-rule="evenodd" clip-rule="evenodd" d="M34.5866 38.4062C32.6506 35.5861 31.5258 32.2202 31.5258 28.6054C31.5258 25.4486 32.3836 22.4816 33.8904 19.9022C33.5813 19.3915 33.2445 18.8992 32.88 18.4254C31.68 16.8654 30.18 15.6054 28.38 14.6454C26.58 13.6854 24.5 13.2054 22.14 13.2054C20.62 13.2054 19.1 13.5054 17.58 14.1054C16.06 14.6654 14.84 15.4854 13.92 16.5654H13.8V0.245361H0V45.6054H12.42V42.3054H12.54C13.46 43.5854 14.8 44.6054 16.56 45.3654C18.32 46.0854 20.18 46.4454 22.14 46.4454C24.5 46.4454 26.58 45.9654 28.38 45.0054C30.18 44.0454 31.68 42.7854 32.88 41.2254C33.5395 40.3461 34.1084 39.4063 34.5866 38.4062ZM67.1039 37.4061V45.6054H80.9639V30.3054C80.9639 28.7854 81.5039 27.5054 82.5839 26.4654C83.2119 25.8606 83.9616 25.4317 84.833 25.1786C84.483 26.5781 84.308 28.0871 84.308 29.7054C84.308 32.4254 84.788 34.8454 85.748 36.9654C86.748 39.0854 88.068 40.8854 89.708 42.3654C91.348 43.8054 93.248 44.9054 95.408 45.6654C97.608 46.4254 99.888 46.8054 102.248 46.8054C104.648 46.8054 106.928 46.4254 109.088 45.6654C111.288 44.9054 113.208 43.8054 114.848 42.3654C116.528 40.8854 117.848 39.0854 118.808 36.9654C119.808 34.8454 120.308 32.4254 120.308 29.7054C120.308 27.0254 119.808 24.6454 118.808 22.5654C117.848 20.4454 116.528 18.6654 114.848 17.2254C113.208 15.7854 111.288 14.7054 109.088 13.9854C106.928 13.2254 104.648 12.8454 102.248 12.8454C99.888 12.8454 97.608 13.2254 95.408 13.9854C93.6509 14.5711 92.0658 15.395 90.6528 16.4571L90.9239 13.5054C90.2439 13.3054 89.3639 13.2054 88.2839 13.2054C86.4839 13.2054 84.9039 13.6254 83.5439 14.4654C82.2239 15.3054 81.2239 16.3654 80.5439 17.6454H80.4239V14.0454H67.1039C64.9563 13.978 63.1359 13.9605 61.6282 13.9965C66.412 17.2652 69.5258 22.5908 69.5258 28.6054C69.5258 31.802 68.6463 34.804 67.1039 37.4061ZM23.7 29.7054C23.7 28.3054 23.26 27.0854 22.38 26.0454C21.5 25.0054 20.22 24.4854 18.54 24.4854C16.9 24.4854 15.58 25.0054 14.58 26.0454C13.62 27.0854 13.14 28.3054 13.14 29.7054C13.14 31.1854 13.62 32.4454 14.58 33.4854C15.58 34.5254 16.9 35.0454 18.54 35.0454C20.22 35.0454 21.5 34.5454 22.38 33.5454C23.26 32.5054 23.7 31.2254 23.7 29.7054ZM98.528 26.0454C99.488 25.0054 100.728 24.4854 102.248 24.4854C103.768 24.4854 105.008 25.0054 105.968 26.0454C106.968 27.0854 107.468 28.3054 107.468 29.7054C107.468 31.1854 106.988 32.4454 106.028 33.4854C105.068 34.5254 103.828 35.0454 102.308 35.0454C100.788 35.0454 99.548 34.5254 98.588 33.4854C97.628 32.4454 97.148 31.1854 97.148 29.7054C97.148 28.3054 97.608 27.0854 98.528 26.0454Z" fill="white"/>
</svg>
